#N canvas 345 29 1626 962 10;
#X obj 102 867 dac~;
#X obj 263 149 s duration;
#X obj 261 80 inlet;
#X floatatom 305 110 5 0 0 0 - - -, f 5;
#X obj 581 824 +~;
#N canvas 69 126 783 703 fmVoice2 0;
#X obj 80 555 osc~;
#X floatatom 70 350 5 0 0 0 - - -, f 5;
#X obj 139 454 osc~;
#X obj 83 498 +~;
#X obj 261 425 pack f 30;
#X obj 261 447 line~;
#X obj 117 476 *~;
#X text 25 308 carrier frequency;
#X text 481 524 modulating frequency;
#X text 335 390 inharmonic sound;
#X text 520 591 modulating index;
#X text 485 204 Frequency Modulation or FM Synthesis;
#X text 485 540 think period becoming shorter;
#X text 559 623 think range of frequency;
#X text 508 275 x cycles/s of +- y;
#X obj 127 400 *;
#X floatatom 142 438 5 0 0 0 - - -, f 5;
#X obj 167 309 r hr;
#X floatatom 195 337 5 0 0 0 - - -, f 5;
#X obj 136 372 t b f;
#X obj 306 340 t b f;
#X floatatom 281 389 5 0 0 0 - - -, f 5;
#X obj 306 362 *;
#X obj 99 592 *~;
#N canvas 746 161 450 300 genericAdsr 0;
#X obj 148 372 line~;
#X floatatom 23 112 5 0 0 0 - - -, f 5;
#X text 27 144 attack;
#X text 141 154 decay;
#X obj 23 128 t b b f, f 33;
#X text 237 146 level;
#X obj 318 151 bng 15 250 50 0 empty empty empty 17 7 0 10 -262144
-1 -1;
#X text 25 80 KEY PRESS;
#X text 292 122 KEY RELEASE;
#X obj 318 172 t b b;
#X obj 22 300 pack;
#X obj 56 257 r a;
#X floatatom 56 275 5 0 0 0 - - -, f 5;
#X obj 148 173 r a;
#X floatatom 148 191 5 0 0 0 - - -, f 5;
#X obj 126 211 del;
#X obj 137 280 f;
#X obj 162 214 r s;
#X obj 162 231 dbtorms;
#X floatatom 162 249 5 0 0 0 - - -, f 5;
#X obj 137 307 pack, f 9;
#X floatatom 197 284 5 0 0 0 - - -, f 5;
#X obj 197 266 r d;
#X obj 154 401 *~, f 13;
#X msg 349 193 stop;
#X msg 318 228 0;
#X obj 317 288 pack;
#X obj 366 231 r r;
#X floatatom 366 249 5 0 0 0 - - -, f 5;
#X obj 11 15 inlet;
#X obj 39 46 sel 0;
#X obj 159 429 outlet~;
#X msg 22 202 1;
#X connect 0 0 23 0;
#X connect 1 0 4 0;
#X connect 4 0 32 0;
#X connect 4 1 15 0;
#X connect 4 2 23 1;
#X connect 6 0 9 0;
#X connect 9 0 25 0;
#X connect 9 1 24 0;
#X connect 10 0 0 0;
#X connect 11 0 12 0;
#X connect 12 0 10 1;
#X connect 13 0 14 0;
#X connect 14 0 15 1;
#X connect 15 0 16 0;
#X connect 16 0 20 0;
#X connect 17 0 18 0;
#X connect 18 0 19 0;
#X connect 19 0 16 1;
#X connect 20 0 0 0;
#X connect 21 0 20 1;
#X connect 22 0 21 0;
#X connect 23 0 31 0;
#X connect 24 0 15 0;
#X connect 25 0 26 0;
#X connect 26 0 0 0;
#X connect 27 0 28 0;
#X connect 28 0 26 1;
#X connect 29 0 30 0;
#X connect 30 0 6 0;
#X connect 30 1 1 0;
#X connect 32 0 10 0;
#X restore 355 484 pd genericAdsr;
#X floatatom 408 324 5 0 0 0 - - -, f 5;
#X obj 101 654 outlet~;
#X floatatom 288 293 5 0 0 0 - - -, f 5;
#X msg 343 293 0;
#X obj 334 274 bng 15 250 50 0 empty empty empty 17 7 0 10 -262144
-1 -1;
#X obj 338 205 r duration;
#X obj 283 258 bng 15 250 50 0 empty empty empty 17 7 0 10 -262144
-1 -1;
#X obj 306 243 del 1000;
#X obj 210 289 loadbang;
#X msg 210 311 1;
#X obj 405 297 r hi;
#X msg 78 279 \$1;
#X msg 233 258 \$2;
#X floatatom 73 156 5 0 0 0 - - -, f 5;
#X floatatom 150 140 5 0 0 0 - - -, f 5;
#X obj 150 159 / 127;
#X obj 109 192 pack;
#X obj 154 184 t b f;
#X msg 51 113 \$1;
#X msg 152 86 \$2;
#X msg 154 58 231 75;
#X obj 75 425 pack f 30;
#X obj 75 447 line~;
#X obj 17 17 r freq2;
#X obj 48 61 del 500;
#X msg 86 27 \$2;
#X obj 24 84 f;
#X obj 47 40 bng 15 250 50 0 empty empty empty 17 7 0 10 -262144 -1
-1;
#X msg 2 37 \$1;
#X obj 258 46 loadbang;
#X msg 258 68 75;
#X obj 258 90 / 127;
#X connect 0 0 23 0;
#X connect 1 0 15 0;
#X connect 1 0 46 0;
#X connect 2 0 6 0;
#X connect 3 0 0 0;
#X connect 4 0 5 0;
#X connect 5 0 6 1;
#X connect 6 0 3 1;
#X connect 15 0 16 0;
#X connect 15 0 22 0;
#X connect 16 0 2 0;
#X connect 17 0 18 0;
#X connect 18 0 19 0;
#X connect 19 0 15 0;
#X connect 19 1 15 1;
#X connect 20 0 22 0;
#X connect 20 1 22 1;
#X connect 21 0 4 0;
#X connect 22 0 21 0;
#X connect 23 0 26 0;
#X connect 24 0 23 1;
#X connect 25 0 20 0;
#X connect 28 0 24 0;
#X connect 29 0 28 0;
#X connect 30 0 32 1;
#X connect 31 0 32 0;
#X connect 32 0 29 0;
#X connect 33 0 34 0;
#X connect 34 0 18 0;
#X connect 34 0 25 0;
#X connect 35 0 25 0;
#X connect 36 0 1 0;
#X connect 37 0 24 0;
#X connect 37 0 27 0;
#X connect 37 0 31 0;
#X connect 38 0 41 0;
#X connect 39 0 40 0;
#X connect 40 0 42 0;
#X connect 41 0 36 0;
#X connect 41 0 37 0;
#X connect 42 0 41 0;
#X connect 42 1 41 1;
#X connect 43 0 38 0;
#X connect 44 0 39 0;
#X connect 45 0 44 0;
#X connect 45 0 43 0;
#X connect 46 0 47 0;
#X connect 47 0 3 0;
#X connect 48 0 52 0;
#X connect 48 0 53 0;
#X connect 48 0 50 0;
#X connect 49 0 51 0;
#X connect 50 0 49 1;
#X connect 51 0 43 0;
#X connect 52 0 49 0;
#X connect 53 0 51 1;
#X connect 54 0 55 0;
#X connect 55 0 56 0;
#X connect 56 0 41 1;
#X restore 340 695 pd fmVoice2;
#N canvas 404 171 783 703 fmVoice1 0;
#X obj 80 555 osc~;
#X floatatom 70 350 5 0 0 0 - - -, f 5;
#X obj 139 454 osc~;
#X obj 83 498 +~;
#X obj 261 425 pack f 30;
#X obj 261 447 line~;
#X obj 117 476 *~;
#X text 25 308 carrier frequency;
#X text 481 524 modulating frequency;
#X text 335 390 inharmonic sound;
#X text 520 591 modulating index;
#X text 485 204 Frequency Modulation or FM Synthesis;
#X text 485 540 think period becoming shorter;
#X text 559 623 think range of frequency;
#X text 508 275 x cycles/s of +- y;
#X obj 127 400 *;
#X floatatom 142 438 5 0 0 0 - - -, f 5;
#X obj 167 309 r hr;
#X floatatom 195 337 5 0 0 0 - - -, f 5;
#X obj 136 372 t b f;
#X obj 306 340 t b f;
#X floatatom 281 389 5 0 0 0 - - -, f 5;
#X obj 306 362 *;
#X obj 99 592 *~;
#N canvas 1176 167 450 300 genericAdsr 0;
#X obj 148 372 line~;
#X floatatom 23 112 5 0 0 0 - - -, f 5;
#X text 27 144 attack;
#X text 141 154 decay;
#X obj 23 128 t b b f, f 33;
#X text 237 146 level;
#X obj 318 151 bng 15 250 50 0 empty empty empty 17 7 0 10 -262144
-1 -1;
#X text 25 80 KEY PRESS;
#X text 292 122 KEY RELEASE;
#X obj 318 172 t b b;
#X obj 22 300 pack;
#X obj 56 257 r a;
#X floatatom 56 275 5 0 0 0 - - -, f 5;
#X obj 148 173 r a;
#X floatatom 148 191 5 0 0 0 - - -, f 5;
#X obj 126 211 del;
#X obj 137 280 f;
#X obj 162 214 r s;
#X obj 162 231 dbtorms;
#X floatatom 162 249 5 0 0 0 - - -, f 5;
#X obj 137 307 pack, f 9;
#X floatatom 197 284 5 0 0 0 - - -, f 5;
#X obj 197 266 r d;
#X obj 154 401 *~, f 13;
#X msg 349 193 stop;
#X msg 318 228 0;
#X obj 317 288 pack;
#X obj 366 231 r r;
#X floatatom 366 249 5 0 0 0 - - -, f 5;
#X obj 11 15 inlet;
#X obj 39 46 sel 0;
#X obj 159 429 outlet~;
#X msg 22 202 1;
#X connect 0 0 23 0;
#X connect 1 0 4 0;
#X connect 4 0 32 0;
#X connect 4 1 15 0;
#X connect 4 2 23 1;
#X connect 6 0 9 0;
#X connect 9 0 25 0;
#X connect 9 1 24 0;
#X connect 10 0 0 0;
#X connect 11 0 12 0;
#X connect 12 0 10 1;
#X connect 13 0 14 0;
#X connect 14 0 15 1;
#X connect 15 0 16 0;
#X connect 16 0 20 0;
#X connect 17 0 18 0;
#X connect 18 0 19 0;
#X connect 19 0 16 1;
#X connect 20 0 0 0;
#X connect 21 0 20 1;
#X connect 22 0 21 0;
#X connect 23 0 31 0;
#X connect 24 0 15 0;
#X connect 25 0 26 0;
#X connect 26 0 0 0;
#X connect 27 0 28 0;
#X connect 28 0 26 1;
#X connect 29 0 30 0;
#X connect 30 0 6 0;
#X connect 30 1 1 0;
#X connect 32 0 10 0;
#X restore 355 484 pd genericAdsr;
#X floatatom 408 324 5 0 0 0 - - -, f 5;
#X obj 101 654 outlet~;
#X floatatom 288 293 5 0 0 0 - - -, f 5;
#X msg 343 293 0;
#X obj 334 274 bng 15 250 50 0 empty empty empty 17 7 0 10 -262144
-1 -1;
#X obj 338 205 r duration;
#X obj 283 258 bng 15 250 50 0 empty empty empty 17 7 0 10 -262144
-1 -1;
#X obj 306 243 del 1000;
#X obj 210 289 loadbang;
#X msg 210 311 1;
#X obj 405 297 r hi;
#X msg 78 279 \$1;
#X msg 233 258 \$2;
#X floatatom 73 156 5 0 0 0 - - -, f 5;
#X floatatom 150 140 5 0 0 0 - - -, f 5;
#X obj 150 159 / 127;
#X obj 109 192 pack;
#X obj 154 184 t b f;
#X msg 51 113 \$1;
#X msg 152 86 \$2;
#X msg 154 58 231 75;
#X obj 75 425 pack f 30;
#X obj 75 447 line~;
#X obj 48 61 del 500;
#X msg 86 27 \$2;
#X obj 24 84 f;
#X obj 47 40 bng 15 250 50 0 empty empty empty 17 7 0 10 -262144 -1
-1;
#X msg 2 37 \$1;
#X obj 17 17 r freq1;
#X obj 258 46 loadbang;
#X msg 258 68 75;
#X obj 258 90 / 127;
#X connect 0 0 23 0;
#X connect 1 0 15 0;
#X connect 1 0 46 0;
#X connect 2 0 6 0;
#X connect 3 0 0 0;
#X connect 4 0 5 0;
#X connect 5 0 6 1;
#X connect 6 0 3 1;
#X connect 15 0 16 0;
#X connect 15 0 22 0;
#X connect 16 0 2 0;
#X connect 17 0 18 0;
#X connect 18 0 19 0;
#X connect 19 0 15 0;
#X connect 19 1 15 1;
#X connect 20 0 22 0;
#X connect 20 1 22 1;
#X connect 21 0 4 0;
#X connect 22 0 21 0;
#X connect 23 0 26 0;
#X connect 24 0 23 1;
#X connect 25 0 20 0;
#X connect 28 0 24 0;
#X connect 29 0 28 0;
#X connect 30 0 32 1;
#X connect 31 0 32 0;
#X connect 32 0 29 0;
#X connect 33 0 34 0;
#X connect 34 0 18 0;
#X connect 34 0 25 0;
#X connect 35 0 25 0;
#X connect 36 0 1 0;
#X connect 37 0 24 0;
#X connect 37 0 27 0;
#X connect 37 0 31 0;
#X connect 38 0 41 0;
#X connect 39 0 40 0;
#X connect 40 0 42 0;
#X connect 41 0 36 0;
#X connect 41 0 37 0;
#X connect 42 0 41 0;
#X connect 42 1 41 1;
#X connect 43 0 38 0;
#X connect 44 0 39 0;
#X connect 45 0 44 0;
#X connect 45 0 43 0;
#X connect 46 0 47 0;
#X connect 47 0 3 0;
#X connect 48 0 50 0;
#X connect 49 0 48 1;
#X connect 50 0 43 0;
#X connect 51 0 48 0;
#X connect 52 0 50 1;
#X connect 53 0 51 0;
#X connect 53 0 52 0;
#X connect 53 0 49 0;
#X connect 54 0 55 0;
#X connect 55 0 56 0;
#X connect 56 0 41 1;
#X restore 222 694 pd fmVoice1;
#N canvas 69 126 783 703 fmVoice3 0;
#X obj 80 555 osc~;
#X floatatom 70 350 5 0 0 0 - - -, f 5;
#X obj 139 454 osc~;
#X obj 83 498 +~;
#X obj 261 425 pack f 30;
#X obj 261 447 line~;
#X obj 117 476 *~;
#X text 25 308 carrier frequency;
#X text 481 524 modulating frequency;
#X text 335 390 inharmonic sound;
#X text 520 591 modulating index;
#X text 485 204 Frequency Modulation or FM Synthesis;
#X text 485 540 think period becoming shorter;
#X text 559 623 think range of frequency;
#X text 508 275 x cycles/s of +- y;
#X obj 127 400 *;
#X floatatom 142 438 5 0 0 0 - - -, f 5;
#X obj 167 309 r hr;
#X floatatom 195 337 5 0 0 0 - - -, f 5;
#X obj 136 372 t b f;
#X obj 306 340 t b f;
#X floatatom 281 389 5 0 0 0 - - -, f 5;
#X obj 306 362 *;
#X obj 99 592 *~;
#N canvas 746 161 450 300 genericAdsr 0;
#X obj 148 372 line~;
#X floatatom 23 112 5 0 0 0 - - -, f 5;
#X text 27 144 attack;
#X text 141 154 decay;
#X obj 23 128 t b b f, f 33;
#X text 237 146 level;
#X obj 318 151 bng 15 250 50 0 empty empty empty 17 7 0 10 -262144
-1 -1;
#X text 25 80 KEY PRESS;
#X text 292 122 KEY RELEASE;
#X obj 318 172 t b b;
#X obj 22 300 pack;
#X obj 56 257 r a;
#X floatatom 56 275 5 0 0 0 - - -, f 5;
#X obj 148 173 r a;
#X floatatom 148 191 5 0 0 0 - - -, f 5;
#X obj 126 211 del;
#X obj 137 280 f;
#X obj 162 214 r s;
#X obj 162 231 dbtorms;
#X floatatom 162 249 5 0 0 0 - - -, f 5;
#X obj 137 307 pack, f 9;
#X floatatom 197 284 5 0 0 0 - - -, f 5;
#X obj 197 266 r d;
#X obj 154 401 *~, f 13;
#X msg 349 193 stop;
#X msg 318 228 0;
#X obj 317 288 pack;
#X obj 366 231 r r;
#X floatatom 366 249 5 0 0 0 - - -, f 5;
#X obj 11 15 inlet;
#X obj 39 46 sel 0;
#X obj 159 429 outlet~;
#X msg 22 202 1;
#X connect 0 0 23 0;
#X connect 1 0 4 0;
#X connect 4 0 32 0;
#X connect 4 1 15 0;
#X connect 4 2 23 1;
#X connect 6 0 9 0;
#X connect 9 0 25 0;
#X connect 9 1 24 0;
#X connect 10 0 0 0;
#X connect 11 0 12 0;
#X connect 12 0 10 1;
#X connect 13 0 14 0;
#X connect 14 0 15 1;
#X connect 15 0 16 0;
#X connect 16 0 20 0;
#X connect 17 0 18 0;
#X connect 18 0 19 0;
#X connect 19 0 16 1;
#X connect 20 0 0 0;
#X connect 21 0 20 1;
#X connect 22 0 21 0;
#X connect 23 0 31 0;
#X connect 24 0 15 0;
#X connect 25 0 26 0;
#X connect 26 0 0 0;
#X connect 27 0 28 0;
#X connect 28 0 26 1;
#X connect 29 0 30 0;
#X connect 30 0 6 0;
#X connect 30 1 1 0;
#X connect 32 0 10 0;
#X restore 355 484 pd genericAdsr;
#X floatatom 408 324 5 0 0 0 - - -, f 5;
#X obj 101 654 outlet~;
#X floatatom 288 293 5 0 0 0 - - -, f 5;
#X msg 343 293 0;
#X obj 334 274 bng 15 250 50 0 empty empty empty 17 7 0 10 -262144
-1 -1;
#X obj 338 205 r duration;
#X obj 283 258 bng 15 250 50 0 empty empty empty 17 7 0 10 -262144
-1 -1;
#X obj 306 243 del 1000;
#X obj 210 289 loadbang;
#X msg 210 311 1;
#X obj 405 297 r hi;
#X msg 78 279 \$1;
#X msg 233 258 \$2;
#X floatatom 73 156 5 0 0 0 - - -, f 5;
#X floatatom 150 140 5 0 0 0 - - -, f 5;
#X obj 150 159 / 127;
#X obj 109 192 pack;
#X obj 154 184 t b f;
#X msg 51 113 \$1;
#X msg 152 86 \$2;
#X msg 154 58 231 75;
#X obj 75 425 pack f 30;
#X obj 75 447 line~;
#X obj 48 61 del 500;
#X msg 86 27 \$2;
#X obj 24 84 f;
#X obj 47 40 bng 15 250 50 0 empty empty empty 17 7 0 10 -262144 -1
-1;
#X msg 2 37 \$1;
#X obj 17 17 r freq3;
#X obj 258 46 loadbang;
#X msg 258 68 75;
#X obj 258 90 / 127;
#X connect 0 0 23 0;
#X connect 1 0 15 0;
#X connect 1 0 46 0;
#X connect 2 0 6 0;
#X connect 3 0 0 0;
#X connect 4 0 5 0;
#X connect 5 0 6 1;
#X connect 6 0 3 1;
#X connect 15 0 16 0;
#X connect 15 0 22 0;
#X connect 16 0 2 0;
#X connect 17 0 18 0;
#X connect 18 0 19 0;
#X connect 19 0 15 0;
#X connect 19 1 15 1;
#X connect 20 0 22 0;
#X connect 20 1 22 1;
#X connect 21 0 4 0;
#X connect 22 0 21 0;
#X connect 23 0 26 0;
#X connect 24 0 23 1;
#X connect 25 0 20 0;
#X connect 28 0 24 0;
#X connect 29 0 28 0;
#X connect 30 0 32 1;
#X connect 31 0 32 0;
#X connect 32 0 29 0;
#X connect 33 0 34 0;
#X connect 34 0 18 0;
#X connect 34 0 25 0;
#X connect 35 0 25 0;
#X connect 36 0 1 0;
#X connect 37 0 24 0;
#X connect 37 0 27 0;
#X connect 37 0 31 0;
#X connect 38 0 41 0;
#X connect 39 0 40 0;
#X connect 40 0 42 0;
#X connect 41 0 36 0;
#X connect 41 0 37 0;
#X connect 42 0 41 0;
#X connect 42 1 41 1;
#X connect 43 0 38 0;
#X connect 44 0 39 0;
#X connect 45 0 44 0;
#X connect 45 0 43 0;
#X connect 46 0 47 0;
#X connect 47 0 3 0;
#X connect 48 0 50 0;
#X connect 49 0 48 1;
#X connect 50 0 43 0;
#X connect 51 0 48 0;
#X connect 52 0 50 1;
#X connect 53 0 51 0;
#X connect 53 0 52 0;
#X connect 53 0 49 0;
#X connect 54 0 55 0;
#X connect 55 0 56 0;
#X connect 56 0 41 1;
#X restore 447 699 pd fmVoice3;
#N canvas 69 126 783 703 fmVoice4 0;
#X obj 80 555 osc~;
#X floatatom 70 350 5 0 0 0 - - -, f 5;
#X obj 139 454 osc~;
#X obj 83 498 +~;
#X obj 261 425 pack f 30;
#X obj 261 447 line~;
#X obj 117 476 *~;
#X text 25 308 carrier frequency;
#X text 481 524 modulating frequency;
#X text 335 390 inharmonic sound;
#X text 520 591 modulating index;
#X text 485 204 Frequency Modulation or FM Synthesis;
#X text 485 540 think period becoming shorter;
#X text 559 623 think range of frequency;
#X text 508 275 x cycles/s of +- y;
#X obj 127 400 *;
#X floatatom 142 438 5 0 0 0 - - -, f 5;
#X obj 167 309 r hr;
#X floatatom 195 337 5 0 0 0 - - -, f 5;
#X obj 136 372 t b f;
#X obj 306 340 t b f;
#X floatatom 281 389 5 0 0 0 - - -, f 5;
#X obj 306 362 *;
#X obj 99 592 *~;
#N canvas 746 161 450 300 genericAdsr 0;
#X obj 148 372 line~;
#X floatatom 23 112 5 0 0 0 - - -, f 5;
#X text 27 144 attack;
#X text 141 154 decay;
#X obj 23 128 t b b f, f 33;
#X text 237 146 level;
#X obj 318 151 bng 15 250 50 0 empty empty empty 17 7 0 10 -262144
-1 -1;
#X text 25 80 KEY PRESS;
#X text 292 122 KEY RELEASE;
#X obj 318 172 t b b;
#X obj 22 300 pack;
#X obj 56 257 r a;
#X floatatom 56 275 5 0 0 0 - - -, f 5;
#X obj 148 173 r a;
#X floatatom 148 191 5 0 0 0 - - -, f 5;
#X obj 126 211 del;
#X obj 137 280 f;
#X obj 162 214 r s;
#X obj 162 231 dbtorms;
#X floatatom 162 249 5 0 0 0 - - -, f 5;
#X obj 137 307 pack, f 9;
#X floatatom 197 284 5 0 0 0 - - -, f 5;
#X obj 197 266 r d;
#X obj 154 401 *~, f 13;
#X msg 349 193 stop;
#X msg 318 228 0;
#X obj 317 288 pack;
#X obj 366 231 r r;
#X floatatom 366 249 5 0 0 0 - - -, f 5;
#X obj 11 15 inlet;
#X obj 39 46 sel 0;
#X obj 159 429 outlet~;
#X msg 22 202 1;
#X connect 0 0 23 0;
#X connect 1 0 4 0;
#X connect 4 0 32 0;
#X connect 4 1 15 0;
#X connect 4 2 23 1;
#X connect 6 0 9 0;
#X connect 9 0 25 0;
#X connect 9 1 24 0;
#X connect 10 0 0 0;
#X connect 11 0 12 0;
#X connect 12 0 10 1;
#X connect 13 0 14 0;
#X connect 14 0 15 1;
#X connect 15 0 16 0;
#X connect 16 0 20 0;
#X connect 17 0 18 0;
#X connect 18 0 19 0;
#X connect 19 0 16 1;
#X connect 20 0 0 0;
#X connect 21 0 20 1;
#X connect 22 0 21 0;
#X connect 23 0 31 0;
#X connect 24 0 15 0;
#X connect 25 0 26 0;
#X connect 26 0 0 0;
#X connect 27 0 28 0;
#X connect 28 0 26 1;
#X connect 29 0 30 0;
#X connect 30 0 6 0;
#X connect 30 1 1 0;
#X connect 32 0 10 0;
#X restore 355 484 pd genericAdsr;
#X floatatom 408 324 5 0 0 0 - - -, f 5;
#X obj 101 654 outlet~;
#X floatatom 288 293 5 0 0 0 - - -, f 5;
#X msg 343 293 0;
#X obj 334 274 bng 15 250 50 0 empty empty empty 17 7 0 10 -262144
-1 -1;
#X obj 338 205 r duration;
#X obj 283 258 bng 15 250 50 0 empty empty empty 17 7 0 10 -262144
-1 -1;
#X obj 306 243 del 1000;
#X obj 210 289 loadbang;
#X msg 210 311 1;
#X obj 405 297 r hi;
#X msg 78 279 \$1;
#X msg 233 258 \$2;
#X floatatom 73 156 5 0 0 0 - - -, f 5;
#X floatatom 150 140 5 0 0 0 - - -, f 5;
#X obj 150 159 / 127;
#X obj 109 192 pack;
#X obj 154 184 t b f;
#X msg 51 113 \$1;
#X msg 152 86 \$2;
#X msg 154 58 231 75;
#X obj 75 425 pack f 30;
#X obj 75 447 line~;
#X obj 48 61 del 500;
#X msg 86 27 \$2;
#X obj 24 84 f;
#X obj 47 40 bng 15 250 50 0 empty empty empty 17 7 0 10 -262144 -1
-1;
#X msg 2 37 \$1;
#X obj 17 17 r freq4;
#X obj 258 46 loadbang;
#X msg 258 68 75;
#X obj 258 90 / 127;
#X connect 0 0 23 0;
#X connect 1 0 15 0;
#X connect 1 0 46 0;
#X connect 2 0 6 0;
#X connect 3 0 0 0;
#X connect 4 0 5 0;
#X connect 5 0 6 1;
#X connect 6 0 3 1;
#X connect 15 0 16 0;
#X connect 15 0 22 0;
#X connect 16 0 2 0;
#X connect 17 0 18 0;
#X connect 18 0 19 0;
#X connect 19 0 15 0;
#X connect 19 1 15 1;
#X connect 20 0 22 0;
#X connect 20 1 22 1;
#X connect 21 0 4 0;
#X connect 22 0 21 0;
#X connect 23 0 26 0;
#X connect 24 0 23 1;
#X connect 25 0 20 0;
#X connect 28 0 24 0;
#X connect 29 0 28 0;
#X connect 30 0 32 1;
#X connect 31 0 32 0;
#X connect 32 0 29 0;
#X connect 33 0 34 0;
#X connect 34 0 18 0;
#X connect 34 0 25 0;
#X connect 35 0 25 0;
#X connect 36 0 1 0;
#X connect 37 0 24 0;
#X connect 37 0 27 0;
#X connect 37 0 31 0;
#X connect 38 0 41 0;
#X connect 39 0 40 0;
#X connect 40 0 42 0;
#X connect 41 0 36 0;
#X connect 41 0 37 0;
#X connect 42 0 41 0;
#X connect 42 1 41 1;
#X connect 43 0 38 0;
#X connect 44 0 39 0;
#X connect 45 0 44 0;
#X connect 45 0 43 0;
#X connect 46 0 47 0;
#X connect 47 0 3 0;
#X connect 48 0 50 0;
#X connect 49 0 48 1;
#X connect 50 0 43 0;
#X connect 51 0 48 0;
#X connect 52 0 50 1;
#X connect 53 0 51 0;
#X connect 53 0 52 0;
#X connect 53 0 49 0;
#X connect 54 0 55 0;
#X connect 55 0 56 0;
#X connect 56 0 41 1;
#X restore 528 692 pd fmVoice4;
#N canvas 69 126 783 703 fmVoice5 0;
#X obj 80 555 osc~;
#X floatatom 70 350 5 0 0 0 - - -, f 5;
#X obj 139 454 osc~;
#X obj 83 498 +~;
#X obj 261 425 pack f 30;
#X obj 261 447 line~;
#X obj 117 476 *~;
#X text 25 308 carrier frequency;
#X text 481 524 modulating frequency;
#X text 335 390 inharmonic sound;
#X text 520 591 modulating index;
#X text 485 204 Frequency Modulation or FM Synthesis;
#X text 485 540 think period becoming shorter;
#X text 559 623 think range of frequency;
#X text 508 275 x cycles/s of +- y;
#X obj 127 400 *;
#X floatatom 142 438 5 0 0 0 - - -, f 5;
#X obj 167 309 r hr;
#X floatatom 195 337 5 0 0 0 - - -, f 5;
#X obj 136 372 t b f;
#X obj 306 340 t b f;
#X floatatom 281 389 5 0 0 0 - - -, f 5;
#X obj 306 362 *;
#X obj 99 592 *~;
#N canvas 746 161 450 300 genericAdsr 0;
#X obj 148 372 line~;
#X floatatom 23 112 5 0 0 0 - - -, f 5;
#X text 27 144 attack;
#X text 141 154 decay;
#X obj 23 128 t b b f, f 33;
#X text 237 146 level;
#X obj 318 151 bng 15 250 50 0 empty empty empty 17 7 0 10 -262144
-1 -1;
#X text 25 80 KEY PRESS;
#X text 292 122 KEY RELEASE;
#X obj 318 172 t b b;
#X obj 22 300 pack;
#X obj 56 257 r a;
#X floatatom 56 275 5 0 0 0 - - -, f 5;
#X obj 148 173 r a;
#X floatatom 148 191 5 0 0 0 - - -, f 5;
#X obj 126 211 del;
#X obj 137 280 f;
#X obj 162 214 r s;
#X obj 162 231 dbtorms;
#X floatatom 162 249 5 0 0 0 - - -, f 5;
#X obj 137 307 pack, f 9;
#X floatatom 197 284 5 0 0 0 - - -, f 5;
#X obj 197 266 r d;
#X obj 154 401 *~, f 13;
#X msg 349 193 stop;
#X msg 318 228 0;
#X obj 317 288 pack;
#X obj 366 231 r r;
#X floatatom 366 249 5 0 0 0 - - -, f 5;
#X obj 11 15 inlet;
#X obj 39 46 sel 0;
#X obj 159 429 outlet~;
#X msg 22 202 1;
#X connect 0 0 23 0;
#X connect 1 0 4 0;
#X connect 4 0 32 0;
#X connect 4 1 15 0;
#X connect 4 2 23 1;
#X connect 6 0 9 0;
#X connect 9 0 25 0;
#X connect 9 1 24 0;
#X connect 10 0 0 0;
#X connect 11 0 12 0;
#X connect 12 0 10 1;
#X connect 13 0 14 0;
#X connect 14 0 15 1;
#X connect 15 0 16 0;
#X connect 16 0 20 0;
#X connect 17 0 18 0;
#X connect 18 0 19 0;
#X connect 19 0 16 1;
#X connect 20 0 0 0;
#X connect 21 0 20 1;
#X connect 22 0 21 0;
#X connect 23 0 31 0;
#X connect 24 0 15 0;
#X connect 25 0 26 0;
#X connect 26 0 0 0;
#X connect 27 0 28 0;
#X connect 28 0 26 1;
#X connect 29 0 30 0;
#X connect 30 0 6 0;
#X connect 30 1 1 0;
#X connect 32 0 10 0;
#X restore 355 484 pd genericAdsr;
#X floatatom 408 324 5 0 0 0 - - -, f 5;
#X obj 101 654 outlet~;
#X floatatom 288 293 5 0 0 0 - - -, f 5;
#X msg 343 293 0;
#X obj 334 274 bng 15 250 50 0 empty empty empty 17 7 0 10 -262144
-1 -1;
#X obj 338 205 r duration;
#X obj 283 258 bng 15 250 50 0 empty empty empty 17 7 0 10 -262144
-1 -1;
#X obj 306 243 del 1000;
#X obj 210 289 loadbang;
#X msg 210 311 1;
#X obj 405 297 r hi;
#X msg 78 279 \$1;
#X msg 233 258 \$2;
#X floatatom 73 156 5 0 0 0 - - -, f 5;
#X floatatom 150 140 5 0 0 0 - - -, f 5;
#X obj 150 159 / 127;
#X obj 109 192 pack;
#X obj 154 184 t b f;
#X msg 51 113 \$1;
#X msg 152 86 \$2;
#X msg 154 58 231 75;
#X obj 75 425 pack f 30;
#X obj 75 447 line~;
#X obj 48 61 del 500;
#X msg 86 27 \$2;
#X obj 24 84 f;
#X obj 47 40 bng 15 250 50 0 empty empty empty 17 7 0 10 -262144 -1
-1;
#X msg 2 37 \$1;
#X obj 17 17 r freq5;
#X obj 258 46 loadbang;
#X msg 258 68 75;
#X obj 258 90 / 127;
#X connect 0 0 23 0;
#X connect 1 0 15 0;
#X connect 1 0 46 0;
#X connect 2 0 6 0;
#X connect 3 0 0 0;
#X connect 4 0 5 0;
#X connect 5 0 6 1;
#X connect 6 0 3 1;
#X connect 15 0 16 0;
#X connect 15 0 22 0;
#X connect 16 0 2 0;
#X connect 17 0 18 0;
#X connect 18 0 19 0;
#X connect 19 0 15 0;
#X connect 19 1 15 1;
#X connect 20 0 22 0;
#X connect 20 1 22 1;
#X connect 21 0 4 0;
#X connect 22 0 21 0;
#X connect 23 0 26 0;
#X connect 24 0 23 1;
#X connect 25 0 20 0;
#X connect 28 0 24 0;
#X connect 29 0 28 0;
#X connect 30 0 32 1;
#X connect 31 0 32 0;
#X connect 32 0 29 0;
#X connect 33 0 34 0;
#X connect 34 0 18 0;
#X connect 34 0 25 0;
#X connect 35 0 25 0;
#X connect 36 0 1 0;
#X connect 37 0 24 0;
#X connect 37 0 27 0;
#X connect 37 0 31 0;
#X connect 38 0 41 0;
#X connect 39 0 40 0;
#X connect 40 0 42 0;
#X connect 41 0 36 0;
#X connect 41 0 37 0;
#X connect 42 0 41 0;
#X connect 42 1 41 1;
#X connect 43 0 38 0;
#X connect 44 0 39 0;
#X connect 45 0 44 0;
#X connect 45 0 43 0;
#X connect 46 0 47 0;
#X connect 47 0 3 0;
#X connect 48 0 50 0;
#X connect 49 0 48 1;
#X connect 50 0 43 0;
#X connect 51 0 48 0;
#X connect 52 0 50 1;
#X connect 53 0 51 0;
#X connect 53 0 52 0;
#X connect 53 0 49 0;
#X connect 54 0 55 0;
#X connect 55 0 56 0;
#X connect 56 0 41 1;
#X restore 621 693 pd fmVoice5;
#N canvas 69 126 783 703 fmVoice6 0;
#X obj 80 555 osc~;
#X floatatom 70 350 5 0 0 0 - - -, f 5;
#X obj 139 454 osc~;
#X obj 83 498 +~;
#X obj 261 425 pack f 30;
#X obj 261 447 line~;
#X obj 117 476 *~;
#X text 25 308 carrier frequency;
#X text 481 524 modulating frequency;
#X text 335 390 inharmonic sound;
#X text 520 591 modulating index;
#X text 485 204 Frequency Modulation or FM Synthesis;
#X text 485 540 think period becoming shorter;
#X text 559 623 think range of frequency;
#X text 508 275 x cycles/s of +- y;
#X obj 127 400 *;
#X floatatom 142 438 5 0 0 0 - - -, f 5;
#X obj 167 309 r hr;
#X floatatom 195 337 5 0 0 0 - - -, f 5;
#X obj 136 372 t b f;
#X obj 306 340 t b f;
#X floatatom 281 389 5 0 0 0 - - -, f 5;
#X obj 306 362 *;
#X obj 99 592 *~;
#N canvas 746 161 450 300 genericAdsr 0;
#X obj 148 372 line~;
#X floatatom 23 112 5 0 0 0 - - -, f 5;
#X text 27 144 attack;
#X text 141 154 decay;
#X obj 23 128 t b b f, f 33;
#X text 237 146 level;
#X obj 318 151 bng 15 250 50 0 empty empty empty 17 7 0 10 -262144
-1 -1;
#X text 25 80 KEY PRESS;
#X text 292 122 KEY RELEASE;
#X obj 318 172 t b b;
#X obj 22 300 pack;
#X obj 56 257 r a;
#X floatatom 56 275 5 0 0 0 - - -, f 5;
#X obj 148 173 r a;
#X floatatom 148 191 5 0 0 0 - - -, f 5;
#X obj 126 211 del;
#X obj 137 280 f;
#X obj 162 214 r s;
#X obj 162 231 dbtorms;
#X floatatom 162 249 5 0 0 0 - - -, f 5;
#X obj 137 307 pack, f 9;
#X floatatom 197 284 5 0 0 0 - - -, f 5;
#X obj 197 266 r d;
#X obj 154 401 *~, f 13;
#X msg 349 193 stop;
#X msg 318 228 0;
#X obj 317 288 pack;
#X obj 366 231 r r;
#X floatatom 366 249 5 0 0 0 - - -, f 5;
#X obj 11 15 inlet;
#X obj 39 46 sel 0;
#X obj 159 429 outlet~;
#X msg 22 202 1;
#X connect 0 0 23 0;
#X connect 1 0 4 0;
#X connect 4 0 32 0;
#X connect 4 1 15 0;
#X connect 4 2 23 1;
#X connect 6 0 9 0;
#X connect 9 0 25 0;
#X connect 9 1 24 0;
#X connect 10 0 0 0;
#X connect 11 0 12 0;
#X connect 12 0 10 1;
#X connect 13 0 14 0;
#X connect 14 0 15 1;
#X connect 15 0 16 0;
#X connect 16 0 20 0;
#X connect 17 0 18 0;
#X connect 18 0 19 0;
#X connect 19 0 16 1;
#X connect 20 0 0 0;
#X connect 21 0 20 1;
#X connect 22 0 21 0;
#X connect 23 0 31 0;
#X connect 24 0 15 0;
#X connect 25 0 26 0;
#X connect 26 0 0 0;
#X connect 27 0 28 0;
#X connect 28 0 26 1;
#X connect 29 0 30 0;
#X connect 30 0 6 0;
#X connect 30 1 1 0;
#X connect 32 0 10 0;
#X restore 355 484 pd genericAdsr;
#X floatatom 408 324 5 0 0 0 - - -, f 5;
#X obj 101 654 outlet~;
#X floatatom 288 293 5 0 0 0 - - -, f 5;
#X msg 343 293 0;
#X obj 334 274 bng 15 250 50 0 empty empty empty 17 7 0 10 -262144
-1 -1;
#X obj 338 205 r duration;
#X obj 283 258 bng 15 250 50 0 empty empty empty 17 7 0 10 -262144
-1 -1;
#X obj 306 243 del 1000;
#X obj 210 289 loadbang;
#X msg 210 311 1;
#X obj 405 297 r hi;
#X msg 78 279 \$1;
#X msg 233 258 \$2;
#X floatatom 73 156 5 0 0 0 - - -, f 5;
#X floatatom 150 140 5 0 0 0 - - -, f 5;
#X obj 150 159 / 127;
#X obj 109 192 pack;
#X obj 154 184 t b f;
#X msg 51 113 \$1;
#X msg 152 86 \$2;
#X msg 154 58 231 75;
#X obj 75 425 pack f 30;
#X obj 75 447 line~;
#X obj 48 61 del 500;
#X msg 86 27 \$2;
#X obj 24 84 f;
#X obj 47 40 bng 15 250 50 0 empty empty empty 17 7 0 10 -262144 -1
-1;
#X msg 2 37 \$1;
#X obj 17 17 r freq6;
#X obj 258 46 loadbang;
#X msg 258 68 75;
#X obj 258 90 / 127;
#X connect 0 0 23 0;
#X connect 1 0 15 0;
#X connect 1 0 46 0;
#X connect 2 0 6 0;
#X connect 3 0 0 0;
#X connect 4 0 5 0;
#X connect 5 0 6 1;
#X connect 6 0 3 1;
#X connect 15 0 16 0;
#X connect 15 0 22 0;
#X connect 16 0 2 0;
#X connect 17 0 18 0;
#X connect 18 0 19 0;
#X connect 19 0 15 0;
#X connect 19 1 15 1;
#X connect 20 0 22 0;
#X connect 20 1 22 1;
#X connect 21 0 4 0;
#X connect 22 0 21 0;
#X connect 23 0 26 0;
#X connect 24 0 23 1;
#X connect 25 0 20 0;
#X connect 28 0 24 0;
#X connect 29 0 28 0;
#X connect 30 0 32 1;
#X connect 31 0 32 0;
#X connect 32 0 29 0;
#X connect 33 0 34 0;
#X connect 34 0 18 0;
#X connect 34 0 25 0;
#X connect 35 0 25 0;
#X connect 36 0 1 0;
#X connect 37 0 24 0;
#X connect 37 0 27 0;
#X connect 37 0 31 0;
#X connect 38 0 41 0;
#X connect 39 0 40 0;
#X connect 40 0 42 0;
#X connect 41 0 36 0;
#X connect 41 0 37 0;
#X connect 42 0 41 0;
#X connect 42 1 41 1;
#X connect 43 0 38 0;
#X connect 44 0 39 0;
#X connect 45 0 44 0;
#X connect 45 0 43 0;
#X connect 46 0 47 0;
#X connect 47 0 3 0;
#X connect 48 0 50 0;
#X connect 49 0 48 1;
#X connect 50 0 43 0;
#X connect 51 0 48 0;
#X connect 52 0 50 1;
#X connect 53 0 51 0;
#X connect 53 0 52 0;
#X connect 53 0 49 0;
#X connect 54 0 55 0;
#X connect 55 0 56 0;
#X connect 56 0 41 1;
#X restore 695 719 pd fmVoice6;
#N canvas 69 126 783 703 fmVoice7 0;
#X obj 80 555 osc~;
#X floatatom 70 350 5 0 0 0 - - -, f 5;
#X obj 139 454 osc~;
#X obj 83 498 +~;
#X obj 261 425 pack f 30;
#X obj 261 447 line~;
#X obj 117 476 *~;
#X text 25 308 carrier frequency;
#X text 481 524 modulating frequency;
#X text 335 390 inharmonic sound;
#X text 520 591 modulating index;
#X text 485 204 Frequency Modulation or FM Synthesis;
#X text 485 540 think period becoming shorter;
#X text 559 623 think range of frequency;
#X text 508 275 x cycles/s of +- y;
#X obj 127 400 *;
#X floatatom 142 438 5 0 0 0 - - -, f 5;
#X obj 167 309 r hr;
#X floatatom 195 337 5 0 0 0 - - -, f 5;
#X obj 136 372 t b f;
#X obj 306 340 t b f;
#X floatatom 281 389 5 0 0 0 - - -, f 5;
#X obj 306 362 *;
#X obj 99 592 *~;
#N canvas 746 161 450 300 genericAdsr 0;
#X obj 148 372 line~;
#X floatatom 23 112 5 0 0 0 - - -, f 5;
#X text 27 144 attack;
#X text 141 154 decay;
#X obj 23 128 t b b f, f 33;
#X text 237 146 level;
#X obj 318 151 bng 15 250 50 0 empty empty empty 17 7 0 10 -262144
-1 -1;
#X text 25 80 KEY PRESS;
#X text 292 122 KEY RELEASE;
#X obj 318 172 t b b;
#X obj 22 300 pack;
#X obj 56 257 r a;
#X floatatom 56 275 5 0 0 0 - - -, f 5;
#X obj 148 173 r a;
#X floatatom 148 191 5 0 0 0 - - -, f 5;
#X obj 126 211 del;
#X obj 137 280 f;
#X obj 162 214 r s;
#X obj 162 231 dbtorms;
#X floatatom 162 249 5 0 0 0 - - -, f 5;
#X obj 137 307 pack, f 9;
#X floatatom 197 284 5 0 0 0 - - -, f 5;
#X obj 197 266 r d;
#X obj 154 401 *~, f 13;
#X msg 349 193 stop;
#X msg 318 228 0;
#X obj 317 288 pack;
#X obj 366 231 r r;
#X floatatom 366 249 5 0 0 0 - - -, f 5;
#X obj 11 15 inlet;
#X obj 39 46 sel 0;
#X obj 159 429 outlet~;
#X msg 22 202 1;
#X connect 0 0 23 0;
#X connect 1 0 4 0;
#X connect 4 0 32 0;
#X connect 4 1 15 0;
#X connect 4 2 23 1;
#X connect 6 0 9 0;
#X connect 9 0 25 0;
#X connect 9 1 24 0;
#X connect 10 0 0 0;
#X connect 11 0 12 0;
#X connect 12 0 10 1;
#X connect 13 0 14 0;
#X connect 14 0 15 1;
#X connect 15 0 16 0;
#X connect 16 0 20 0;
#X connect 17 0 18 0;
#X connect 18 0 19 0;
#X connect 19 0 16 1;
#X connect 20 0 0 0;
#X connect 21 0 20 1;
#X connect 22 0 21 0;
#X connect 23 0 31 0;
#X connect 24 0 15 0;
#X connect 25 0 26 0;
#X connect 26 0 0 0;
#X connect 27 0 28 0;
#X connect 28 0 26 1;
#X connect 29 0 30 0;
#X connect 30 0 6 0;
#X connect 30 1 1 0;
#X connect 32 0 10 0;
#X restore 355 484 pd genericAdsr;
#X floatatom 408 324 5 0 0 0 - - -, f 5;
#X obj 101 654 outlet~;
#X floatatom 288 293 5 0 0 0 - - -, f 5;
#X msg 343 293 0;
#X obj 334 274 bng 15 250 50 0 empty empty empty 17 7 0 10 -262144
-1 -1;
#X obj 338 205 r duration;
#X obj 283 258 bng 15 250 50 0 empty empty empty 17 7 0 10 -262144
-1 -1;
#X obj 306 243 del 1000;
#X obj 210 289 loadbang;
#X msg 210 311 1;
#X obj 405 297 r hi;
#X msg 78 279 \$1;
#X msg 233 258 \$2;
#X floatatom 73 156 5 0 0 0 - - -, f 5;
#X floatatom 150 140 5 0 0 0 - - -, f 5;
#X obj 150 159 / 127;
#X obj 109 192 pack;
#X obj 154 184 t b f;
#X msg 51 113 \$1;
#X msg 152 86 \$2;
#X msg 154 58 231 75;
#X obj 75 425 pack f 30;
#X obj 75 447 line~;
#X obj 48 61 del 500;
#X msg 86 27 \$2;
#X obj 24 84 f;
#X obj 47 40 bng 15 250 50 0 empty empty empty 17 7 0 10 -262144 -1
-1;
#X msg 2 37 \$1;
#X obj 17 17 r freq7;
#X obj 258 46 loadbang;
#X msg 258 68 75;
#X obj 258 90 / 127;
#X connect 0 0 23 0;
#X connect 1 0 15 0;
#X connect 1 0 46 0;
#X connect 2 0 6 0;
#X connect 3 0 0 0;
#X connect 4 0 5 0;
#X connect 5 0 6 1;
#X connect 6 0 3 1;
#X connect 15 0 16 0;
#X connect 15 0 22 0;
#X connect 16 0 2 0;
#X connect 17 0 18 0;
#X connect 18 0 19 0;
#X connect 19 0 15 0;
#X connect 19 1 15 1;
#X connect 20 0 22 0;
#X connect 20 1 22 1;
#X connect 21 0 4 0;
#X connect 22 0 21 0;
#X connect 23 0 26 0;
#X connect 24 0 23 1;
#X connect 25 0 20 0;
#X connect 28 0 24 0;
#X connect 29 0 28 0;
#X connect 30 0 32 1;
#X connect 31 0 32 0;
#X connect 32 0 29 0;
#X connect 33 0 34 0;
#X connect 34 0 18 0;
#X connect 34 0 25 0;
#X connect 35 0 25 0;
#X connect 36 0 1 0;
#X connect 37 0 24 0;
#X connect 37 0 27 0;
#X connect 37 0 31 0;
#X connect 38 0 41 0;
#X connect 39 0 40 0;
#X connect 40 0 42 0;
#X connect 41 0 36 0;
#X connect 41 0 37 0;
#X connect 42 0 41 0;
#X connect 42 1 41 1;
#X connect 43 0 38 0;
#X connect 44 0 39 0;
#X connect 45 0 44 0;
#X connect 45 0 43 0;
#X connect 46 0 47 0;
#X connect 47 0 3 0;
#X connect 48 0 50 0;
#X connect 49 0 48 1;
#X connect 50 0 43 0;
#X connect 51 0 48 0;
#X connect 52 0 50 1;
#X connect 53 0 51 0;
#X connect 53 0 52 0;
#X connect 53 0 49 0;
#X connect 54 0 55 0;
#X connect 55 0 56 0;
#X connect 56 0 41 1;
#X restore 813 720 pd fmVoice7;
#N canvas 69 126 783 703 fmVoice8 0;
#X obj 80 555 osc~;
#X floatatom 70 350 5 0 0 0 - - -, f 5;
#X obj 139 454 osc~;
#X obj 83 498 +~;
#X obj 261 425 pack f 30;
#X obj 261 447 line~;
#X obj 117 476 *~;
#X text 25 308 carrier frequency;
#X text 481 524 modulating frequency;
#X text 335 390 inharmonic sound;
#X text 520 591 modulating index;
#X text 485 204 Frequency Modulation or FM Synthesis;
#X text 485 540 think period becoming shorter;
#X text 559 623 think range of frequency;
#X text 508 275 x cycles/s of +- y;
#X obj 127 400 *;
#X floatatom 142 438 5 0 0 0 - - -, f 5;
#X obj 167 309 r hr;
#X floatatom 195 337 5 0 0 0 - - -, f 5;
#X obj 136 372 t b f;
#X obj 306 340 t b f;
#X floatatom 281 389 5 0 0 0 - - -, f 5;
#X obj 306 362 *;
#X obj 99 592 *~;
#N canvas 746 161 450 300 genericAdsr 0;
#X obj 148 372 line~;
#X floatatom 23 112 5 0 0 0 - - -, f 5;
#X text 27 144 attack;
#X text 141 154 decay;
#X obj 23 128 t b b f, f 33;
#X text 237 146 level;
#X obj 318 151 bng 15 250 50 0 empty empty empty 17 7 0 10 -262144
-1 -1;
#X text 25 80 KEY PRESS;
#X text 292 122 KEY RELEASE;
#X obj 318 172 t b b;
#X obj 22 300 pack;
#X obj 56 257 r a;
#X floatatom 56 275 5 0 0 0 - - -, f 5;
#X obj 148 173 r a;
#X floatatom 148 191 5 0 0 0 - - -, f 5;
#X obj 126 211 del;
#X obj 137 280 f;
#X obj 162 214 r s;
#X obj 162 231 dbtorms;
#X floatatom 162 249 5 0 0 0 - - -, f 5;
#X obj 137 307 pack, f 9;
#X floatatom 197 284 5 0 0 0 - - -, f 5;
#X obj 197 266 r d;
#X obj 154 401 *~, f 13;
#X msg 349 193 stop;
#X msg 318 228 0;
#X obj 317 288 pack;
#X obj 366 231 r r;
#X floatatom 366 249 5 0 0 0 - - -, f 5;
#X obj 11 15 inlet;
#X obj 39 46 sel 0;
#X obj 159 429 outlet~;
#X msg 22 202 1;
#X connect 0 0 23 0;
#X connect 1 0 4 0;
#X connect 4 0 32 0;
#X connect 4 1 15 0;
#X connect 4 2 23 1;
#X connect 6 0 9 0;
#X connect 9 0 25 0;
#X connect 9 1 24 0;
#X connect 10 0 0 0;
#X connect 11 0 12 0;
#X connect 12 0 10 1;
#X connect 13 0 14 0;
#X connect 14 0 15 1;
#X connect 15 0 16 0;
#X connect 16 0 20 0;
#X connect 17 0 18 0;
#X connect 18 0 19 0;
#X connect 19 0 16 1;
#X connect 20 0 0 0;
#X connect 21 0 20 1;
#X connect 22 0 21 0;
#X connect 23 0 31 0;
#X connect 24 0 15 0;
#X connect 25 0 26 0;
#X connect 26 0 0 0;
#X connect 27 0 28 0;
#X connect 28 0 26 1;
#X connect 29 0 30 0;
#X connect 30 0 6 0;
#X connect 30 1 1 0;
#X connect 32 0 10 0;
#X restore 355 484 pd genericAdsr;
#X floatatom 408 324 5 0 0 0 - - -, f 5;
#X obj 101 654 outlet~;
#X floatatom 288 293 5 0 0 0 - - -, f 5;
#X msg 343 293 0;
#X obj 334 274 bng 15 250 50 0 empty empty empty 17 7 0 10 -262144
-1 -1;
#X obj 338 205 r duration;
#X obj 283 258 bng 15 250 50 0 empty empty empty 17 7 0 10 -262144
-1 -1;
#X obj 306 243 del 1000;
#X obj 210 289 loadbang;
#X msg 210 311 1;
#X obj 405 297 r hi;
#X msg 78 279 \$1;
#X msg 233 258 \$2;
#X floatatom 73 156 5 0 0 0 - - -, f 5;
#X floatatom 150 140 5 0 0 0 - - -, f 5;
#X obj 150 159 / 127;
#X obj 109 192 pack;
#X obj 154 184 t b f;
#X msg 51 113 \$1;
#X msg 152 86 \$2;
#X msg 154 58 231 75;
#X obj 75 425 pack f 30;
#X obj 75 447 line~;
#X obj 48 61 del 500;
#X msg 86 27 \$2;
#X obj 24 84 f;
#X obj 47 40 bng 15 250 50 0 empty empty empty 17 7 0 10 -262144 -1
-1;
#X msg 2 37 \$1;
#X obj 17 17 r freq8;
#X obj 258 46 loadbang;
#X msg 258 68 75;
#X obj 258 90 / 127;
#X connect 0 0 23 0;
#X connect 1 0 15 0;
#X connect 1 0 46 0;
#X connect 2 0 6 0;
#X connect 3 0 0 0;
#X connect 4 0 5 0;
#X connect 5 0 6 1;
#X connect 6 0 3 1;
#X connect 15 0 16 0;
#X connect 15 0 22 0;
#X connect 16 0 2 0;
#X connect 17 0 18 0;
#X connect 18 0 19 0;
#X connect 19 0 15 0;
#X connect 19 1 15 1;
#X connect 20 0 22 0;
#X connect 20 1 22 1;
#X connect 21 0 4 0;
#X connect 22 0 21 0;
#X connect 23 0 26 0;
#X connect 24 0 23 1;
#X connect 25 0 20 0;
#X connect 28 0 24 0;
#X connect 29 0 28 0;
#X connect 30 0 32 1;
#X connect 31 0 32 0;
#X connect 32 0 29 0;
#X connect 33 0 34 0;
#X connect 34 0 18 0;
#X connect 34 0 25 0;
#X connect 35 0 25 0;
#X connect 36 0 1 0;
#X connect 37 0 24 0;
#X connect 37 0 27 0;
#X connect 37 0 31 0;
#X connect 38 0 41 0;
#X connect 39 0 40 0;
#X connect 40 0 42 0;
#X connect 41 0 36 0;
#X connect 41 0 37 0;
#X connect 42 0 41 0;
#X connect 42 1 41 1;
#X connect 43 0 38 0;
#X connect 44 0 39 0;
#X connect 45 0 44 0;
#X connect 45 0 43 0;
#X connect 46 0 47 0;
#X connect 47 0 3 0;
#X connect 48 0 50 0;
#X connect 49 0 48 1;
#X connect 50 0 43 0;
#X connect 51 0 48 0;
#X connect 52 0 50 1;
#X connect 53 0 51 0;
#X connect 53 0 52 0;
#X connect 53 0 49 0;
#X connect 54 0 55 0;
#X connect 55 0 56 0;
#X connect 56 0 41 1;
#X restore 920 724 pd fmVoice8;
#N canvas 69 126 783 703 fmVoice9 0;
#X obj 80 555 osc~;
#X floatatom 70 350 5 0 0 0 - - -, f 5;
#X obj 139 454 osc~;
#X obj 83 498 +~;
#X obj 261 425 pack f 30;
#X obj 261 447 line~;
#X obj 117 476 *~;
#X text 25 308 carrier frequency;
#X text 481 524 modulating frequency;
#X text 335 390 inharmonic sound;
#X text 520 591 modulating index;
#X text 485 204 Frequency Modulation or FM Synthesis;
#X text 485 540 think period becoming shorter;
#X text 559 623 think range of frequency;
#X text 508 275 x cycles/s of +- y;
#X obj 127 400 *;
#X floatatom 142 438 5 0 0 0 - - -, f 5;
#X obj 167 309 r hr;
#X floatatom 195 337 5 0 0 0 - - -, f 5;
#X obj 136 372 t b f;
#X obj 306 340 t b f;
#X floatatom 281 389 5 0 0 0 - - -, f 5;
#X obj 306 362 *;
#X obj 99 592 *~;
#N canvas 746 161 450 300 genericAdsr 0;
#X obj 148 372 line~;
#X floatatom 23 112 5 0 0 0 - - -, f 5;
#X text 27 144 attack;
#X text 141 154 decay;
#X obj 23 128 t b b f, f 33;
#X text 237 146 level;
#X obj 318 151 bng 15 250 50 0 empty empty empty 17 7 0 10 -262144
-1 -1;
#X text 25 80 KEY PRESS;
#X text 292 122 KEY RELEASE;
#X obj 318 172 t b b;
#X obj 22 300 pack;
#X obj 56 257 r a;
#X floatatom 56 275 5 0 0 0 - - -, f 5;
#X obj 148 173 r a;
#X floatatom 148 191 5 0 0 0 - - -, f 5;
#X obj 126 211 del;
#X obj 137 280 f;
#X obj 162 214 r s;
#X obj 162 231 dbtorms;
#X floatatom 162 249 5 0 0 0 - - -, f 5;
#X obj 137 307 pack, f 9;
#X floatatom 197 284 5 0 0 0 - - -, f 5;
#X obj 197 266 r d;
#X obj 154 401 *~, f 13;
#X msg 349 193 stop;
#X msg 318 228 0;
#X obj 317 288 pack;
#X obj 366 231 r r;
#X floatatom 366 249 5 0 0 0 - - -, f 5;
#X obj 11 15 inlet;
#X obj 39 46 sel 0;
#X obj 159 429 outlet~;
#X msg 22 202 1;
#X connect 0 0 23 0;
#X connect 1 0 4 0;
#X connect 4 0 32 0;
#X connect 4 1 15 0;
#X connect 4 2 23 1;
#X connect 6 0 9 0;
#X connect 9 0 25 0;
#X connect 9 1 24 0;
#X connect 10 0 0 0;
#X connect 11 0 12 0;
#X connect 12 0 10 1;
#X connect 13 0 14 0;
#X connect 14 0 15 1;
#X connect 15 0 16 0;
#X connect 16 0 20 0;
#X connect 17 0 18 0;
#X connect 18 0 19 0;
#X connect 19 0 16 1;
#X connect 20 0 0 0;
#X connect 21 0 20 1;
#X connect 22 0 21 0;
#X connect 23 0 31 0;
#X connect 24 0 15 0;
#X connect 25 0 26 0;
#X connect 26 0 0 0;
#X connect 27 0 28 0;
#X connect 28 0 26 1;
#X connect 29 0 30 0;
#X connect 30 0 6 0;
#X connect 30 1 1 0;
#X connect 32 0 10 0;
#X restore 355 484 pd genericAdsr;
#X floatatom 408 324 5 0 0 0 - - -, f 5;
#X obj 101 654 outlet~;
#X floatatom 288 293 5 0 0 0 - - -, f 5;
#X msg 343 293 0;
#X obj 334 274 bng 15 250 50 0 empty empty empty 17 7 0 10 -262144
-1 -1;
#X obj 338 205 r duration;
#X obj 283 258 bng 15 250 50 0 empty empty empty 17 7 0 10 -262144
-1 -1;
#X obj 306 243 del 1000;
#X obj 210 289 loadbang;
#X msg 210 311 1;
#X obj 405 297 r hi;
#X msg 78 279 \$1;
#X msg 233 258 \$2;
#X floatatom 73 156 5 0 0 0 - - -, f 5;
#X floatatom 150 140 5 0 0 0 - - -, f 5;
#X obj 150 159 / 127;
#X obj 109 192 pack;
#X obj 154 184 t b f;
#X msg 51 113 \$1;
#X msg 152 86 \$2;
#X msg 154 58 231 75;
#X obj 75 425 pack f 30;
#X obj 75 447 line~;
#X obj 48 61 del 500;
#X msg 86 27 \$2;
#X obj 24 84 f;
#X obj 47 40 bng 15 250 50 0 empty empty empty 17 7 0 10 -262144 -1
-1;
#X msg 2 37 \$1;
#X obj 17 17 r freq9;
#X obj 250 93 loadbang;
#X msg 250 115 75;
#X obj 250 137 / 127;
#X connect 0 0 23 0;
#X connect 1 0 15 0;
#X connect 1 0 46 0;
#X connect 2 0 6 0;
#X connect 3 0 0 0;
#X connect 4 0 5 0;
#X connect 5 0 6 1;
#X connect 6 0 3 1;
#X connect 15 0 16 0;
#X connect 15 0 22 0;
#X connect 16 0 2 0;
#X connect 17 0 18 0;
#X connect 18 0 19 0;
#X connect 19 0 15 0;
#X connect 19 1 15 1;
#X connect 20 0 22 0;
#X connect 20 1 22 1;
#X connect 21 0 4 0;
#X connect 22 0 21 0;
#X connect 23 0 26 0;
#X connect 24 0 23 1;
#X connect 25 0 20 0;
#X connect 28 0 24 0;
#X connect 29 0 28 0;
#X connect 30 0 32 1;
#X connect 31 0 32 0;
#X connect 32 0 29 0;
#X connect 33 0 34 0;
#X connect 34 0 18 0;
#X connect 34 0 25 0;
#X connect 35 0 25 0;
#X connect 36 0 1 0;
#X connect 37 0 24 0;
#X connect 37 0 27 0;
#X connect 37 0 31 0;
#X connect 38 0 41 0;
#X connect 39 0 40 0;
#X connect 40 0 42 0;
#X connect 41 0 36 0;
#X connect 41 0 37 0;
#X connect 42 0 41 0;
#X connect 42 1 41 1;
#X connect 43 0 38 0;
#X connect 44 0 39 0;
#X connect 45 0 44 0;
#X connect 45 0 43 0;
#X connect 46 0 47 0;
#X connect 47 0 3 0;
#X connect 48 0 50 0;
#X connect 49 0 48 1;
#X connect 50 0 43 0;
#X connect 51 0 48 0;
#X connect 52 0 50 1;
#X connect 53 0 51 0;
#X connect 53 0 52 0;
#X connect 53 0 49 0;
#X connect 54 0 55 0;
#X connect 55 0 56 0;
#X connect 56 0 41 1;
#X restore 1001 718 pd fmVoice9;
#N canvas 69 126 783 703 fmVoice10 0;
#X obj 80 555 osc~;
#X floatatom 70 350 5 0 0 0 - - -, f 5;
#X obj 139 454 osc~;
#X obj 83 498 +~;
#X obj 261 425 pack f 30;
#X obj 261 447 line~;
#X obj 117 476 *~;
#X text 25 308 carrier frequency;
#X text 481 524 modulating frequency;
#X text 335 390 inharmonic sound;
#X text 520 591 modulating index;
#X text 485 204 Frequency Modulation or FM Synthesis;
#X text 485 540 think period becoming shorter;
#X text 559 623 think range of frequency;
#X text 508 275 x cycles/s of +- y;
#X obj 127 400 *;
#X floatatom 142 438 5 0 0 0 - - -, f 5;
#X obj 167 309 r hr;
#X floatatom 195 337 5 0 0 0 - - -, f 5;
#X obj 136 372 t b f;
#X obj 306 340 t b f;
#X floatatom 281 389 5 0 0 0 - - -, f 5;
#X obj 306 362 *;
#X obj 99 592 *~;
#N canvas 746 161 450 300 genericAdsr 0;
#X obj 148 372 line~;
#X floatatom 23 112 5 0 0 0 - - -, f 5;
#X text 27 144 attack;
#X text 141 154 decay;
#X obj 23 128 t b b f, f 33;
#X text 237 146 level;
#X obj 318 151 bng 15 250 50 0 empty empty empty 17 7 0 10 -262144
-1 -1;
#X text 25 80 KEY PRESS;
#X text 292 122 KEY RELEASE;
#X obj 318 172 t b b;
#X obj 22 300 pack;
#X obj 56 257 r a;
#X floatatom 56 275 5 0 0 0 - - -, f 5;
#X obj 148 173 r a;
#X floatatom 148 191 5 0 0 0 - - -, f 5;
#X obj 126 211 del;
#X obj 137 280 f;
#X obj 162 214 r s;
#X obj 162 231 dbtorms;
#X floatatom 162 249 5 0 0 0 - - -, f 5;
#X obj 137 307 pack, f 9;
#X floatatom 197 284 5 0 0 0 - - -, f 5;
#X obj 197 266 r d;
#X obj 154 401 *~, f 13;
#X msg 349 193 stop;
#X msg 318 228 0;
#X obj 317 288 pack;
#X obj 366 231 r r;
#X floatatom 366 249 5 0 0 0 - - -, f 5;
#X obj 11 15 inlet;
#X obj 39 46 sel 0;
#X obj 159 429 outlet~;
#X msg 22 202 1;
#X connect 0 0 23 0;
#X connect 1 0 4 0;
#X connect 4 0 32 0;
#X connect 4 1 15 0;
#X connect 4 2 23 1;
#X connect 6 0 9 0;
#X connect 9 0 25 0;
#X connect 9 1 24 0;
#X connect 10 0 0 0;
#X connect 11 0 12 0;
#X connect 12 0 10 1;
#X connect 13 0 14 0;
#X connect 14 0 15 1;
#X connect 15 0 16 0;
#X connect 16 0 20 0;
#X connect 17 0 18 0;
#X connect 18 0 19 0;
#X connect 19 0 16 1;
#X connect 20 0 0 0;
#X connect 21 0 20 1;
#X connect 22 0 21 0;
#X connect 23 0 31 0;
#X connect 24 0 15 0;
#X connect 25 0 26 0;
#X connect 26 0 0 0;
#X connect 27 0 28 0;
#X connect 28 0 26 1;
#X connect 29 0 30 0;
#X connect 30 0 6 0;
#X connect 30 1 1 0;
#X connect 32 0 10 0;
#X restore 355 484 pd genericAdsr;
#X floatatom 408 324 5 0 0 0 - - -, f 5;
#X obj 101 654 outlet~;
#X floatatom 288 293 5 0 0 0 - - -, f 5;
#X msg 343 293 0;
#X obj 334 274 bng 15 250 50 0 empty empty empty 17 7 0 10 -262144
-1 -1;
#X obj 338 205 r duration;
#X obj 283 258 bng 15 250 50 0 empty empty empty 17 7 0 10 -262144
-1 -1;
#X obj 306 243 del 1000;
#X obj 210 289 loadbang;
#X msg 210 311 1;
#X obj 405 297 r hi;
#X msg 78 279 \$1;
#X msg 233 258 \$2;
#X floatatom 73 156 5 0 0 0 - - -, f 5;
#X floatatom 134 119 5 0 0 0 - - -, f 5;
#X obj 134 138 / 127;
#X obj 109 192 pack;
#X obj 138 163 t b f;
#X msg 51 113 \$1;
#X msg 152 86 \$2;
#X msg 154 58 231 75;
#X obj 75 425 pack f 30;
#X obj 75 447 line~;
#X obj 48 61 del 500;
#X msg 86 27 \$2;
#X obj 24 84 f;
#X obj 47 40 bng 15 250 50 0 empty empty empty 17 7 0 10 -262144 -1
-1;
#X msg 2 37 \$1;
#X obj 17 17 r freq10;
#X obj 258 46 loadbang;
#X msg 258 68 75;
#X obj 258 90 / 127;
#X connect 0 0 23 0;
#X connect 1 0 15 0;
#X connect 1 0 46 0;
#X connect 2 0 6 0;
#X connect 3 0 0 0;
#X connect 4 0 5 0;
#X connect 5 0 6 1;
#X connect 6 0 3 1;
#X connect 15 0 16 0;
#X connect 15 0 22 0;
#X connect 16 0 2 0;
#X connect 17 0 18 0;
#X connect 18 0 19 0;
#X connect 19 0 15 0;
#X connect 19 1 15 1;
#X connect 20 0 22 0;
#X connect 20 1 22 1;
#X connect 21 0 4 0;
#X connect 22 0 21 0;
#X connect 23 0 26 0;
#X connect 24 0 23 1;
#X connect 25 0 20 0;
#X connect 28 0 24 0;
#X connect 29 0 28 0;
#X connect 30 0 32 1;
#X connect 31 0 32 0;
#X connect 32 0 29 0;
#X connect 33 0 34 0;
#X connect 34 0 18 0;
#X connect 34 0 25 0;
#X connect 35 0 25 0;
#X connect 36 0 1 0;
#X connect 37 0 24 0;
#X connect 37 0 27 0;
#X connect 37 0 31 0;
#X connect 38 0 41 0;
#X connect 39 0 40 0;
#X connect 40 0 42 0;
#X connect 41 0 36 0;
#X connect 41 0 37 0;
#X connect 42 0 41 0;
#X connect 42 1 41 1;
#X connect 43 0 38 0;
#X connect 44 0 39 0;
#X connect 45 0 44 0;
#X connect 45 0 43 0;
#X connect 46 0 47 0;
#X connect 47 0 3 0;
#X connect 48 0 50 0;
#X connect 49 0 48 1;
#X connect 50 0 43 0;
#X connect 51 0 48 0;
#X connect 52 0 50 1;
#X connect 53 0 51 0;
#X connect 53 0 52 0;
#X connect 53 0 49 0;
#X connect 54 0 55 0;
#X connect 55 0 56 0;
#X connect 56 0 41 1;
#X restore 1094 718 pd fmVoice10;
#X floatatom 15 98 5 0 0 0 - - -, f 5;
#X obj 15 118 s a;
#X floatatom 59 99 5 0 0 0 - - -, f 5;
#X floatatom 101 99 5 0 0 0 - - -, f 5;
#X floatatom 145 100 5 0 0 0 - - -, f 5;
#X obj 59 119 s d;
#X obj 100 119 s s;
#X obj 145 120 s r;
#X obj 55 33 loadbang;
#X text 38 119 ms;
#X text 81 119 ms;
#X text 121 121 db;
#X text 171 120 ms;
#X msg 316 46 2000;
#X msg 146 72 1000;
#X msg 57 68 1000;
#X msg 100 67 0;
#X obj 561 874 *~ 0.1;
#X msg 19 70 1000;
#X obj 221 361 *~;
#X obj 414 115 noise~;
#X obj 80 357 *~;
#X obj 167 304 r harm1;
#X obj 300 308 r harm2;
#X obj 138 505 +~;
#X obj 358 362 *~;
#X obj 645 364 *~;
#X obj 504 360 *~;
#X obj 445 309 r harm3;
#X obj 591 307 r harm4;
#X obj 724 311 r harm5;
#X floatatom 582 68 5 0 0 0 - - -, f 5;
#X obj 92 261 *~ 1;
#X obj 225 264 *~ 2;
#X obj 370 266 *~ 3;
#X obj 516 264 *~ 4;
#X obj 649 267 *~ 5;
#X obj 600 28 r fundie;
#X floatatom 158 268 5 0 0 0 - - -, f 5;
#X floatatom 293 266 5 0 0 0 - - -, f 5;
#X floatatom 437 265 5 0 0 0 - - -, f 5;
#X floatatom 562 269 5 0 0 0 - - -, f 5;
#X floatatom 701 270 5 0 0 0 - - -, f 5;
#X msg 138 334 1;
#X obj 107 667 clip~ -1 1;
#X obj 80 303 vcf~ 10, f 11;
#X obj 222 307 vcf~ 10, f 11;
#X obj 359 308 vcf~ 10, f 11;
#X obj 504 306 vcf~ 10, f 11;
#X obj 645 310 vcf~ 10, f 11;
#X msg 439 30 45;
#X msg 880 63 1000;
#X obj 996 541 s harm1;
#X obj 997 561 s harm2;
#X obj 999 581 s harm3;
#X obj 1000 602 s harm4;
#X obj 1001 621 s harm5;
#X obj 1049 540 s harm6;
#X obj 1050 561 s harm7;
#X obj 1052 581 s harm8;
#X obj 1053 602 s harm9;
#X obj 1054 621 s harm10;
#X floatatom 980 485 5 0 0 0 - - -, f 5;
#X obj 960 450 loadbang;
#X msg 914 474 1;
#X obj 782 365 *~;
#X obj 1216 364 *~;
#X obj 1075 360 *~;
#X obj 1353 365 *~;
#X obj 869 312 r harm6;
#X obj 1016 309 r harm7;
#X obj 1162 307 r harm8;
#X obj 1295 311 r harm9;
#X obj 1440 312 r harm10;
#X obj 953 370 *~;
#X obj 794 269 *~ 6;
#X obj 941 266 *~ 7;
#X obj 1087 264 *~ 8;
#X obj 1218 267 *~ 9;
#X obj 1365 269 *~ 10;
#X floatatom 837 273 5 0 0 0 - - -, f 5;
#X floatatom 988 274 5 0 0 0 - - -, f 5;
#X floatatom 1132 274 5 0 0 0 - - -, f 5;
#X floatatom 1421 266 5 0 0 0 - - -, f 5;
#X obj 782 311 vcf~ 10, f 11;
#X obj 929 308 vcf~ 10, f 11;
#X obj 1075 306 vcf~ 10, f 11;
#X obj 1216 310 vcf~ 10, f 11;
#X obj 1353 311 vcf~ 10, f 11;
#X floatatom 1272 272 5 0 0 0 - - -, f 5;
#X connect 2 0 1 0;
#X connect 3 0 1 0;
#X connect 4 0 32 0;
#X connect 5 0 4 0;
#X connect 6 0 4 0;
#X connect 7 0 4 0;
#X connect 8 0 4 0;
#X connect 9 0 4 0;
#X connect 10 0 4 0;
#X connect 11 0 4 0;
#X connect 12 0 4 0;
#X connect 13 0 4 0;
#X connect 14 0 4 0;
#X connect 15 0 16 0;
#X connect 17 0 20 0;
#X connect 18 0 21 0;
#X connect 19 0 22 0;
#X connect 23 0 33 0;
#X connect 23 0 30 0;
#X connect 23 0 31 0;
#X connect 23 0 29 0;
#X connect 23 0 28 0;
#X connect 23 0 66 0;
#X connect 23 0 58 0;
#X connect 23 0 65 0;
#X connect 28 0 3 0;
#X connect 29 0 19 0;
#X connect 30 0 17 0;
#X connect 31 0 18 0;
#X connect 32 0 0 0;
#X connect 32 0 0 1;
#X connect 33 0 15 0;
#X connect 34 0 39 0;
#X connect 35 0 60 0;
#X connect 35 0 61 0;
#X connect 35 0 62 0;
#X connect 35 0 63 0;
#X connect 35 0 64 0;
#X connect 35 0 99 0;
#X connect 35 0 100 0;
#X connect 35 0 101 0;
#X connect 35 0 102 0;
#X connect 35 0 103 0;
#X connect 36 0 39 0;
#X connect 37 0 36 1;
#X connect 38 0 34 1;
#X connect 39 0 59 0;
#X connect 40 0 39 0;
#X connect 41 0 39 0;
#X connect 42 0 39 0;
#X connect 43 0 40 1;
#X connect 44 0 42 1;
#X connect 45 0 41 1;
#X connect 46 0 47 0;
#X connect 46 0 48 0;
#X connect 46 0 49 0;
#X connect 46 0 50 0;
#X connect 46 0 51 0;
#X connect 46 0 90 0;
#X connect 46 0 91 0;
#X connect 46 0 92 0;
#X connect 46 0 93 0;
#X connect 46 0 94 0;
#X connect 47 0 60 1;
#X connect 48 0 61 1;
#X connect 49 0 62 1;
#X connect 50 0 63 1;
#X connect 51 0 64 1;
#X connect 52 0 46 0;
#X connect 53 0 60 2;
#X connect 54 0 61 2;
#X connect 55 0 62 2;
#X connect 56 0 63 2;
#X connect 57 0 64 2;
#X connect 58 0 36 1;
#X connect 59 0 0 0;
#X connect 59 0 0 1;
#X connect 60 0 36 0;
#X connect 61 0 34 0;
#X connect 62 0 40 0;
#X connect 63 0 42 0;
#X connect 64 0 41 0;
#X connect 65 0 46 0;
#X connect 66 0 53 0;
#X connect 66 0 54 0;
#X connect 66 0 55 0;
#X connect 66 0 56 0;
#X connect 66 0 57 0;
#X connect 66 0 95 0;
#X connect 66 0 96 0;
#X connect 66 0 97 0;
#X connect 66 0 98 0;
#X connect 66 0 104 0;
#X connect 77 0 67 0;
#X connect 77 0 68 0;
#X connect 77 0 69 0;
#X connect 77 0 70 0;
#X connect 77 0 71 0;
#X connect 77 0 72 0;
#X connect 77 0 73 0;
#X connect 77 0 74 0;
#X connect 77 0 75 0;
#X connect 77 0 76 0;
#X connect 78 0 79 0;
#X connect 79 0 77 0;
#X connect 80 0 39 0;
#X connect 81 0 39 0;
#X connect 82 0 39 0;
#X connect 83 0 39 0;
#X connect 84 0 80 1;
#X connect 85 0 89 1;
#X connect 86 0 82 1;
#X connect 87 0 81 1;
#X connect 88 0 83 1;
#X connect 89 0 39 0;
#X connect 90 0 99 1;
#X connect 91 0 100 1;
#X connect 92 0 101 1;
#X connect 93 0 102 1;
#X connect 94 0 103 1;
#X connect 95 0 99 2;
#X connect 96 0 100 2;
#X connect 97 0 101 2;
#X connect 98 0 103 2;
#X connect 99 0 80 0;
#X connect 100 0 89 0;
#X connect 101 0 82 0;
#X connect 102 0 81 0;
#X connect 103 0 83 0;
#X connect 104 0 102 2;
