#N canvas 558 62 1168 650 10;
#X obj 354 217 s hr;
#X obj 297 208 s i;
#X floatatom 356 149 5 0 0 0 - - -, f 5;
#X floatatom 356 190 5 0 0 0 - - -, f 5;
#X floatatom 291 177 5 0 0 0 - - -, f 5;
#X floatatom 60 117 5 0 0 0 - - -, f 5;
#X floatatom 137 119 5 0 0 0 - - -, f 5;
#X obj 137 138 / 127;
#X obj 96 171 pack;
#X obj 96 193 poly 8 1;
#X obj 103 273 route 1 2 3 4 5 6 7 8;
#X floatatom 452 475 5 0 0 0 - - -, f 5;
#X obj 484 506 pack f f f f;
#X floatatom 490 459 5 0 0 0 - - -, f 5;
#X obj 490 475 t b f;
#X floatatom 530 459 5 0 0 0 - - -, f 5;
#X obj 530 475 t b f;
#X floatatom 570 460 5 0 3000 0 - - -, f 5;
#X obj 570 476 t b f;
#X obj 482 547 s params;
#X obj 443 346 vsl 25 100 0 3000 0 0 empty empty empty 0 -9 0 10 -259936
-1 -1 0 1;
#X obj 487 333 vsl 25 100 0 3000 0 0 empty empty empty 0 -9 0 10 -260767
-1 -1 0 1;
#X obj 531 327 vsl 25 100 0 127 0 0 empty empty empty 0 -9 0 10 -154560
-1 -1 0 1;
#X obj 576 335 vsl 25 100 0 3000 0 0 empty empty empty 0 -9 0 10 -172020
-1 -1 0 1;
#X text 453 447 A;
#X text 495 441 D;
#X text 538 441 S;
#X obj 215 435 catch~ sum;
#X obj 215 457 /~ 8;
#X obj 42 264 bng 15 250 50 0 empty empty empty 17 7 0 10 -262144 -1
-1;
#X obj 99 234 pack f f f;
#X obj 195 379 fmVoice10_17;
#X obj 356 168 / 3;
#X obj 448 139 loadbang;
#X msg 448 161 1;
#X obj 141 163 t b f;
#X obj 83 88 makenote;
#X msg 125 44 60 100 30;
#X obj 159 576 outlet~;
#X obj 39 33 inlet;
#X obj 292 518 dac~;
#X obj 39 317 fmVoice10_17;
#X obj 49 327 fmVoice10_17;
#X obj 59 337 fmVoice10_17;
#X obj 69 347 fmVoice10_17;
#X obj 79 357 fmVoice10_17;
#X obj 89 367 fmVoice10_17;
#X obj 165 349 fmVoice10_17;
#X connect 2 0 32 0;
#X connect 3 0 0 0;
#X connect 4 0 1 0;
#X connect 5 0 8 0;
#X connect 6 0 7 0;
#X connect 7 0 35 0;
#X connect 8 0 9 0;
#X connect 9 0 30 0;
#X connect 9 1 30 1;
#X connect 9 2 30 2;
#X connect 10 0 29 0;
#X connect 10 0 41 0;
#X connect 10 1 42 0;
#X connect 10 2 43 0;
#X connect 10 3 44 0;
#X connect 10 4 45 0;
#X connect 10 5 46 0;
#X connect 10 6 47 0;
#X connect 10 7 31 0;
#X connect 11 0 12 0;
#X connect 12 0 19 0;
#X connect 13 0 14 0;
#X connect 14 0 12 0;
#X connect 14 1 12 1;
#X connect 15 0 16 0;
#X connect 16 0 12 0;
#X connect 16 1 12 2;
#X connect 17 0 18 0;
#X connect 18 0 12 0;
#X connect 18 1 12 3;
#X connect 20 0 11 0;
#X connect 21 0 13 0;
#X connect 22 0 15 0;
#X connect 23 0 17 0;
#X connect 27 0 28 0;
#X connect 28 0 38 0;
#X connect 28 0 40 0;
#X connect 28 0 40 1;
#X connect 30 0 10 0;
#X connect 32 0 3 0;
#X connect 33 0 34 0;
#X connect 34 0 2 0;
#X connect 34 0 4 0;
#X connect 35 0 8 0;
#X connect 35 1 8 1;
#X connect 36 0 5 0;
#X connect 36 1 6 0;
#X connect 37 0 36 0;
#X connect 39 0 36 0;
