#N canvas 85 95 690 574 10;
#X obj 148 372 line~;
#X floatatom 23 112 5 0 0 0 - - -, f 5;
#X text 27 144 attack;
#X text 141 154 decay;
#X obj 23 128 t b b f, f 33;
#X text 237 146 level;
#X obj 318 151 bng 15 250 50 0 empty empty empty 17 7 0 10 -262144
-1 -1;
#X text 25 80 KEY PRESS;
#X text 292 122 KEY RELEASE;
#X obj 318 172 t b b;
#X floatatom 224 65 5 0 0 0 - - -, f 5;
#X obj 224 85 s a;
#X floatatom 268 66 5 0 0 0 - - -, f 5;
#X floatatom 310 66 5 0 0 0 - - -, f 5;
#X floatatom 354 67 5 0 0 0 - - -, f 5;
#X obj 268 86 s d;
#X obj 309 86 s s;
#X obj 354 87 s r;
#X obj 215 42 unpack f f f f;
#X obj 22 300 pack;
#X obj 56 257 r a;
#X floatatom 56 275 5 0 0 0 - - -, f 5;
#X obj 148 173 r a;
#X floatatom 148 191 5 0 0 0 - - -, f 5;
#X obj 126 211 del;
#X obj 137 280 f;
#X obj 162 214 r s;
#X text 226 103 ms;
#X text 269 103 ms;
#X text 309 105 db;
#X text 359 104 ms;
#X obj 162 231 dbtorms;
#X floatatom 162 249 5 0 0 0 - - -, f 5;
#X obj 137 307 pack, f 9;
#X msg 263 20 30 35 90 100;
#X floatatom 197 284 5 0 0 0 - - -, f 5;
#X obj 197 266 r d;
#X obj 154 401 *~, f 13;
#X msg 349 193 stop;
#X msg 318 228 0;
#X obj 317 288 pack;
#X obj 366 231 r r;
#X floatatom 366 249 5 0 0 0 - - -, f 5;
#X obj 11 15 inlet;
#X obj 39 46 sel 0;
#X obj 159 429 outlet~;
#X obj 264 0 loadbang;
#X msg 22 202 1;
#X obj 176 13 r params;
#X connect 0 0 37 0;
#X connect 1 0 4 0;
#X connect 4 0 47 0;
#X connect 4 1 24 0;
#X connect 4 2 37 1;
#X connect 6 0 9 0;
#X connect 9 0 39 0;
#X connect 9 1 38 0;
#X connect 10 0 11 0;
#X connect 12 0 15 0;
#X connect 13 0 16 0;
#X connect 14 0 17 0;
#X connect 18 0 10 0;
#X connect 18 1 12 0;
#X connect 18 2 13 0;
#X connect 18 3 14 0;
#X connect 19 0 0 0;
#X connect 20 0 21 0;
#X connect 21 0 19 1;
#X connect 22 0 23 0;
#X connect 23 0 24 1;
#X connect 24 0 25 0;
#X connect 25 0 33 0;
#X connect 26 0 31 0;
#X connect 31 0 32 0;
#X connect 32 0 25 1;
#X connect 33 0 0 0;
#X connect 34 0 18 0;
#X connect 35 0 33 1;
#X connect 36 0 35 0;
#X connect 37 0 45 0;
#X connect 38 0 24 0;
#X connect 39 0 40 0;
#X connect 40 0 0 0;
#X connect 41 0 42 0;
#X connect 42 0 40 1;
#X connect 43 0 44 0;
#X connect 44 0 6 0;
#X connect 44 1 1 0;
#X connect 46 0 34 0;
#X connect 47 0 19 0;
#X connect 48 0 18 0;
