#N canvas 36 40 800 591 10;
#X floatatom 73 138 5 0 0 0 - - -, f 5;
#X floatatom 150 140 5 0 0 0 - - -, f 5;
#X obj 150 159 / 127;
#X obj 109 192 pack;
#X obj 109 214 poly 8 1;
#X obj 112 255 pack f f f;
#X obj 154 184 t b f;
#X msg 35 80 \$1;
#X msg 153 86 \$2;
#N canvas 693 98 689 551 fmVoice 0;
#X obj 73 371 osc~;
#X floatatom 63 166 5 0 0 0 - - -, f 5;
#X obj 132 270 osc~;
#X obj 76 314 +~;
#X obj 254 241 pack f 30;
#X obj 254 263 line~;
#X obj 110 292 *~;
#X text 18 124 carrier frequency;
#X text 474 340 modulating frequency;
#X text 328 206 inharmonic sound;
#X text 513 407 modulating index;
#X text 478 20 Frequency Modulation or FM Synthesis;
#X text 478 356 think period becoming shorter;
#X text 552 439 think range of frequency;
#X text 501 91 x cycles/s of +- y;
#X obj 120 216 *;
#X floatatom 135 254 5 0 0 0 - - -, f 5;
#X obj 160 125 r hr;
#X obj 398 113 r i;
#X floatatom 188 153 5 0 0 0 - - -, f 5;
#X obj 129 188 t b f;
#X obj 299 156 t b f;
#X floatatom 274 205 5 0 0 0 - - -, f 5;
#X obj 299 178 *;
#X obj 92 408 *~;
#N canvas 746 161 450 300 genericAdsr 0;
#X obj 148 372 line~;
#X floatatom 23 112 5 0 0 0 - - -, f 5;
#X text 27 144 attack;
#X text 141 154 decay;
#X obj 23 128 t b b f, f 33;
#X text 237 146 level;
#X obj 318 151 bng 15 250 50 0 empty empty empty 17 7 0 10 -262144
-1 -1;
#X text 25 80 KEY PRESS;
#X text 292 122 KEY RELEASE;
#X obj 318 172 t b b;
#X floatatom 224 65 5 0 0 0 - - -, f 5;
#X obj 224 85 s a;
#X floatatom 268 66 5 0 0 0 - - -, f 5;
#X floatatom 310 66 5 0 0 0 - - -, f 5;
#X floatatom 354 67 5 0 0 0 - - -, f 5;
#X obj 268 86 s d;
#X obj 309 86 s s;
#X obj 354 87 s r;
#X obj 22 300 pack;
#X obj 56 257 r a;
#X floatatom 56 275 5 0 0 0 - - -, f 5;
#X obj 148 173 r a;
#X floatatom 148 191 5 0 0 0 - - -, f 5;
#X obj 126 211 del;
#X obj 137 280 f;
#X obj 162 214 r s;
#X text 226 103 ms;
#X text 269 103 ms;
#X text 309 105 db;
#X text 359 104 ms;
#X obj 162 231 dbtorms;
#X floatatom 162 249 5 0 0 0 - - -, f 5;
#X obj 137 307 pack, f 9;
#X floatatom 197 284 5 0 0 0 - - -, f 5;
#X obj 197 266 r d;
#X obj 154 401 *~, f 13;
#X msg 349 193 stop;
#X msg 318 228 0;
#X obj 317 288 pack;
#X obj 366 231 r r;
#X floatatom 366 249 5 0 0 0 - - -, f 5;
#X obj 11 15 inlet;
#X obj 39 46 sel 0;
#X obj 159 429 outlet~;
#X obj 264 0 loadbang;
#X msg 22 202 1;
#X msg 228 37 30;
#X msg 266 35 35;
#X msg 309 34 90;
#X msg 355 39 100;
#X connect 0 0 35 0;
#X connect 1 0 4 0;
#X connect 4 0 45 0;
#X connect 4 1 23 0;
#X connect 4 2 35 1;
#X connect 6 0 9 0;
#X connect 9 0 37 0;
#X connect 9 1 36 0;
#X connect 10 0 11 0;
#X connect 12 0 15 0;
#X connect 13 0 16 0;
#X connect 14 0 17 0;
#X connect 18 0 0 0;
#X connect 19 0 20 0;
#X connect 20 0 18 1;
#X connect 21 0 22 0;
#X connect 22 0 23 1;
#X connect 23 0 24 0;
#X connect 24 0 32 0;
#X connect 25 0 30 0;
#X connect 30 0 31 0;
#X connect 31 0 24 1;
#X connect 32 0 0 0;
#X connect 33 0 32 1;
#X connect 34 0 33 0;
#X connect 35 0 43 0;
#X connect 36 0 23 0;
#X connect 37 0 38 0;
#X connect 38 0 0 0;
#X connect 39 0 40 0;
#X connect 40 0 38 1;
#X connect 41 0 42 0;
#X connect 42 0 6 0;
#X connect 42 1 1 0;
#X connect 44 0 46 0;
#X connect 44 0 47 0;
#X connect 44 0 48 0;
#X connect 44 0 49 0;
#X connect 45 0 18 0;
#X connect 46 0 10 0;
#X connect 47 0 12 0;
#X connect 48 0 13 0;
#X connect 49 0 14 0;
#X restore 348 300 pd genericAdsr;
#X floatatom 401 140 5 0 0 0 - - -, f 5;
#X obj 94 470 outlet~;
#X obj 100 42 r note-1;
#X msg 71 95 \$2;
#X msg 226 74 \$3;
#X floatatom 281 109 5 0 0 0 - - -, f 5;
#X msg 336 109 0;
#X obj 327 90 bng 15 250 50 0 empty empty empty 17 7 0 10 -262144 -1
-1;
#X obj 331 21 r duration;
#X obj 276 74 bng 15 250 50 0 empty empty empty 17 7 0 10 -262144 -1
-1;
#X obj 299 59 del 1000;
#X connect 0 0 24 0;
#X connect 1 0 3 0;
#X connect 1 0 15 0;
#X connect 2 0 6 0;
#X connect 3 0 0 0;
#X connect 4 0 5 0;
#X connect 5 0 6 1;
#X connect 6 0 3 1;
#X connect 15 0 16 0;
#X connect 15 0 23 0;
#X connect 16 0 2 0;
#X connect 17 0 19 0;
#X connect 18 0 26 0;
#X connect 19 0 20 0;
#X connect 20 0 15 0;
#X connect 20 1 15 1;
#X connect 21 0 23 0;
#X connect 21 1 23 1;
#X connect 22 0 4 0;
#X connect 23 0 22 0;
#X connect 24 0 27 0;
#X connect 25 0 24 1;
#X connect 26 0 21 0;
#X connect 28 0 29 0;
#X connect 28 0 30 0;
#X connect 29 0 1 0;
#X connect 30 0 25 0;
#X connect 30 0 31 0;
#X connect 30 0 35 0;
#X connect 32 0 25 0;
#X connect 33 0 32 0;
#X connect 34 0 36 1;
#X connect 35 0 36 0;
#X connect 36 0 33 0;
#X restore 59 400 pd fmVoice 1;
#N canvas 667 116 689 551 fmVoice 0;
#X obj 49 370 osc~;
#X floatatom 39 165 5 0 0 0 - - -, f 5;
#X obj 108 269 osc~;
#X obj 52 313 +~;
#X obj 230 240 pack f 30;
#X obj 230 262 line~;
#X obj 86 291 *~;
#X text -6 123 carrier frequency;
#X text 450 339 modulating frequency;
#X text 304 205 inharmonic sound;
#X text 489 406 modulating index;
#X text 454 19 Frequency Modulation or FM Synthesis;
#X text 454 355 think period becoming shorter;
#X text 528 438 think range of frequency;
#X text 477 90 x cycles/s of +- y;
#X obj 96 215 *;
#X floatatom 111 253 5 0 0 0 - - -, f 5;
#X obj 136 124 r hr;
#X obj 374 112 r i;
#X floatatom 164 152 5 0 0 0 - - -, f 5;
#X obj 105 187 t b f;
#X obj 275 155 t b f;
#X floatatom 250 204 5 0 0 0 - - -, f 5;
#X obj 275 177 *;
#X obj 68 407 *~;
#N canvas 38 354 450 300 genericAdsr 0;
#X obj 148 372 line~;
#X floatatom 23 112 5 0 0 0 - - -, f 5;
#X text 27 144 attack;
#X text 141 154 decay;
#X obj 23 128 t b b f, f 33;
#X text 237 146 level;
#X obj 318 151 bng 15 250 50 0 empty empty empty 17 7 0 10 -262144
-1 -1;
#X text 25 80 KEY PRESS;
#X text 292 122 KEY RELEASE;
#X obj 318 172 t b b;
#X floatatom 224 65 5 0 0 0 - - -, f 5;
#X obj 224 85 s a;
#X floatatom 268 66 5 0 0 0 - - -, f 5;
#X floatatom 310 66 5 0 0 0 - - -, f 5;
#X floatatom 354 67 5 0 0 0 - - -, f 5;
#X obj 268 86 s d;
#X obj 309 86 s s;
#X obj 354 87 s r;
#X obj 22 300 pack;
#X obj 56 257 r a;
#X floatatom 56 275 5 0 0 0 - - -, f 5;
#X obj 148 173 r a;
#X floatatom 148 191 5 0 0 0 - - -, f 5;
#X obj 126 211 del;
#X obj 137 280 f;
#X obj 162 214 r s;
#X text 226 103 ms;
#X text 269 103 ms;
#X text 309 105 db;
#X text 359 104 ms;
#X obj 162 231 dbtorms;
#X floatatom 162 249 5 0 0 0 - - -, f 5;
#X obj 137 307 pack, f 9;
#X floatatom 197 284 5 0 0 0 - - -, f 5;
#X obj 197 266 r d;
#X obj 154 401 *~, f 13;
#X msg 349 193 stop;
#X msg 318 228 0;
#X obj 317 288 pack;
#X obj 366 231 r r;
#X floatatom 366 249 5 0 0 0 - - -, f 5;
#X obj 11 15 inlet;
#X obj 39 46 sel 0;
#X obj 159 429 outlet~;
#X obj 264 0 loadbang;
#X msg 22 202 1;
#X msg 228 37 30;
#X msg 266 35 35;
#X msg 309 34 90;
#X msg 355 39 100;
#X connect 0 0 35 0;
#X connect 1 0 4 0;
#X connect 4 0 45 0;
#X connect 4 1 23 0;
#X connect 4 2 35 1;
#X connect 6 0 9 0;
#X connect 9 0 37 0;
#X connect 9 1 36 0;
#X connect 10 0 11 0;
#X connect 12 0 15 0;
#X connect 13 0 16 0;
#X connect 14 0 17 0;
#X connect 18 0 0 0;
#X connect 19 0 20 0;
#X connect 20 0 18 1;
#X connect 21 0 22 0;
#X connect 22 0 23 1;
#X connect 23 0 24 0;
#X connect 24 0 32 0;
#X connect 25 0 30 0;
#X connect 30 0 31 0;
#X connect 31 0 24 1;
#X connect 32 0 0 0;
#X connect 33 0 32 1;
#X connect 34 0 33 0;
#X connect 35 0 43 0;
#X connect 36 0 23 0;
#X connect 37 0 38 0;
#X connect 38 0 0 0;
#X connect 39 0 40 0;
#X connect 40 0 38 1;
#X connect 41 0 42 0;
#X connect 42 0 6 0;
#X connect 42 1 1 0;
#X connect 44 0 46 0;
#X connect 44 0 47 0;
#X connect 44 0 48 0;
#X connect 44 0 49 0;
#X connect 45 0 18 0;
#X connect 46 0 10 0;
#X connect 47 0 12 0;
#X connect 48 0 13 0;
#X connect 49 0 14 0;
#X restore 324 299 pd genericAdsr;
#X floatatom 377 139 5 0 0 0 - - -, f 5;
#X obj 70 469 outlet~;
#X obj 76 41 r note-2;
#X msg 336 109 0;
#X obj 327 90 bng 15 250 50 0 empty empty empty 17 7 0 10 -262144 -1
-1;
#X obj 331 21 r duration;
#X msg 47 94 \$2;
#X msg 202 73 \$3;
#X obj 299 59 del 300;
#X connect 0 0 24 0;
#X connect 1 0 3 0;
#X connect 1 0 15 0;
#X connect 2 0 6 0;
#X connect 3 0 0 0;
#X connect 4 0 5 0;
#X connect 5 0 6 1;
#X connect 6 0 3 1;
#X connect 15 0 16 0;
#X connect 15 0 23 0;
#X connect 16 0 2 0;
#X connect 17 0 19 0;
#X connect 18 0 26 0;
#X connect 19 0 20 0;
#X connect 20 0 15 0;
#X connect 20 1 15 1;
#X connect 21 0 23 0;
#X connect 21 1 23 1;
#X connect 22 0 4 0;
#X connect 23 0 22 0;
#X connect 24 0 27 0;
#X connect 25 0 24 1;
#X connect 26 0 21 0;
#X connect 28 0 32 0;
#X connect 28 0 33 0;
#X connect 29 0 25 0;
#X connect 30 0 29 0;
#X connect 31 0 34 1;
#X connect 32 0 1 0;
#X connect 33 0 25 0;
#X connect 33 0 34 0;
#X connect 34 0 30 0;
#X restore 180 406 pd fmVoice 2;
#N canvas 113 169 689 551 fmVoice 0;
#X obj 74 371 osc~;
#X floatatom 64 166 5 0 0 0 - - -, f 5;
#X obj 133 270 osc~;
#X obj 77 314 +~;
#X obj 255 241 pack f 30;
#X obj 255 263 line~;
#X obj 111 292 *~;
#X text 19 124 carrier frequency;
#X text 475 340 modulating frequency;
#X text 329 206 inharmonic sound;
#X text 514 407 modulating index;
#X text 479 20 Frequency Modulation or FM Synthesis;
#X text 479 356 think period becoming shorter;
#X text 553 439 think range of frequency;
#X text 502 91 x cycles/s of +- y;
#X obj 121 216 *;
#X floatatom 136 254 5 0 0 0 - - -, f 5;
#X obj 161 125 r hr;
#X obj 399 113 r i;
#X floatatom 189 153 5 0 0 0 - - -, f 5;
#X obj 130 188 t b f;
#X obj 300 156 t b f;
#X floatatom 275 205 5 0 0 0 - - -, f 5;
#X obj 300 178 *;
#X obj 93 408 *~;
#N canvas 38 354 450 300 genericAdsr 0;
#X obj 148 372 line~;
#X floatatom 23 112 5 0 0 0 - - -, f 5;
#X text 27 144 attack;
#X text 141 154 decay;
#X obj 23 128 t b b f, f 33;
#X text 237 146 level;
#X obj 318 151 bng 15 250 50 0 empty empty empty 17 7 0 10 -262144
-1 -1;
#X text 25 80 KEY PRESS;
#X text 292 122 KEY RELEASE;
#X obj 318 172 t b b;
#X floatatom 224 65 5 0 0 0 - - -, f 5;
#X obj 224 85 s a;
#X floatatom 268 66 5 0 0 0 - - -, f 5;
#X floatatom 310 66 5 0 0 0 - - -, f 5;
#X floatatom 354 67 5 0 0 0 - - -, f 5;
#X obj 268 86 s d;
#X obj 309 86 s s;
#X obj 354 87 s r;
#X obj 22 300 pack;
#X obj 56 257 r a;
#X floatatom 56 275 5 0 0 0 - - -, f 5;
#X obj 148 173 r a;
#X floatatom 148 191 5 0 0 0 - - -, f 5;
#X obj 126 211 del;
#X obj 137 280 f;
#X obj 162 214 r s;
#X text 226 103 ms;
#X text 269 103 ms;
#X text 309 105 db;
#X text 359 104 ms;
#X obj 162 231 dbtorms;
#X floatatom 162 249 5 0 0 0 - - -, f 5;
#X obj 137 307 pack, f 9;
#X floatatom 197 284 5 0 0 0 - - -, f 5;
#X obj 197 266 r d;
#X obj 154 401 *~, f 13;
#X msg 349 193 stop;
#X msg 318 228 0;
#X obj 317 288 pack;
#X obj 366 231 r r;
#X floatatom 366 249 5 0 0 0 - - -, f 5;
#X obj 11 15 inlet;
#X obj 39 46 sel 0;
#X obj 159 429 outlet~;
#X obj 264 0 loadbang;
#X msg 22 202 1;
#X msg 228 37 30;
#X msg 266 35 35;
#X msg 309 34 90;
#X msg 355 39 100;
#X connect 0 0 35 0;
#X connect 1 0 4 0;
#X connect 4 0 45 0;
#X connect 4 1 23 0;
#X connect 4 2 35 1;
#X connect 6 0 9 0;
#X connect 9 0 37 0;
#X connect 9 1 36 0;
#X connect 10 0 11 0;
#X connect 12 0 15 0;
#X connect 13 0 16 0;
#X connect 14 0 17 0;
#X connect 18 0 0 0;
#X connect 19 0 20 0;
#X connect 20 0 18 1;
#X connect 21 0 22 0;
#X connect 22 0 23 1;
#X connect 23 0 24 0;
#X connect 24 0 32 0;
#X connect 25 0 30 0;
#X connect 30 0 31 0;
#X connect 31 0 24 1;
#X connect 32 0 0 0;
#X connect 33 0 32 1;
#X connect 34 0 33 0;
#X connect 35 0 43 0;
#X connect 36 0 23 0;
#X connect 37 0 38 0;
#X connect 38 0 0 0;
#X connect 39 0 40 0;
#X connect 40 0 38 1;
#X connect 41 0 42 0;
#X connect 42 0 6 0;
#X connect 42 1 1 0;
#X connect 44 0 46 0;
#X connect 44 0 47 0;
#X connect 44 0 48 0;
#X connect 44 0 49 0;
#X connect 45 0 18 0;
#X connect 46 0 10 0;
#X connect 47 0 12 0;
#X connect 48 0 13 0;
#X connect 49 0 14 0;
#X restore 349 300 pd genericAdsr;
#X floatatom 402 140 5 0 0 0 - - -, f 5;
#X obj 95 470 outlet~;
#X obj 101 42 r note-3;
#X msg 72 95 \$2;
#X msg 227 74 \$3;
#X msg 338 116 0;
#X obj 329 97 bng 15 250 50 0 empty empty empty 17 7 0 10 -262144 -1
-1;
#X obj 333 28 r duration;
#X obj 301 66 del 300;
#X connect 0 0 24 0;
#X connect 1 0 3 0;
#X connect 1 0 15 0;
#X connect 2 0 6 0;
#X connect 3 0 0 0;
#X connect 4 0 5 0;
#X connect 5 0 6 1;
#X connect 6 0 3 1;
#X connect 15 0 16 0;
#X connect 15 0 23 0;
#X connect 16 0 2 0;
#X connect 17 0 19 0;
#X connect 18 0 26 0;
#X connect 19 0 20 0;
#X connect 20 0 15 0;
#X connect 20 1 15 1;
#X connect 21 0 23 0;
#X connect 21 1 23 1;
#X connect 22 0 4 0;
#X connect 23 0 22 0;
#X connect 24 0 27 0;
#X connect 25 0 24 1;
#X connect 26 0 21 0;
#X connect 28 0 29 0;
#X connect 28 0 30 0;
#X connect 29 0 1 0;
#X connect 30 0 25 0;
#X connect 30 0 34 0;
#X connect 31 0 25 0;
#X connect 32 0 31 0;
#X connect 33 0 34 1;
#X connect 34 0 32 0;
#X restore 269 404 pd fmVoice 3;
#N canvas 495 102 689 551 fmVoice 0;
#X obj 74 371 osc~;
#X floatatom 64 166 5 0 0 0 - - -, f 5;
#X obj 133 270 osc~;
#X obj 77 314 +~;
#X obj 255 241 pack f 30;
#X obj 255 263 line~;
#X obj 111 292 *~;
#X text 19 124 carrier frequency;
#X text 475 340 modulating frequency;
#X text 329 206 inharmonic sound;
#X text 514 407 modulating index;
#X text 479 20 Frequency Modulation or FM Synthesis;
#X text 479 356 think period becoming shorter;
#X text 553 439 think range of frequency;
#X text 502 91 x cycles/s of +- y;
#X obj 121 216 *;
#X floatatom 136 254 5 0 0 0 - - -, f 5;
#X obj 161 125 r hr;
#X obj 399 113 r i;
#X floatatom 189 153 5 0 0 0 - - -, f 5;
#X obj 130 188 t b f;
#X obj 300 156 t b f;
#X floatatom 275 205 5 0 0 0 - - -, f 5;
#X obj 300 178 *;
#X obj 93 408 *~;
#N canvas 38 354 450 300 genericAdsr 0;
#X obj 148 372 line~;
#X floatatom 23 112 5 0 0 0 - - -, f 5;
#X text 27 144 attack;
#X text 141 154 decay;
#X obj 23 128 t b b f, f 33;
#X text 237 146 level;
#X obj 318 151 bng 15 250 50 0 empty empty empty 17 7 0 10 -262144
-1 -1;
#X text 25 80 KEY PRESS;
#X text 292 122 KEY RELEASE;
#X obj 318 172 t b b;
#X floatatom 224 65 5 0 0 0 - - -, f 5;
#X obj 224 85 s a;
#X floatatom 268 66 5 0 0 0 - - -, f 5;
#X floatatom 310 66 5 0 0 0 - - -, f 5;
#X floatatom 354 67 5 0 0 0 - - -, f 5;
#X obj 268 86 s d;
#X obj 309 86 s s;
#X obj 354 87 s r;
#X obj 22 300 pack;
#X obj 56 257 r a;
#X floatatom 56 275 5 0 0 0 - - -, f 5;
#X obj 148 173 r a;
#X floatatom 148 191 5 0 0 0 - - -, f 5;
#X obj 126 211 del;
#X obj 137 280 f;
#X obj 162 214 r s;
#X text 226 103 ms;
#X text 269 103 ms;
#X text 309 105 db;
#X text 359 104 ms;
#X obj 162 231 dbtorms;
#X floatatom 162 249 5 0 0 0 - - -, f 5;
#X obj 137 307 pack, f 9;
#X floatatom 197 284 5 0 0 0 - - -, f 5;
#X obj 197 266 r d;
#X obj 154 401 *~, f 13;
#X msg 349 193 stop;
#X msg 318 228 0;
#X obj 317 288 pack;
#X obj 366 231 r r;
#X floatatom 366 249 5 0 0 0 - - -, f 5;
#X obj 11 15 inlet;
#X obj 39 46 sel 0;
#X obj 159 429 outlet~;
#X obj 264 0 loadbang;
#X msg 22 202 1;
#X obj 176 13 r params;
#X msg 228 37 30;
#X msg 266 35 35;
#X msg 309 34 90;
#X msg 355 39 100;
#X connect 0 0 35 0;
#X connect 1 0 4 0;
#X connect 4 0 45 0;
#X connect 4 1 23 0;
#X connect 4 2 35 1;
#X connect 6 0 9 0;
#X connect 9 0 37 0;
#X connect 9 1 36 0;
#X connect 10 0 11 0;
#X connect 12 0 15 0;
#X connect 13 0 16 0;
#X connect 14 0 17 0;
#X connect 18 0 0 0;
#X connect 19 0 20 0;
#X connect 20 0 18 1;
#X connect 21 0 22 0;
#X connect 22 0 23 1;
#X connect 23 0 24 0;
#X connect 24 0 32 0;
#X connect 25 0 30 0;
#X connect 30 0 31 0;
#X connect 31 0 24 1;
#X connect 32 0 0 0;
#X connect 33 0 32 1;
#X connect 34 0 33 0;
#X connect 35 0 43 0;
#X connect 36 0 23 0;
#X connect 37 0 38 0;
#X connect 38 0 0 0;
#X connect 39 0 40 0;
#X connect 40 0 38 1;
#X connect 41 0 42 0;
#X connect 42 0 6 0;
#X connect 42 1 1 0;
#X connect 44 0 47 0;
#X connect 44 0 48 0;
#X connect 44 0 49 0;
#X connect 44 0 50 0;
#X connect 45 0 18 0;
#X connect 47 0 10 0;
#X connect 48 0 12 0;
#X connect 49 0 13 0;
#X connect 50 0 14 0;
#X restore 349 300 pd genericAdsr;
#X floatatom 402 140 5 0 0 0 - - -, f 5;
#X obj 95 470 outlet~;
#X obj 101 42 r note-4;
#X msg 72 95 \$2;
#X msg 227 74 \$3;
#X msg 336 109 0;
#X obj 327 90 bng 15 250 50 0 empty empty empty 17 7 0 10 -262144 -1
-1;
#X obj 331 21 r duration;
#X obj 299 59 del 300;
#X connect 0 0 24 0;
#X connect 1 0 3 0;
#X connect 1 0 15 0;
#X connect 2 0 6 0;
#X connect 3 0 0 0;
#X connect 4 0 5 0;
#X connect 5 0 6 1;
#X connect 6 0 3 1;
#X connect 15 0 16 0;
#X connect 15 0 23 0;
#X connect 16 0 2 0;
#X connect 17 0 19 0;
#X connect 18 0 26 0;
#X connect 19 0 20 0;
#X connect 20 0 15 0;
#X connect 20 1 15 1;
#X connect 21 0 23 0;
#X connect 21 1 23 1;
#X connect 22 0 4 0;
#X connect 23 0 22 0;
#X connect 24 0 27 0;
#X connect 25 0 24 1;
#X connect 26 0 21 0;
#X connect 28 0 29 0;
#X connect 28 0 30 0;
#X connect 29 0 1 0;
#X connect 30 0 25 0;
#X connect 30 0 34 0;
#X connect 31 0 25 0;
#X connect 32 0 31 0;
#X connect 33 0 34 1;
#X connect 34 0 32 0;
#X restore 329 411 pd fmVoice 4;
#N canvas 495 102 689 551 fmVoice 0;
#X obj 56 367 osc~;
#X floatatom 46 162 5 0 0 0 - - -, f 5;
#X obj 115 266 osc~;
#X obj 59 310 +~;
#X obj 237 237 pack f 30;
#X obj 237 259 line~;
#X obj 93 288 *~;
#X text 1 120 carrier frequency;
#X text 457 336 modulating frequency;
#X text 311 202 inharmonic sound;
#X text 496 403 modulating index;
#X text 461 16 Frequency Modulation or FM Synthesis;
#X text 461 352 think period becoming shorter;
#X text 535 435 think range of frequency;
#X text 484 87 x cycles/s of +- y;
#X obj 103 212 *;
#X floatatom 118 250 5 0 0 0 - - -, f 5;
#X obj 143 121 r hr;
#X obj 381 109 r i;
#X floatatom 171 149 5 0 0 0 - - -, f 5;
#X obj 112 184 t b f;
#X obj 282 152 t b f;
#X floatatom 257 201 5 0 0 0 - - -, f 5;
#X obj 282 174 *;
#X obj 75 404 *~;
#N canvas 38 354 450 300 genericAdsr 0;
#X obj 148 372 line~;
#X floatatom 23 112 5 0 0 0 - - -, f 5;
#X text 27 144 attack;
#X text 141 154 decay;
#X obj 23 128 t b b f, f 33;
#X text 237 146 level;
#X obj 318 151 bng 15 250 50 0 empty empty empty 17 7 0 10 -262144
-1 -1;
#X text 25 80 KEY PRESS;
#X text 292 122 KEY RELEASE;
#X obj 318 172 t b b;
#X floatatom 224 65 5 0 0 0 - - -, f 5;
#X obj 224 85 s a;
#X floatatom 268 66 5 0 0 0 - - -, f 5;
#X floatatom 310 66 5 0 0 0 - - -, f 5;
#X floatatom 354 67 5 0 0 0 - - -, f 5;
#X obj 268 86 s d;
#X obj 309 86 s s;
#X obj 354 87 s r;
#X obj 22 300 pack;
#X obj 56 257 r a;
#X floatatom 56 275 5 0 0 0 - - -, f 5;
#X obj 148 173 r a;
#X floatatom 148 191 5 0 0 0 - - -, f 5;
#X obj 126 211 del;
#X obj 137 280 f;
#X obj 162 214 r s;
#X text 226 103 ms;
#X text 269 103 ms;
#X text 309 105 db;
#X text 359 104 ms;
#X obj 162 231 dbtorms;
#X floatatom 162 249 5 0 0 0 - - -, f 5;
#X obj 137 307 pack, f 9;
#X floatatom 197 284 5 0 0 0 - - -, f 5;
#X obj 197 266 r d;
#X obj 154 401 *~, f 13;
#X msg 349 193 stop;
#X msg 318 228 0;
#X obj 317 288 pack;
#X obj 366 231 r r;
#X floatatom 366 249 5 0 0 0 - - -, f 5;
#X obj 11 15 inlet;
#X obj 39 46 sel 0;
#X obj 159 429 outlet~;
#X obj 264 0 loadbang;
#X msg 22 202 1;
#X obj 176 13 r params;
#X msg 228 37 30;
#X msg 266 35 35;
#X msg 309 34 90;
#X msg 355 39 100;
#X connect 0 0 35 0;
#X connect 1 0 4 0;
#X connect 4 0 45 0;
#X connect 4 1 23 0;
#X connect 4 2 35 1;
#X connect 6 0 9 0;
#X connect 9 0 37 0;
#X connect 9 1 36 0;
#X connect 10 0 11 0;
#X connect 12 0 15 0;
#X connect 13 0 16 0;
#X connect 14 0 17 0;
#X connect 18 0 0 0;
#X connect 19 0 20 0;
#X connect 20 0 18 1;
#X connect 21 0 22 0;
#X connect 22 0 23 1;
#X connect 23 0 24 0;
#X connect 24 0 32 0;
#X connect 25 0 30 0;
#X connect 30 0 31 0;
#X connect 31 0 24 1;
#X connect 32 0 0 0;
#X connect 33 0 32 1;
#X connect 34 0 33 0;
#X connect 35 0 43 0;
#X connect 36 0 23 0;
#X connect 37 0 38 0;
#X connect 38 0 0 0;
#X connect 39 0 40 0;
#X connect 40 0 38 1;
#X connect 41 0 42 0;
#X connect 42 0 6 0;
#X connect 42 1 1 0;
#X connect 44 0 47 0;
#X connect 44 0 48 0;
#X connect 44 0 49 0;
#X connect 44 0 50 0;
#X connect 45 0 18 0;
#X connect 47 0 10 0;
#X connect 48 0 12 0;
#X connect 49 0 13 0;
#X connect 50 0 14 0;
#X restore 331 296 pd genericAdsr;
#X floatatom 384 136 5 0 0 0 - - -, f 5;
#X obj 77 466 outlet~;
#X obj 83 38 r note-5;
#X msg 54 91 \$2;
#X msg 209 70 \$3;
#X msg 336 109 0;
#X obj 327 90 bng 15 250 50 0 empty empty empty 17 7 0 10 -262144 -1
-1;
#X obj 331 21 r duration;
#X obj 299 59 del 300;
#X connect 0 0 24 0;
#X connect 1 0 3 0;
#X connect 1 0 15 0;
#X connect 2 0 6 0;
#X connect 3 0 0 0;
#X connect 4 0 5 0;
#X connect 5 0 6 1;
#X connect 6 0 3 1;
#X connect 15 0 16 0;
#X connect 15 0 23 0;
#X connect 16 0 2 0;
#X connect 17 0 19 0;
#X connect 18 0 26 0;
#X connect 19 0 20 0;
#X connect 20 0 15 0;
#X connect 20 1 15 1;
#X connect 21 0 23 0;
#X connect 21 1 23 1;
#X connect 22 0 4 0;
#X connect 23 0 22 0;
#X connect 24 0 27 0;
#X connect 25 0 24 1;
#X connect 26 0 21 0;
#X connect 28 0 29 0;
#X connect 28 0 30 0;
#X connect 29 0 1 0;
#X connect 30 0 25 0;
#X connect 30 0 34 0;
#X connect 31 0 25 0;
#X connect 32 0 31 0;
#X connect 33 0 34 1;
#X connect 34 0 32 0;
#X restore 414 409 pd fmVoice 5;
#N canvas 495 102 689 551 fmVoice 0;
#X obj 57 371 osc~;
#X floatatom 47 166 5 0 0 0 - - -, f 5;
#X obj 116 270 osc~;
#X obj 60 314 +~;
#X obj 238 241 pack f 30;
#X obj 238 263 line~;
#X obj 94 292 *~;
#X text 2 124 carrier frequency;
#X text 458 340 modulating frequency;
#X text 312 206 inharmonic sound;
#X text 497 407 modulating index;
#X text 462 20 Frequency Modulation or FM Synthesis;
#X text 462 356 think period becoming shorter;
#X text 536 439 think range of frequency;
#X text 485 91 x cycles/s of +- y;
#X obj 104 216 *;
#X floatatom 119 254 5 0 0 0 - - -, f 5;
#X obj 144 125 r hr;
#X obj 382 113 r i;
#X floatatom 172 153 5 0 0 0 - - -, f 5;
#X obj 113 188 t b f;
#X obj 283 156 t b f;
#X floatatom 258 205 5 0 0 0 - - -, f 5;
#X obj 283 178 *;
#X obj 76 408 *~;
#N canvas 38 354 450 300 genericAdsr 0;
#X obj 148 372 line~;
#X floatatom 23 112 5 0 0 0 - - -, f 5;
#X text 27 144 attack;
#X text 141 154 decay;
#X obj 23 128 t b b f, f 33;
#X text 237 146 level;
#X obj 318 151 bng 15 250 50 0 empty empty empty 17 7 0 10 -262144
-1 -1;
#X text 25 80 KEY PRESS;
#X text 292 122 KEY RELEASE;
#X obj 318 172 t b b;
#X floatatom 224 65 5 0 0 0 - - -, f 5;
#X obj 224 85 s a;
#X floatatom 268 66 5 0 0 0 - - -, f 5;
#X floatatom 310 66 5 0 0 0 - - -, f 5;
#X floatatom 354 67 5 0 0 0 - - -, f 5;
#X obj 268 86 s d;
#X obj 309 86 s s;
#X obj 354 87 s r;
#X obj 22 300 pack;
#X obj 56 257 r a;
#X floatatom 56 275 5 0 0 0 - - -, f 5;
#X obj 148 173 r a;
#X floatatom 148 191 5 0 0 0 - - -, f 5;
#X obj 126 211 del;
#X obj 137 280 f;
#X obj 162 214 r s;
#X text 226 103 ms;
#X text 269 103 ms;
#X text 309 105 db;
#X text 359 104 ms;
#X obj 162 231 dbtorms;
#X floatatom 162 249 5 0 0 0 - - -, f 5;
#X obj 137 307 pack, f 9;
#X floatatom 197 284 5 0 0 0 - - -, f 5;
#X obj 197 266 r d;
#X obj 154 401 *~, f 13;
#X msg 349 193 stop;
#X msg 318 228 0;
#X obj 317 288 pack;
#X obj 366 231 r r;
#X floatatom 366 249 5 0 0 0 - - -, f 5;
#X obj 11 15 inlet;
#X obj 39 46 sel 0;
#X obj 159 429 outlet~;
#X obj 264 0 loadbang;
#X msg 22 202 1;
#X obj 176 13 r params;
#X msg 228 37 30;
#X msg 266 35 35;
#X msg 309 34 90;
#X msg 355 39 100;
#X connect 0 0 35 0;
#X connect 1 0 4 0;
#X connect 4 0 45 0;
#X connect 4 1 23 0;
#X connect 4 2 35 1;
#X connect 6 0 9 0;
#X connect 9 0 37 0;
#X connect 9 1 36 0;
#X connect 10 0 11 0;
#X connect 12 0 15 0;
#X connect 13 0 16 0;
#X connect 14 0 17 0;
#X connect 18 0 0 0;
#X connect 19 0 20 0;
#X connect 20 0 18 1;
#X connect 21 0 22 0;
#X connect 22 0 23 1;
#X connect 23 0 24 0;
#X connect 24 0 32 0;
#X connect 25 0 30 0;
#X connect 30 0 31 0;
#X connect 31 0 24 1;
#X connect 32 0 0 0;
#X connect 33 0 32 1;
#X connect 34 0 33 0;
#X connect 35 0 43 0;
#X connect 36 0 23 0;
#X connect 37 0 38 0;
#X connect 38 0 0 0;
#X connect 39 0 40 0;
#X connect 40 0 38 1;
#X connect 41 0 42 0;
#X connect 42 0 6 0;
#X connect 42 1 1 0;
#X connect 44 0 47 0;
#X connect 44 0 48 0;
#X connect 44 0 49 0;
#X connect 44 0 50 0;
#X connect 45 0 18 0;
#X connect 47 0 10 0;
#X connect 48 0 12 0;
#X connect 49 0 13 0;
#X connect 50 0 14 0;
#X restore 332 300 pd genericAdsr;
#X floatatom 385 140 5 0 0 0 - - -, f 5;
#X obj 78 470 outlet~;
#X obj 84 42 r note-6;
#X msg 55 95 \$2;
#X msg 210 74 \$3;
#X msg 336 109 0;
#X obj 327 90 bng 15 250 50 0 empty empty empty 17 7 0 10 -262144 -1
-1;
#X obj 331 21 r duration;
#X obj 299 59 del 300;
#X connect 0 0 24 0;
#X connect 1 0 3 0;
#X connect 1 0 15 0;
#X connect 2 0 6 0;
#X connect 3 0 0 0;
#X connect 4 0 5 0;
#X connect 5 0 6 1;
#X connect 6 0 3 1;
#X connect 15 0 16 0;
#X connect 15 0 23 0;
#X connect 16 0 2 0;
#X connect 17 0 19 0;
#X connect 18 0 26 0;
#X connect 19 0 20 0;
#X connect 20 0 15 0;
#X connect 20 1 15 1;
#X connect 21 0 23 0;
#X connect 21 1 23 1;
#X connect 22 0 4 0;
#X connect 23 0 22 0;
#X connect 24 0 27 0;
#X connect 25 0 24 1;
#X connect 26 0 21 0;
#X connect 28 0 29 0;
#X connect 28 0 30 0;
#X connect 29 0 1 0;
#X connect 30 0 25 0;
#X connect 30 0 34 0;
#X connect 31 0 25 0;
#X connect 32 0 31 0;
#X connect 33 0 34 1;
#X connect 34 0 32 0;
#X restore 497 407 pd fmVoice 6;
#N canvas 495 102 689 551 fmVoice 0;
#X obj 73 371 osc~;
#X floatatom 63 166 5 0 0 0 - - -, f 5;
#X obj 132 270 osc~;
#X obj 76 314 +~;
#X obj 254 241 pack f 30;
#X obj 254 263 line~;
#X obj 110 292 *~;
#X text 18 124 carrier frequency;
#X text 474 340 modulating frequency;
#X text 328 206 inharmonic sound;
#X text 513 407 modulating index;
#X text 478 20 Frequency Modulation or FM Synthesis;
#X text 478 356 think period becoming shorter;
#X text 552 439 think range of frequency;
#X text 501 91 x cycles/s of +- y;
#X obj 120 216 *;
#X floatatom 135 254 5 0 0 0 - - -, f 5;
#X obj 160 125 r hr;
#X obj 398 113 r i;
#X floatatom 188 153 5 0 0 0 - - -, f 5;
#X obj 129 188 t b f;
#X obj 299 156 t b f;
#X floatatom 274 205 5 0 0 0 - - -, f 5;
#X obj 299 178 *;
#X obj 92 408 *~;
#N canvas 38 354 450 300 genericAdsr 0;
#X obj 148 372 line~;
#X floatatom 23 112 5 0 0 0 - - -, f 5;
#X text 27 144 attack;
#X text 141 154 decay;
#X obj 23 128 t b b f, f 33;
#X text 237 146 level;
#X obj 318 151 bng 15 250 50 0 empty empty empty 17 7 0 10 -262144
-1 -1;
#X text 25 80 KEY PRESS;
#X text 292 122 KEY RELEASE;
#X obj 318 172 t b b;
#X floatatom 224 65 5 0 0 0 - - -, f 5;
#X obj 224 85 s a;
#X floatatom 268 66 5 0 0 0 - - -, f 5;
#X floatatom 310 66 5 0 0 0 - - -, f 5;
#X floatatom 354 67 5 0 0 0 - - -, f 5;
#X obj 268 86 s d;
#X obj 309 86 s s;
#X obj 354 87 s r;
#X obj 22 300 pack;
#X obj 56 257 r a;
#X floatatom 56 275 5 0 0 0 - - -, f 5;
#X obj 148 173 r a;
#X floatatom 148 191 5 0 0 0 - - -, f 5;
#X obj 126 211 del;
#X obj 137 280 f;
#X obj 162 214 r s;
#X text 226 103 ms;
#X text 269 103 ms;
#X text 309 105 db;
#X text 359 104 ms;
#X obj 162 231 dbtorms;
#X floatatom 162 249 5 0 0 0 - - -, f 5;
#X obj 137 307 pack, f 9;
#X floatatom 197 284 5 0 0 0 - - -, f 5;
#X obj 197 266 r d;
#X obj 154 401 *~, f 13;
#X msg 349 193 stop;
#X msg 318 228 0;
#X obj 317 288 pack;
#X obj 366 231 r r;
#X floatatom 366 249 5 0 0 0 - - -, f 5;
#X obj 11 15 inlet;
#X obj 39 46 sel 0;
#X obj 159 429 outlet~;
#X obj 264 0 loadbang;
#X msg 22 202 1;
#X obj 176 13 r params;
#X msg 228 37 30;
#X msg 266 35 35;
#X msg 309 34 90;
#X msg 355 39 100;
#X connect 0 0 35 0;
#X connect 1 0 4 0;
#X connect 4 0 45 0;
#X connect 4 1 23 0;
#X connect 4 2 35 1;
#X connect 6 0 9 0;
#X connect 9 0 37 0;
#X connect 9 1 36 0;
#X connect 10 0 11 0;
#X connect 12 0 15 0;
#X connect 13 0 16 0;
#X connect 14 0 17 0;
#X connect 18 0 0 0;
#X connect 19 0 20 0;
#X connect 20 0 18 1;
#X connect 21 0 22 0;
#X connect 22 0 23 1;
#X connect 23 0 24 0;
#X connect 24 0 32 0;
#X connect 25 0 30 0;
#X connect 30 0 31 0;
#X connect 31 0 24 1;
#X connect 32 0 0 0;
#X connect 33 0 32 1;
#X connect 34 0 33 0;
#X connect 35 0 43 0;
#X connect 36 0 23 0;
#X connect 37 0 38 0;
#X connect 38 0 0 0;
#X connect 39 0 40 0;
#X connect 40 0 38 1;
#X connect 41 0 42 0;
#X connect 42 0 6 0;
#X connect 42 1 1 0;
#X connect 44 0 47 0;
#X connect 44 0 48 0;
#X connect 44 0 49 0;
#X connect 44 0 50 0;
#X connect 45 0 18 0;
#X connect 47 0 10 0;
#X connect 48 0 12 0;
#X connect 49 0 13 0;
#X connect 50 0 14 0;
#X restore 348 300 pd genericAdsr;
#X floatatom 401 140 5 0 0 0 - - -, f 5;
#X obj 94 470 outlet~;
#X obj 100 42 r note-8;
#X msg 71 95 \$2;
#X msg 226 74 \$3;
#X msg 336 109 0;
#X obj 327 90 bng 15 250 50 0 empty empty empty 17 7 0 10 -262144 -1
-1;
#X obj 331 21 r duration;
#X obj 299 59 del 300;
#X connect 0 0 24 0;
#X connect 1 0 3 0;
#X connect 1 0 15 0;
#X connect 2 0 6 0;
#X connect 3 0 0 0;
#X connect 4 0 5 0;
#X connect 5 0 6 1;
#X connect 6 0 3 1;
#X connect 15 0 16 0;
#X connect 15 0 23 0;
#X connect 16 0 2 0;
#X connect 17 0 19 0;
#X connect 18 0 26 0;
#X connect 19 0 20 0;
#X connect 20 0 15 0;
#X connect 20 1 15 1;
#X connect 21 0 23 0;
#X connect 21 1 23 1;
#X connect 22 0 4 0;
#X connect 23 0 22 0;
#X connect 24 0 27 0;
#X connect 25 0 24 1;
#X connect 26 0 21 0;
#X connect 28 0 29 0;
#X connect 28 0 30 0;
#X connect 29 0 1 0;
#X connect 30 0 25 0;
#X connect 30 0 34 0;
#X connect 31 0 25 0;
#X connect 32 0 31 0;
#X connect 33 0 34 1;
#X connect 34 0 32 0;
#X restore 688 412 pd fmVoice 8;
#N canvas 495 102 689 551 fmVoice 0;
#X obj 73 371 osc~;
#X floatatom 63 166 5 0 0 0 - - -, f 5;
#X obj 132 270 osc~;
#X obj 76 314 +~;
#X obj 254 241 pack f 30;
#X obj 254 263 line~;
#X obj 110 292 *~;
#X text 18 124 carrier frequency;
#X text 474 340 modulating frequency;
#X text 328 206 inharmonic sound;
#X text 513 407 modulating index;
#X text 478 20 Frequency Modulation or FM Synthesis;
#X text 478 356 think period becoming shorter;
#X text 552 439 think range of frequency;
#X text 501 91 x cycles/s of +- y;
#X obj 120 216 *;
#X floatatom 135 254 5 0 0 0 - - -, f 5;
#X obj 160 125 r hr;
#X obj 398 113 r i;
#X floatatom 188 153 5 0 0 0 - - -, f 5;
#X obj 129 188 t b f;
#X obj 299 156 t b f;
#X floatatom 274 205 5 0 0 0 - - -, f 5;
#X obj 299 178 *;
#X obj 92 408 *~;
#N canvas 38 354 450 300 genericAdsr 0;
#X obj 148 372 line~;
#X floatatom 23 112 5 0 0 0 - - -, f 5;
#X text 27 144 attack;
#X text 141 154 decay;
#X obj 23 128 t b b f, f 33;
#X text 237 146 level;
#X obj 318 151 bng 15 250 50 0 empty empty empty 17 7 0 10 -262144
-1 -1;
#X text 25 80 KEY PRESS;
#X text 292 122 KEY RELEASE;
#X obj 318 172 t b b;
#X floatatom 224 65 5 0 0 0 - - -, f 5;
#X obj 224 85 s a;
#X floatatom 268 66 5 0 0 0 - - -, f 5;
#X floatatom 310 66 5 0 0 0 - - -, f 5;
#X floatatom 354 67 5 0 0 0 - - -, f 5;
#X obj 268 86 s d;
#X obj 309 86 s s;
#X obj 354 87 s r;
#X obj 22 300 pack;
#X obj 56 257 r a;
#X floatatom 56 275 5 0 0 0 - - -, f 5;
#X obj 148 173 r a;
#X floatatom 148 191 5 0 0 0 - - -, f 5;
#X obj 126 211 del;
#X obj 137 280 f;
#X obj 162 214 r s;
#X text 226 103 ms;
#X text 269 103 ms;
#X text 309 105 db;
#X text 359 104 ms;
#X obj 162 231 dbtorms;
#X floatatom 162 249 5 0 0 0 - - -, f 5;
#X obj 137 307 pack, f 9;
#X floatatom 197 284 5 0 0 0 - - -, f 5;
#X obj 197 266 r d;
#X obj 154 401 *~, f 13;
#X msg 349 193 stop;
#X msg 318 228 0;
#X obj 317 288 pack;
#X obj 366 231 r r;
#X floatatom 366 249 5 0 0 0 - - -, f 5;
#X obj 11 15 inlet;
#X obj 39 46 sel 0;
#X obj 159 429 outlet~;
#X obj 264 0 loadbang;
#X msg 22 202 1;
#X obj 176 13 r params;
#X msg 228 37 30;
#X msg 266 35 35;
#X msg 309 34 90;
#X msg 355 39 100;
#X connect 0 0 35 0;
#X connect 1 0 4 0;
#X connect 4 0 45 0;
#X connect 4 1 23 0;
#X connect 4 2 35 1;
#X connect 6 0 9 0;
#X connect 9 0 37 0;
#X connect 9 1 36 0;
#X connect 10 0 11 0;
#X connect 12 0 15 0;
#X connect 13 0 16 0;
#X connect 14 0 17 0;
#X connect 18 0 0 0;
#X connect 19 0 20 0;
#X connect 20 0 18 1;
#X connect 21 0 22 0;
#X connect 22 0 23 1;
#X connect 23 0 24 0;
#X connect 24 0 32 0;
#X connect 25 0 30 0;
#X connect 30 0 31 0;
#X connect 31 0 24 1;
#X connect 32 0 0 0;
#X connect 33 0 32 1;
#X connect 34 0 33 0;
#X connect 35 0 43 0;
#X connect 36 0 23 0;
#X connect 37 0 38 0;
#X connect 38 0 0 0;
#X connect 39 0 40 0;
#X connect 40 0 38 1;
#X connect 41 0 42 0;
#X connect 42 0 6 0;
#X connect 42 1 1 0;
#X connect 44 0 47 0;
#X connect 44 0 48 0;
#X connect 44 0 49 0;
#X connect 44 0 50 0;
#X connect 45 0 18 0;
#X connect 47 0 10 0;
#X connect 48 0 12 0;
#X connect 49 0 13 0;
#X connect 50 0 14 0;
#X restore 348 300 pd genericAdsr;
#X floatatom 401 140 5 0 0 0 - - -, f 5;
#X obj 94 470 outlet~;
#X obj 100 42 r note-7;
#X msg 336 109 0;
#X obj 327 90 bng 15 250 50 0 empty empty empty 17 7 0 10 -262144 -1
-1;
#X obj 331 21 r duration;
#X msg 226 74 \$3;
#X msg 70 95 \$2;
#X obj 299 59 del 300;
#X connect 0 0 24 0;
#X connect 1 0 3 0;
#X connect 1 0 15 0;
#X connect 2 0 6 0;
#X connect 3 0 0 0;
#X connect 4 0 5 0;
#X connect 5 0 6 1;
#X connect 6 0 3 1;
#X connect 15 0 16 0;
#X connect 15 0 23 0;
#X connect 16 0 2 0;
#X connect 17 0 19 0;
#X connect 18 0 26 0;
#X connect 19 0 20 0;
#X connect 20 0 15 0;
#X connect 20 1 15 1;
#X connect 21 0 23 0;
#X connect 21 1 23 1;
#X connect 22 0 4 0;
#X connect 23 0 22 0;
#X connect 24 0 27 0;
#X connect 25 0 24 1;
#X connect 26 0 21 0;
#X connect 28 0 33 0;
#X connect 28 0 32 0;
#X connect 29 0 25 0;
#X connect 30 0 29 0;
#X connect 31 0 34 1;
#X connect 32 0 25 0;
#X connect 32 0 34 0;
#X connect 33 0 1 0;
#X connect 34 0 30 0;
#X restore 596 401 pd fmVoice 7;
#X obj 351 525 dac~;
#X obj 600 179 s duration;
#X obj 312 188 s a;
#X obj 347 188 s d;
#X obj 404 190 s s;
#X obj 458 189 s r;
#X obj 17 230 % 8;
#X obj 17 252 + 1;
#X obj 18 180 f;
#X obj 17 204 + 1;
#X obj 26 154 bng 15 250 50 0 empty empty empty 17 7 0 10 -262144 -1
-1;
#X floatatom 17 274 5 0 0 0 - - -, f 5;
#X obj 22 24 inlet;
#X obj 598 110 inlet;
#X obj 293 98 inlet;
#X obj 458 139 inlet;
#X obj 391 127 inlet;
#X obj 345 120 inlet;
#X obj 60 352 s note-1;
#X obj 174 20 loadbang;
#X floatatom 642 140 5 0 0 0 - - -, f 5;
#X msg 152 54 231 75;
#X connect 0 0 3 0;
#X connect 0 0 27 0;
#X connect 1 0 2 0;
#X connect 2 0 6 0;
#X connect 3 0 4 0;
#X connect 4 0 5 0;
#X connect 4 1 5 1;
#X connect 4 2 5 2;
#X connect 5 0 35 0;
#X connect 6 0 3 0;
#X connect 6 1 3 1;
#X connect 7 0 0 0;
#X connect 8 0 1 0;
#X connect 9 0 17 0;
#X connect 9 0 17 1;
#X connect 10 0 17 0;
#X connect 10 0 17 1;
#X connect 11 0 17 0;
#X connect 11 0 17 1;
#X connect 12 0 17 0;
#X connect 12 0 17 1;
#X connect 13 0 17 0;
#X connect 13 0 17 1;
#X connect 14 0 17 0;
#X connect 14 0 17 1;
#X connect 15 0 17 0;
#X connect 15 0 17 1;
#X connect 16 0 17 0;
#X connect 16 0 17 1;
#X connect 23 0 24 0;
#X connect 24 0 28 0;
#X connect 25 0 26 0;
#X connect 26 0 25 1;
#X connect 26 0 23 0;
#X connect 27 0 25 0;
#X connect 29 0 8 0;
#X connect 29 0 7 0;
#X connect 30 0 18 0;
#X connect 31 0 19 0;
#X connect 32 0 22 0;
#X connect 33 0 21 0;
#X connect 34 0 20 0;
#X connect 36 0 38 0;
#X connect 37 0 18 0;
#X connect 38 0 8 0;
#X connect 38 0 7 0;
