#N canvas 84 67 1047 643 10;
#X obj 348 579 dac~;
#X obj 600 179 s duration;
#X obj 598 110 inlet;
#X obj 174 19 loadbang;
#X floatatom 642 140 5 0 0 0 - - -, f 5;
#X msg 653 76 60;
#X obj 388 477 +~;
#N canvas 69 126 783 703 fmVoice2 0;
#X obj 80 555 osc~;
#X floatatom 70 350 5 0 0 0 - - -, f 5;
#X obj 139 454 osc~;
#X obj 83 498 +~;
#X obj 261 425 pack f 30;
#X obj 261 447 line~;
#X obj 117 476 *~;
#X text 25 308 carrier frequency;
#X text 481 524 modulating frequency;
#X text 335 390 inharmonic sound;
#X text 520 591 modulating index;
#X text 485 204 Frequency Modulation or FM Synthesis;
#X text 485 540 think period becoming shorter;
#X text 559 623 think range of frequency;
#X text 508 275 x cycles/s of +- y;
#X obj 127 400 *;
#X floatatom 142 438 5 0 0 0 - - -, f 5;
#X obj 167 309 r hr;
#X floatatom 195 337 5 0 0 0 - - -, f 5;
#X obj 136 372 t b f;
#X obj 306 340 t b f;
#X floatatom 281 389 5 0 0 0 - - -, f 5;
#X obj 306 362 *;
#X obj 99 592 *~;
#N canvas 746 161 450 300 genericAdsr 0;
#X obj 148 372 line~;
#X floatatom 23 112 5 0 0 0 - - -, f 5;
#X text 27 144 attack;
#X text 141 154 decay;
#X obj 23 128 t b b f, f 33;
#X text 237 146 level;
#X obj 318 151 bng 15 250 50 0 empty empty empty 17 7 0 10 -262144
-1 -1;
#X text 25 80 KEY PRESS;
#X text 292 122 KEY RELEASE;
#X obj 318 172 t b b;
#X floatatom 224 65 5 0 0 0 - - -, f 5;
#X obj 224 85 s a;
#X floatatom 268 66 5 0 0 0 - - -, f 5;
#X floatatom 310 66 5 0 0 0 - - -, f 5;
#X floatatom 354 67 5 0 0 0 - - -, f 5;
#X obj 268 86 s d;
#X obj 309 86 s s;
#X obj 354 87 s r;
#X obj 22 300 pack;
#X obj 56 257 r a;
#X floatatom 56 275 5 0 0 0 - - -, f 5;
#X obj 148 173 r a;
#X floatatom 148 191 5 0 0 0 - - -, f 5;
#X obj 126 211 del;
#X obj 137 280 f;
#X obj 162 214 r s;
#X text 226 103 ms;
#X text 269 103 ms;
#X text 309 105 db;
#X text 359 104 ms;
#X obj 162 231 dbtorms;
#X floatatom 162 249 5 0 0 0 - - -, f 5;
#X obj 137 307 pack, f 9;
#X floatatom 197 284 5 0 0 0 - - -, f 5;
#X obj 197 266 r d;
#X obj 154 401 *~, f 13;
#X msg 349 193 stop;
#X msg 318 228 0;
#X obj 317 288 pack;
#X obj 366 231 r r;
#X floatatom 366 249 5 0 0 0 - - -, f 5;
#X obj 11 15 inlet;
#X obj 39 46 sel 0;
#X obj 159 429 outlet~;
#X obj 264 0 loadbang;
#X msg 22 202 1;
#X msg 266 35 35;
#X msg 309 34 90;
#X msg 355 39 100;
#X msg 228 37 60;
#X connect 0 0 35 0;
#X connect 1 0 4 0;
#X connect 4 0 45 0;
#X connect 4 1 23 0;
#X connect 4 2 35 1;
#X connect 6 0 9 0;
#X connect 9 0 37 0;
#X connect 9 1 36 0;
#X connect 10 0 11 0;
#X connect 12 0 15 0;
#X connect 13 0 16 0;
#X connect 14 0 17 0;
#X connect 18 0 0 0;
#X connect 19 0 20 0;
#X connect 20 0 18 1;
#X connect 21 0 22 0;
#X connect 22 0 23 1;
#X connect 23 0 24 0;
#X connect 24 0 32 0;
#X connect 25 0 30 0;
#X connect 30 0 31 0;
#X connect 31 0 24 1;
#X connect 32 0 0 0;
#X connect 33 0 32 1;
#X connect 34 0 33 0;
#X connect 35 0 43 0;
#X connect 36 0 23 0;
#X connect 37 0 38 0;
#X connect 38 0 0 0;
#X connect 39 0 40 0;
#X connect 40 0 38 1;
#X connect 41 0 42 0;
#X connect 42 0 6 0;
#X connect 42 1 1 0;
#X connect 44 0 49 0;
#X connect 44 0 46 0;
#X connect 44 0 47 0;
#X connect 44 0 48 0;
#X connect 45 0 18 0;
#X connect 46 0 12 0;
#X connect 47 0 13 0;
#X connect 48 0 14 0;
#X connect 49 0 10 0;
#X restore 355 484 pd genericAdsr;
#X floatatom 408 324 5 0 0 0 - - -, f 5;
#X obj 101 654 outlet~;
#X floatatom 288 293 5 0 0 0 - - -, f 5;
#X msg 343 293 0;
#X obj 334 274 bng 15 250 50 0 empty empty empty 17 7 0 10 -262144
-1 -1;
#X obj 338 205 r duration;
#X obj 283 258 bng 15 250 50 0 empty empty empty 17 7 0 10 -262144
-1 -1;
#X obj 306 243 del 1000;
#X obj 210 289 loadbang;
#X msg 210 311 1;
#X obj 405 297 r hi;
#X msg 78 279 \$1;
#X msg 233 258 \$2;
#X floatatom 73 156 5 0 0 0 - - -, f 5;
#X floatatom 150 140 5 0 0 0 - - -, f 5;
#X obj 150 159 / 127;
#X obj 109 192 pack;
#X obj 154 184 t b f;
#X msg 51 113 \$1;
#X msg 152 86 \$2;
#X msg 154 58 231 75;
#X obj 75 425 pack f 30;
#X obj 75 447 line~;
#X obj 17 17 r freq2;
#X obj 48 61 del 500;
#X msg 86 27 \$2;
#X obj 24 84 f;
#X obj 47 40 bng 15 250 50 0 empty empty empty 17 7 0 10 -262144 -1
-1;
#X msg 2 37 \$1;
#X obj 258 46 loadbang;
#X msg 258 68 75;
#X obj 258 90 / 127;
#X connect 0 0 23 0;
#X connect 1 0 15 0;
#X connect 1 0 46 0;
#X connect 2 0 6 0;
#X connect 3 0 0 0;
#X connect 4 0 5 0;
#X connect 5 0 6 1;
#X connect 6 0 3 1;
#X connect 15 0 16 0;
#X connect 15 0 22 0;
#X connect 16 0 2 0;
#X connect 17 0 18 0;
#X connect 18 0 19 0;
#X connect 19 0 15 0;
#X connect 19 1 15 1;
#X connect 20 0 22 0;
#X connect 20 1 22 1;
#X connect 21 0 4 0;
#X connect 22 0 21 0;
#X connect 23 0 26 0;
#X connect 24 0 23 1;
#X connect 25 0 20 0;
#X connect 28 0 24 0;
#X connect 29 0 28 0;
#X connect 30 0 32 1;
#X connect 31 0 32 0;
#X connect 32 0 29 0;
#X connect 33 0 34 0;
#X connect 34 0 18 0;
#X connect 34 0 25 0;
#X connect 35 0 25 0;
#X connect 36 0 1 0;
#X connect 37 0 24 0;
#X connect 37 0 27 0;
#X connect 37 0 31 0;
#X connect 38 0 41 0;
#X connect 39 0 40 0;
#X connect 40 0 42 0;
#X connect 41 0 36 0;
#X connect 41 0 37 0;
#X connect 42 0 41 0;
#X connect 42 1 41 1;
#X connect 43 0 38 0;
#X connect 44 0 39 0;
#X connect 45 0 44 0;
#X connect 45 0 43 0;
#X connect 46 0 47 0;
#X connect 47 0 3 0;
#X connect 48 0 52 0;
#X connect 48 0 53 0;
#X connect 48 0 50 0;
#X connect 49 0 51 0;
#X connect 50 0 49 1;
#X connect 51 0 43 0;
#X connect 52 0 49 0;
#X connect 53 0 51 1;
#X connect 54 0 55 0;
#X connect 55 0 56 0;
#X connect 56 0 41 1;
#X restore 147 348 pd fmVoice2;
#N canvas 404 171 783 703 fmVoice1 0;
#X obj 80 555 osc~;
#X floatatom 70 350 5 0 0 0 - - -, f 5;
#X obj 139 454 osc~;
#X obj 83 498 +~;
#X obj 261 425 pack f 30;
#X obj 261 447 line~;
#X obj 117 476 *~;
#X text 25 308 carrier frequency;
#X text 481 524 modulating frequency;
#X text 335 390 inharmonic sound;
#X text 520 591 modulating index;
#X text 485 204 Frequency Modulation or FM Synthesis;
#X text 485 540 think period becoming shorter;
#X text 559 623 think range of frequency;
#X text 508 275 x cycles/s of +- y;
#X obj 127 400 *;
#X floatatom 142 438 5 0 0 0 - - -, f 5;
#X obj 167 309 r hr;
#X floatatom 195 337 5 0 0 0 - - -, f 5;
#X obj 136 372 t b f;
#X obj 306 340 t b f;
#X floatatom 281 389 5 0 0 0 - - -, f 5;
#X obj 306 362 *;
#X obj 99 592 *~;
#N canvas 746 161 450 300 genericAdsr 0;
#X obj 148 372 line~;
#X floatatom 23 112 5 0 0 0 - - -, f 5;
#X text 27 144 attack;
#X text 141 154 decay;
#X obj 23 128 t b b f, f 33;
#X text 237 146 level;
#X obj 318 151 bng 15 250 50 0 empty empty empty 17 7 0 10 -262144
-1 -1;
#X text 25 80 KEY PRESS;
#X text 292 122 KEY RELEASE;
#X obj 318 172 t b b;
#X floatatom 224 65 5 0 0 0 - - -, f 5;
#X obj 224 85 s a;
#X floatatom 268 66 5 0 0 0 - - -, f 5;
#X floatatom 310 66 5 0 0 0 - - -, f 5;
#X floatatom 354 67 5 0 0 0 - - -, f 5;
#X obj 268 86 s d;
#X obj 309 86 s s;
#X obj 354 87 s r;
#X obj 22 300 pack;
#X obj 56 257 r a;
#X floatatom 56 275 5 0 0 0 - - -, f 5;
#X obj 148 173 r a;
#X floatatom 148 191 5 0 0 0 - - -, f 5;
#X obj 126 211 del;
#X obj 137 280 f;
#X obj 162 214 r s;
#X text 226 103 ms;
#X text 269 103 ms;
#X text 309 105 db;
#X text 359 104 ms;
#X obj 162 231 dbtorms;
#X floatatom 162 249 5 0 0 0 - - -, f 5;
#X obj 137 307 pack, f 9;
#X floatatom 197 284 5 0 0 0 - - -, f 5;
#X obj 197 266 r d;
#X obj 154 401 *~, f 13;
#X msg 349 193 stop;
#X msg 318 228 0;
#X obj 317 288 pack;
#X obj 366 231 r r;
#X floatatom 366 249 5 0 0 0 - - -, f 5;
#X obj 11 15 inlet;
#X obj 39 46 sel 0;
#X obj 159 429 outlet~;
#X obj 264 0 loadbang;
#X msg 22 202 1;
#X msg 266 35 35;
#X msg 309 34 90;
#X msg 355 39 100;
#X msg 228 37 60;
#X connect 0 0 35 0;
#X connect 1 0 4 0;
#X connect 4 0 45 0;
#X connect 4 1 23 0;
#X connect 4 2 35 1;
#X connect 6 0 9 0;
#X connect 9 0 37 0;
#X connect 9 1 36 0;
#X connect 10 0 11 0;
#X connect 12 0 15 0;
#X connect 13 0 16 0;
#X connect 14 0 17 0;
#X connect 18 0 0 0;
#X connect 19 0 20 0;
#X connect 20 0 18 1;
#X connect 21 0 22 0;
#X connect 22 0 23 1;
#X connect 23 0 24 0;
#X connect 24 0 32 0;
#X connect 25 0 30 0;
#X connect 30 0 31 0;
#X connect 31 0 24 1;
#X connect 32 0 0 0;
#X connect 33 0 32 1;
#X connect 34 0 33 0;
#X connect 35 0 43 0;
#X connect 36 0 23 0;
#X connect 37 0 38 0;
#X connect 38 0 0 0;
#X connect 39 0 40 0;
#X connect 40 0 38 1;
#X connect 41 0 42 0;
#X connect 42 0 6 0;
#X connect 42 1 1 0;
#X connect 44 0 49 0;
#X connect 44 0 46 0;
#X connect 44 0 47 0;
#X connect 44 0 48 0;
#X connect 45 0 18 0;
#X connect 46 0 12 0;
#X connect 47 0 13 0;
#X connect 48 0 14 0;
#X connect 49 0 10 0;
#X restore 355 484 pd genericAdsr;
#X floatatom 408 324 5 0 0 0 - - -, f 5;
#X obj 101 654 outlet~;
#X floatatom 288 293 5 0 0 0 - - -, f 5;
#X msg 343 293 0;
#X obj 334 274 bng 15 250 50 0 empty empty empty 17 7 0 10 -262144
-1 -1;
#X obj 338 205 r duration;
#X obj 283 258 bng 15 250 50 0 empty empty empty 17 7 0 10 -262144
-1 -1;
#X obj 306 243 del 1000;
#X obj 210 289 loadbang;
#X msg 210 311 1;
#X obj 405 297 r hi;
#X msg 78 279 \$1;
#X msg 233 258 \$2;
#X floatatom 73 156 5 0 0 0 - - -, f 5;
#X floatatom 150 140 5 0 0 0 - - -, f 5;
#X obj 150 159 / 127;
#X obj 109 192 pack;
#X obj 154 184 t b f;
#X msg 51 113 \$1;
#X msg 152 86 \$2;
#X msg 154 58 231 75;
#X obj 75 425 pack f 30;
#X obj 75 447 line~;
#X obj 48 61 del 500;
#X msg 86 27 \$2;
#X obj 24 84 f;
#X obj 47 40 bng 15 250 50 0 empty empty empty 17 7 0 10 -262144 -1
-1;
#X msg 2 37 \$1;
#X obj 17 17 r freq1;
#X obj 258 46 loadbang;
#X msg 258 68 75;
#X obj 258 90 / 127;
#X connect 0 0 23 0;
#X connect 1 0 15 0;
#X connect 1 0 46 0;
#X connect 2 0 6 0;
#X connect 3 0 0 0;
#X connect 4 0 5 0;
#X connect 5 0 6 1;
#X connect 6 0 3 1;
#X connect 15 0 16 0;
#X connect 15 0 22 0;
#X connect 16 0 2 0;
#X connect 17 0 18 0;
#X connect 18 0 19 0;
#X connect 19 0 15 0;
#X connect 19 1 15 1;
#X connect 20 0 22 0;
#X connect 20 1 22 1;
#X connect 21 0 4 0;
#X connect 22 0 21 0;
#X connect 23 0 26 0;
#X connect 24 0 23 1;
#X connect 25 0 20 0;
#X connect 28 0 24 0;
#X connect 29 0 28 0;
#X connect 30 0 32 1;
#X connect 31 0 32 0;
#X connect 32 0 29 0;
#X connect 33 0 34 0;
#X connect 34 0 18 0;
#X connect 34 0 25 0;
#X connect 35 0 25 0;
#X connect 36 0 1 0;
#X connect 37 0 24 0;
#X connect 37 0 27 0;
#X connect 37 0 31 0;
#X connect 38 0 41 0;
#X connect 39 0 40 0;
#X connect 40 0 42 0;
#X connect 41 0 36 0;
#X connect 41 0 37 0;
#X connect 42 0 41 0;
#X connect 42 1 41 1;
#X connect 43 0 38 0;
#X connect 44 0 39 0;
#X connect 45 0 44 0;
#X connect 45 0 43 0;
#X connect 46 0 47 0;
#X connect 47 0 3 0;
#X connect 48 0 50 0;
#X connect 49 0 48 1;
#X connect 50 0 43 0;
#X connect 51 0 48 0;
#X connect 52 0 50 1;
#X connect 53 0 51 0;
#X connect 53 0 52 0;
#X connect 53 0 49 0;
#X connect 54 0 55 0;
#X connect 55 0 56 0;
#X connect 56 0 41 1;
#X restore 29 347 pd fmVoice1;
#N canvas 69 126 783 703 fmVoice3 0;
#X obj 80 555 osc~;
#X floatatom 70 350 5 0 0 0 - - -, f 5;
#X obj 139 454 osc~;
#X obj 83 498 +~;
#X obj 261 425 pack f 30;
#X obj 261 447 line~;
#X obj 117 476 *~;
#X text 25 308 carrier frequency;
#X text 481 524 modulating frequency;
#X text 335 390 inharmonic sound;
#X text 520 591 modulating index;
#X text 485 204 Frequency Modulation or FM Synthesis;
#X text 485 540 think period becoming shorter;
#X text 559 623 think range of frequency;
#X text 508 275 x cycles/s of +- y;
#X obj 127 400 *;
#X floatatom 142 438 5 0 0 0 - - -, f 5;
#X obj 167 309 r hr;
#X floatatom 195 337 5 0 0 0 - - -, f 5;
#X obj 136 372 t b f;
#X obj 306 340 t b f;
#X floatatom 281 389 5 0 0 0 - - -, f 5;
#X obj 306 362 *;
#X obj 99 592 *~;
#N canvas 746 161 450 300 genericAdsr 0;
#X obj 148 372 line~;
#X floatatom 23 112 5 0 0 0 - - -, f 5;
#X text 27 144 attack;
#X text 141 154 decay;
#X obj 23 128 t b b f, f 33;
#X text 237 146 level;
#X obj 318 151 bng 15 250 50 0 empty empty empty 17 7 0 10 -262144
-1 -1;
#X text 25 80 KEY PRESS;
#X text 292 122 KEY RELEASE;
#X obj 318 172 t b b;
#X floatatom 224 65 5 0 0 0 - - -, f 5;
#X obj 224 85 s a;
#X floatatom 268 66 5 0 0 0 - - -, f 5;
#X floatatom 310 66 5 0 0 0 - - -, f 5;
#X floatatom 354 67 5 0 0 0 - - -, f 5;
#X obj 268 86 s d;
#X obj 309 86 s s;
#X obj 354 87 s r;
#X obj 22 300 pack;
#X obj 56 257 r a;
#X floatatom 56 275 5 0 0 0 - - -, f 5;
#X obj 148 173 r a;
#X floatatom 148 191 5 0 0 0 - - -, f 5;
#X obj 126 211 del;
#X obj 137 280 f;
#X obj 162 214 r s;
#X text 226 103 ms;
#X text 269 103 ms;
#X text 309 105 db;
#X text 359 104 ms;
#X obj 162 231 dbtorms;
#X floatatom 162 249 5 0 0 0 - - -, f 5;
#X obj 137 307 pack, f 9;
#X floatatom 197 284 5 0 0 0 - - -, f 5;
#X obj 197 266 r d;
#X obj 154 401 *~, f 13;
#X msg 349 193 stop;
#X msg 318 228 0;
#X obj 317 288 pack;
#X obj 366 231 r r;
#X floatatom 366 249 5 0 0 0 - - -, f 5;
#X obj 11 15 inlet;
#X obj 39 46 sel 0;
#X obj 159 429 outlet~;
#X obj 264 0 loadbang;
#X msg 22 202 1;
#X msg 266 35 35;
#X msg 309 34 90;
#X msg 355 39 100;
#X msg 228 37 60;
#X connect 0 0 35 0;
#X connect 1 0 4 0;
#X connect 4 0 45 0;
#X connect 4 1 23 0;
#X connect 4 2 35 1;
#X connect 6 0 9 0;
#X connect 9 0 37 0;
#X connect 9 1 36 0;
#X connect 10 0 11 0;
#X connect 12 0 15 0;
#X connect 13 0 16 0;
#X connect 14 0 17 0;
#X connect 18 0 0 0;
#X connect 19 0 20 0;
#X connect 20 0 18 1;
#X connect 21 0 22 0;
#X connect 22 0 23 1;
#X connect 23 0 24 0;
#X connect 24 0 32 0;
#X connect 25 0 30 0;
#X connect 30 0 31 0;
#X connect 31 0 24 1;
#X connect 32 0 0 0;
#X connect 33 0 32 1;
#X connect 34 0 33 0;
#X connect 35 0 43 0;
#X connect 36 0 23 0;
#X connect 37 0 38 0;
#X connect 38 0 0 0;
#X connect 39 0 40 0;
#X connect 40 0 38 1;
#X connect 41 0 42 0;
#X connect 42 0 6 0;
#X connect 42 1 1 0;
#X connect 44 0 49 0;
#X connect 44 0 46 0;
#X connect 44 0 47 0;
#X connect 44 0 48 0;
#X connect 45 0 18 0;
#X connect 46 0 12 0;
#X connect 47 0 13 0;
#X connect 48 0 14 0;
#X connect 49 0 10 0;
#X restore 355 484 pd genericAdsr;
#X floatatom 408 324 5 0 0 0 - - -, f 5;
#X obj 101 654 outlet~;
#X floatatom 288 293 5 0 0 0 - - -, f 5;
#X msg 343 293 0;
#X obj 334 274 bng 15 250 50 0 empty empty empty 17 7 0 10 -262144
-1 -1;
#X obj 338 205 r duration;
#X obj 283 258 bng 15 250 50 0 empty empty empty 17 7 0 10 -262144
-1 -1;
#X obj 306 243 del 1000;
#X obj 210 289 loadbang;
#X msg 210 311 1;
#X obj 405 297 r hi;
#X msg 78 279 \$1;
#X msg 233 258 \$2;
#X floatatom 73 156 5 0 0 0 - - -, f 5;
#X floatatom 150 140 5 0 0 0 - - -, f 5;
#X obj 150 159 / 127;
#X obj 109 192 pack;
#X obj 154 184 t b f;
#X msg 51 113 \$1;
#X msg 152 86 \$2;
#X msg 154 58 231 75;
#X obj 75 425 pack f 30;
#X obj 75 447 line~;
#X obj 48 61 del 500;
#X msg 86 27 \$2;
#X obj 24 84 f;
#X obj 47 40 bng 15 250 50 0 empty empty empty 17 7 0 10 -262144 -1
-1;
#X msg 2 37 \$1;
#X obj 17 17 r freq3;
#X obj 258 46 loadbang;
#X msg 258 68 75;
#X obj 258 90 / 127;
#X connect 0 0 23 0;
#X connect 1 0 15 0;
#X connect 1 0 46 0;
#X connect 2 0 6 0;
#X connect 3 0 0 0;
#X connect 4 0 5 0;
#X connect 5 0 6 1;
#X connect 6 0 3 1;
#X connect 15 0 16 0;
#X connect 15 0 22 0;
#X connect 16 0 2 0;
#X connect 17 0 18 0;
#X connect 18 0 19 0;
#X connect 19 0 15 0;
#X connect 19 1 15 1;
#X connect 20 0 22 0;
#X connect 20 1 22 1;
#X connect 21 0 4 0;
#X connect 22 0 21 0;
#X connect 23 0 26 0;
#X connect 24 0 23 1;
#X connect 25 0 20 0;
#X connect 28 0 24 0;
#X connect 29 0 28 0;
#X connect 30 0 32 1;
#X connect 31 0 32 0;
#X connect 32 0 29 0;
#X connect 33 0 34 0;
#X connect 34 0 18 0;
#X connect 34 0 25 0;
#X connect 35 0 25 0;
#X connect 36 0 1 0;
#X connect 37 0 24 0;
#X connect 37 0 27 0;
#X connect 37 0 31 0;
#X connect 38 0 41 0;
#X connect 39 0 40 0;
#X connect 40 0 42 0;
#X connect 41 0 36 0;
#X connect 41 0 37 0;
#X connect 42 0 41 0;
#X connect 42 1 41 1;
#X connect 43 0 38 0;
#X connect 44 0 39 0;
#X connect 45 0 44 0;
#X connect 45 0 43 0;
#X connect 46 0 47 0;
#X connect 47 0 3 0;
#X connect 48 0 50 0;
#X connect 49 0 48 1;
#X connect 50 0 43 0;
#X connect 51 0 48 0;
#X connect 52 0 50 1;
#X connect 53 0 51 0;
#X connect 53 0 52 0;
#X connect 53 0 49 0;
#X connect 54 0 55 0;
#X connect 55 0 56 0;
#X connect 56 0 41 1;
#X restore 254 352 pd fmVoice3;
#N canvas 69 126 783 703 fmVoice4 0;
#X obj 80 555 osc~;
#X floatatom 70 350 5 0 0 0 - - -, f 5;
#X obj 139 454 osc~;
#X obj 83 498 +~;
#X obj 261 425 pack f 30;
#X obj 261 447 line~;
#X obj 117 476 *~;
#X text 25 308 carrier frequency;
#X text 481 524 modulating frequency;
#X text 335 390 inharmonic sound;
#X text 520 591 modulating index;
#X text 485 204 Frequency Modulation or FM Synthesis;
#X text 485 540 think period becoming shorter;
#X text 559 623 think range of frequency;
#X text 508 275 x cycles/s of +- y;
#X obj 127 400 *;
#X floatatom 142 438 5 0 0 0 - - -, f 5;
#X obj 167 309 r hr;
#X floatatom 195 337 5 0 0 0 - - -, f 5;
#X obj 136 372 t b f;
#X obj 306 340 t b f;
#X floatatom 281 389 5 0 0 0 - - -, f 5;
#X obj 306 362 *;
#X obj 99 592 *~;
#N canvas 746 161 450 300 genericAdsr 0;
#X obj 148 372 line~;
#X floatatom 23 112 5 0 0 0 - - -, f 5;
#X text 27 144 attack;
#X text 141 154 decay;
#X obj 23 128 t b b f, f 33;
#X text 237 146 level;
#X obj 318 151 bng 15 250 50 0 empty empty empty 17 7 0 10 -262144
-1 -1;
#X text 25 80 KEY PRESS;
#X text 292 122 KEY RELEASE;
#X obj 318 172 t b b;
#X floatatom 224 65 5 0 0 0 - - -, f 5;
#X obj 224 85 s a;
#X floatatom 268 66 5 0 0 0 - - -, f 5;
#X floatatom 310 66 5 0 0 0 - - -, f 5;
#X floatatom 354 67 5 0 0 0 - - -, f 5;
#X obj 268 86 s d;
#X obj 309 86 s s;
#X obj 354 87 s r;
#X obj 22 300 pack;
#X obj 56 257 r a;
#X floatatom 56 275 5 0 0 0 - - -, f 5;
#X obj 148 173 r a;
#X floatatom 148 191 5 0 0 0 - - -, f 5;
#X obj 126 211 del;
#X obj 137 280 f;
#X obj 162 214 r s;
#X text 226 103 ms;
#X text 269 103 ms;
#X text 309 105 db;
#X text 359 104 ms;
#X obj 162 231 dbtorms;
#X floatatom 162 249 5 0 0 0 - - -, f 5;
#X obj 137 307 pack, f 9;
#X floatatom 197 284 5 0 0 0 - - -, f 5;
#X obj 197 266 r d;
#X obj 154 401 *~, f 13;
#X msg 349 193 stop;
#X msg 318 228 0;
#X obj 317 288 pack;
#X obj 366 231 r r;
#X floatatom 366 249 5 0 0 0 - - -, f 5;
#X obj 11 15 inlet;
#X obj 39 46 sel 0;
#X obj 159 429 outlet~;
#X obj 264 0 loadbang;
#X msg 22 202 1;
#X msg 266 35 35;
#X msg 309 34 90;
#X msg 355 39 100;
#X msg 228 37 60;
#X connect 0 0 35 0;
#X connect 1 0 4 0;
#X connect 4 0 45 0;
#X connect 4 1 23 0;
#X connect 4 2 35 1;
#X connect 6 0 9 0;
#X connect 9 0 37 0;
#X connect 9 1 36 0;
#X connect 10 0 11 0;
#X connect 12 0 15 0;
#X connect 13 0 16 0;
#X connect 14 0 17 0;
#X connect 18 0 0 0;
#X connect 19 0 20 0;
#X connect 20 0 18 1;
#X connect 21 0 22 0;
#X connect 22 0 23 1;
#X connect 23 0 24 0;
#X connect 24 0 32 0;
#X connect 25 0 30 0;
#X connect 30 0 31 0;
#X connect 31 0 24 1;
#X connect 32 0 0 0;
#X connect 33 0 32 1;
#X connect 34 0 33 0;
#X connect 35 0 43 0;
#X connect 36 0 23 0;
#X connect 37 0 38 0;
#X connect 38 0 0 0;
#X connect 39 0 40 0;
#X connect 40 0 38 1;
#X connect 41 0 42 0;
#X connect 42 0 6 0;
#X connect 42 1 1 0;
#X connect 44 0 49 0;
#X connect 44 0 46 0;
#X connect 44 0 47 0;
#X connect 44 0 48 0;
#X connect 45 0 18 0;
#X connect 46 0 12 0;
#X connect 47 0 13 0;
#X connect 48 0 14 0;
#X connect 49 0 10 0;
#X restore 355 484 pd genericAdsr;
#X floatatom 408 324 5 0 0 0 - - -, f 5;
#X obj 101 654 outlet~;
#X floatatom 288 293 5 0 0 0 - - -, f 5;
#X msg 343 293 0;
#X obj 334 274 bng 15 250 50 0 empty empty empty 17 7 0 10 -262144
-1 -1;
#X obj 338 205 r duration;
#X obj 283 258 bng 15 250 50 0 empty empty empty 17 7 0 10 -262144
-1 -1;
#X obj 306 243 del 1000;
#X obj 210 289 loadbang;
#X msg 210 311 1;
#X obj 405 297 r hi;
#X msg 78 279 \$1;
#X msg 233 258 \$2;
#X floatatom 73 156 5 0 0 0 - - -, f 5;
#X floatatom 150 140 5 0 0 0 - - -, f 5;
#X obj 150 159 / 127;
#X obj 109 192 pack;
#X obj 154 184 t b f;
#X msg 51 113 \$1;
#X msg 152 86 \$2;
#X msg 154 58 231 75;
#X obj 75 425 pack f 30;
#X obj 75 447 line~;
#X obj 48 61 del 500;
#X msg 86 27 \$2;
#X obj 24 84 f;
#X obj 47 40 bng 15 250 50 0 empty empty empty 17 7 0 10 -262144 -1
-1;
#X msg 2 37 \$1;
#X obj 17 17 r freq4;
#X obj 258 46 loadbang;
#X msg 258 68 75;
#X obj 258 90 / 127;
#X connect 0 0 23 0;
#X connect 1 0 15 0;
#X connect 1 0 46 0;
#X connect 2 0 6 0;
#X connect 3 0 0 0;
#X connect 4 0 5 0;
#X connect 5 0 6 1;
#X connect 6 0 3 1;
#X connect 15 0 16 0;
#X connect 15 0 22 0;
#X connect 16 0 2 0;
#X connect 17 0 18 0;
#X connect 18 0 19 0;
#X connect 19 0 15 0;
#X connect 19 1 15 1;
#X connect 20 0 22 0;
#X connect 20 1 22 1;
#X connect 21 0 4 0;
#X connect 22 0 21 0;
#X connect 23 0 26 0;
#X connect 24 0 23 1;
#X connect 25 0 20 0;
#X connect 28 0 24 0;
#X connect 29 0 28 0;
#X connect 30 0 32 1;
#X connect 31 0 32 0;
#X connect 32 0 29 0;
#X connect 33 0 34 0;
#X connect 34 0 18 0;
#X connect 34 0 25 0;
#X connect 35 0 25 0;
#X connect 36 0 1 0;
#X connect 37 0 24 0;
#X connect 37 0 27 0;
#X connect 37 0 31 0;
#X connect 38 0 41 0;
#X connect 39 0 40 0;
#X connect 40 0 42 0;
#X connect 41 0 36 0;
#X connect 41 0 37 0;
#X connect 42 0 41 0;
#X connect 42 1 41 1;
#X connect 43 0 38 0;
#X connect 44 0 39 0;
#X connect 45 0 44 0;
#X connect 45 0 43 0;
#X connect 46 0 47 0;
#X connect 47 0 3 0;
#X connect 48 0 50 0;
#X connect 49 0 48 1;
#X connect 50 0 43 0;
#X connect 51 0 48 0;
#X connect 52 0 50 1;
#X connect 53 0 51 0;
#X connect 53 0 52 0;
#X connect 53 0 49 0;
#X connect 54 0 55 0;
#X connect 55 0 56 0;
#X connect 56 0 41 1;
#X restore 335 345 pd fmVoice4;
#N canvas 69 126 783 703 fmVoice5 0;
#X obj 80 555 osc~;
#X floatatom 70 350 5 0 0 0 - - -, f 5;
#X obj 139 454 osc~;
#X obj 83 498 +~;
#X obj 261 425 pack f 30;
#X obj 261 447 line~;
#X obj 117 476 *~;
#X text 25 308 carrier frequency;
#X text 481 524 modulating frequency;
#X text 335 390 inharmonic sound;
#X text 520 591 modulating index;
#X text 485 204 Frequency Modulation or FM Synthesis;
#X text 485 540 think period becoming shorter;
#X text 559 623 think range of frequency;
#X text 508 275 x cycles/s of +- y;
#X obj 127 400 *;
#X floatatom 142 438 5 0 0 0 - - -, f 5;
#X obj 167 309 r hr;
#X floatatom 195 337 5 0 0 0 - - -, f 5;
#X obj 136 372 t b f;
#X obj 306 340 t b f;
#X floatatom 281 389 5 0 0 0 - - -, f 5;
#X obj 306 362 *;
#X obj 99 592 *~;
#N canvas 746 161 450 300 genericAdsr 0;
#X obj 148 372 line~;
#X floatatom 23 112 5 0 0 0 - - -, f 5;
#X text 27 144 attack;
#X text 141 154 decay;
#X obj 23 128 t b b f, f 33;
#X text 237 146 level;
#X obj 318 151 bng 15 250 50 0 empty empty empty 17 7 0 10 -262144
-1 -1;
#X text 25 80 KEY PRESS;
#X text 292 122 KEY RELEASE;
#X obj 318 172 t b b;
#X floatatom 224 65 5 0 0 0 - - -, f 5;
#X obj 224 85 s a;
#X floatatom 268 66 5 0 0 0 - - -, f 5;
#X floatatom 310 66 5 0 0 0 - - -, f 5;
#X floatatom 354 67 5 0 0 0 - - -, f 5;
#X obj 268 86 s d;
#X obj 309 86 s s;
#X obj 354 87 s r;
#X obj 22 300 pack;
#X obj 56 257 r a;
#X floatatom 56 275 5 0 0 0 - - -, f 5;
#X obj 148 173 r a;
#X floatatom 148 191 5 0 0 0 - - -, f 5;
#X obj 126 211 del;
#X obj 137 280 f;
#X obj 162 214 r s;
#X text 226 103 ms;
#X text 269 103 ms;
#X text 309 105 db;
#X text 359 104 ms;
#X obj 162 231 dbtorms;
#X floatatom 162 249 5 0 0 0 - - -, f 5;
#X obj 137 307 pack, f 9;
#X floatatom 197 284 5 0 0 0 - - -, f 5;
#X obj 197 266 r d;
#X obj 154 401 *~, f 13;
#X msg 349 193 stop;
#X msg 318 228 0;
#X obj 317 288 pack;
#X obj 366 231 r r;
#X floatatom 366 249 5 0 0 0 - - -, f 5;
#X obj 11 15 inlet;
#X obj 39 46 sel 0;
#X obj 159 429 outlet~;
#X obj 264 0 loadbang;
#X msg 22 202 1;
#X msg 266 35 35;
#X msg 309 34 90;
#X msg 355 39 100;
#X msg 228 37 60;
#X connect 0 0 35 0;
#X connect 1 0 4 0;
#X connect 4 0 45 0;
#X connect 4 1 23 0;
#X connect 4 2 35 1;
#X connect 6 0 9 0;
#X connect 9 0 37 0;
#X connect 9 1 36 0;
#X connect 10 0 11 0;
#X connect 12 0 15 0;
#X connect 13 0 16 0;
#X connect 14 0 17 0;
#X connect 18 0 0 0;
#X connect 19 0 20 0;
#X connect 20 0 18 1;
#X connect 21 0 22 0;
#X connect 22 0 23 1;
#X connect 23 0 24 0;
#X connect 24 0 32 0;
#X connect 25 0 30 0;
#X connect 30 0 31 0;
#X connect 31 0 24 1;
#X connect 32 0 0 0;
#X connect 33 0 32 1;
#X connect 34 0 33 0;
#X connect 35 0 43 0;
#X connect 36 0 23 0;
#X connect 37 0 38 0;
#X connect 38 0 0 0;
#X connect 39 0 40 0;
#X connect 40 0 38 1;
#X connect 41 0 42 0;
#X connect 42 0 6 0;
#X connect 42 1 1 0;
#X connect 44 0 49 0;
#X connect 44 0 46 0;
#X connect 44 0 47 0;
#X connect 44 0 48 0;
#X connect 45 0 18 0;
#X connect 46 0 12 0;
#X connect 47 0 13 0;
#X connect 48 0 14 0;
#X connect 49 0 10 0;
#X restore 355 484 pd genericAdsr;
#X floatatom 408 324 5 0 0 0 - - -, f 5;
#X obj 101 654 outlet~;
#X floatatom 288 293 5 0 0 0 - - -, f 5;
#X msg 343 293 0;
#X obj 334 274 bng 15 250 50 0 empty empty empty 17 7 0 10 -262144
-1 -1;
#X obj 338 205 r duration;
#X obj 283 258 bng 15 250 50 0 empty empty empty 17 7 0 10 -262144
-1 -1;
#X obj 306 243 del 1000;
#X obj 210 289 loadbang;
#X msg 210 311 1;
#X obj 405 297 r hi;
#X msg 78 279 \$1;
#X msg 233 258 \$2;
#X floatatom 73 156 5 0 0 0 - - -, f 5;
#X floatatom 150 140 5 0 0 0 - - -, f 5;
#X obj 150 159 / 127;
#X obj 109 192 pack;
#X obj 154 184 t b f;
#X msg 51 113 \$1;
#X msg 152 86 \$2;
#X msg 154 58 231 75;
#X obj 75 425 pack f 30;
#X obj 75 447 line~;
#X obj 48 61 del 500;
#X msg 86 27 \$2;
#X obj 24 84 f;
#X obj 47 40 bng 15 250 50 0 empty empty empty 17 7 0 10 -262144 -1
-1;
#X msg 2 37 \$1;
#X obj 17 17 r freq5;
#X obj 258 46 loadbang;
#X msg 258 68 75;
#X obj 258 90 / 127;
#X connect 0 0 23 0;
#X connect 1 0 15 0;
#X connect 1 0 46 0;
#X connect 2 0 6 0;
#X connect 3 0 0 0;
#X connect 4 0 5 0;
#X connect 5 0 6 1;
#X connect 6 0 3 1;
#X connect 15 0 16 0;
#X connect 15 0 22 0;
#X connect 16 0 2 0;
#X connect 17 0 18 0;
#X connect 18 0 19 0;
#X connect 19 0 15 0;
#X connect 19 1 15 1;
#X connect 20 0 22 0;
#X connect 20 1 22 1;
#X connect 21 0 4 0;
#X connect 22 0 21 0;
#X connect 23 0 26 0;
#X connect 24 0 23 1;
#X connect 25 0 20 0;
#X connect 28 0 24 0;
#X connect 29 0 28 0;
#X connect 30 0 32 1;
#X connect 31 0 32 0;
#X connect 32 0 29 0;
#X connect 33 0 34 0;
#X connect 34 0 18 0;
#X connect 34 0 25 0;
#X connect 35 0 25 0;
#X connect 36 0 1 0;
#X connect 37 0 24 0;
#X connect 37 0 27 0;
#X connect 37 0 31 0;
#X connect 38 0 41 0;
#X connect 39 0 40 0;
#X connect 40 0 42 0;
#X connect 41 0 36 0;
#X connect 41 0 37 0;
#X connect 42 0 41 0;
#X connect 42 1 41 1;
#X connect 43 0 38 0;
#X connect 44 0 39 0;
#X connect 45 0 44 0;
#X connect 45 0 43 0;
#X connect 46 0 47 0;
#X connect 47 0 3 0;
#X connect 48 0 50 0;
#X connect 49 0 48 1;
#X connect 50 0 43 0;
#X connect 51 0 48 0;
#X connect 52 0 50 1;
#X connect 53 0 51 0;
#X connect 53 0 52 0;
#X connect 53 0 49 0;
#X connect 54 0 55 0;
#X connect 55 0 56 0;
#X connect 56 0 41 1;
#X restore 428 346 pd fmVoice5;
#N canvas 69 126 783 703 fmVoice6 0;
#X obj 80 555 osc~;
#X floatatom 70 350 5 0 0 0 - - -, f 5;
#X obj 139 454 osc~;
#X obj 83 498 +~;
#X obj 261 425 pack f 30;
#X obj 261 447 line~;
#X obj 117 476 *~;
#X text 25 308 carrier frequency;
#X text 481 524 modulating frequency;
#X text 335 390 inharmonic sound;
#X text 520 591 modulating index;
#X text 485 204 Frequency Modulation or FM Synthesis;
#X text 485 540 think period becoming shorter;
#X text 559 623 think range of frequency;
#X text 508 275 x cycles/s of +- y;
#X obj 127 400 *;
#X floatatom 142 438 5 0 0 0 - - -, f 5;
#X obj 167 309 r hr;
#X floatatom 195 337 5 0 0 0 - - -, f 5;
#X obj 136 372 t b f;
#X obj 306 340 t b f;
#X floatatom 281 389 5 0 0 0 - - -, f 5;
#X obj 306 362 *;
#X obj 99 592 *~;
#N canvas 746 161 450 300 genericAdsr 0;
#X obj 148 372 line~;
#X floatatom 23 112 5 0 0 0 - - -, f 5;
#X text 27 144 attack;
#X text 141 154 decay;
#X obj 23 128 t b b f, f 33;
#X text 237 146 level;
#X obj 318 151 bng 15 250 50 0 empty empty empty 17 7 0 10 -262144
-1 -1;
#X text 25 80 KEY PRESS;
#X text 292 122 KEY RELEASE;
#X obj 318 172 t b b;
#X floatatom 224 65 5 0 0 0 - - -, f 5;
#X obj 224 85 s a;
#X floatatom 268 66 5 0 0 0 - - -, f 5;
#X floatatom 310 66 5 0 0 0 - - -, f 5;
#X floatatom 354 67 5 0 0 0 - - -, f 5;
#X obj 268 86 s d;
#X obj 309 86 s s;
#X obj 354 87 s r;
#X obj 22 300 pack;
#X obj 56 257 r a;
#X floatatom 56 275 5 0 0 0 - - -, f 5;
#X obj 148 173 r a;
#X floatatom 148 191 5 0 0 0 - - -, f 5;
#X obj 126 211 del;
#X obj 137 280 f;
#X obj 162 214 r s;
#X text 226 103 ms;
#X text 269 103 ms;
#X text 309 105 db;
#X text 359 104 ms;
#X obj 162 231 dbtorms;
#X floatatom 162 249 5 0 0 0 - - -, f 5;
#X obj 137 307 pack, f 9;
#X floatatom 197 284 5 0 0 0 - - -, f 5;
#X obj 197 266 r d;
#X obj 154 401 *~, f 13;
#X msg 349 193 stop;
#X msg 318 228 0;
#X obj 317 288 pack;
#X obj 366 231 r r;
#X floatatom 366 249 5 0 0 0 - - -, f 5;
#X obj 11 15 inlet;
#X obj 39 46 sel 0;
#X obj 159 429 outlet~;
#X obj 264 0 loadbang;
#X msg 22 202 1;
#X msg 266 35 35;
#X msg 309 34 90;
#X msg 355 39 100;
#X msg 228 37 60;
#X connect 0 0 35 0;
#X connect 1 0 4 0;
#X connect 4 0 45 0;
#X connect 4 1 23 0;
#X connect 4 2 35 1;
#X connect 6 0 9 0;
#X connect 9 0 37 0;
#X connect 9 1 36 0;
#X connect 10 0 11 0;
#X connect 12 0 15 0;
#X connect 13 0 16 0;
#X connect 14 0 17 0;
#X connect 18 0 0 0;
#X connect 19 0 20 0;
#X connect 20 0 18 1;
#X connect 21 0 22 0;
#X connect 22 0 23 1;
#X connect 23 0 24 0;
#X connect 24 0 32 0;
#X connect 25 0 30 0;
#X connect 30 0 31 0;
#X connect 31 0 24 1;
#X connect 32 0 0 0;
#X connect 33 0 32 1;
#X connect 34 0 33 0;
#X connect 35 0 43 0;
#X connect 36 0 23 0;
#X connect 37 0 38 0;
#X connect 38 0 0 0;
#X connect 39 0 40 0;
#X connect 40 0 38 1;
#X connect 41 0 42 0;
#X connect 42 0 6 0;
#X connect 42 1 1 0;
#X connect 44 0 49 0;
#X connect 44 0 46 0;
#X connect 44 0 47 0;
#X connect 44 0 48 0;
#X connect 45 0 18 0;
#X connect 46 0 12 0;
#X connect 47 0 13 0;
#X connect 48 0 14 0;
#X connect 49 0 10 0;
#X restore 355 484 pd genericAdsr;
#X floatatom 408 324 5 0 0 0 - - -, f 5;
#X obj 101 654 outlet~;
#X floatatom 288 293 5 0 0 0 - - -, f 5;
#X msg 343 293 0;
#X obj 334 274 bng 15 250 50 0 empty empty empty 17 7 0 10 -262144
-1 -1;
#X obj 338 205 r duration;
#X obj 283 258 bng 15 250 50 0 empty empty empty 17 7 0 10 -262144
-1 -1;
#X obj 306 243 del 1000;
#X obj 210 289 loadbang;
#X msg 210 311 1;
#X obj 405 297 r hi;
#X msg 78 279 \$1;
#X msg 233 258 \$2;
#X floatatom 73 156 5 0 0 0 - - -, f 5;
#X floatatom 150 140 5 0 0 0 - - -, f 5;
#X obj 150 159 / 127;
#X obj 109 192 pack;
#X obj 154 184 t b f;
#X msg 51 113 \$1;
#X msg 152 86 \$2;
#X msg 154 58 231 75;
#X obj 75 425 pack f 30;
#X obj 75 447 line~;
#X obj 48 61 del 500;
#X msg 86 27 \$2;
#X obj 24 84 f;
#X obj 47 40 bng 15 250 50 0 empty empty empty 17 7 0 10 -262144 -1
-1;
#X msg 2 37 \$1;
#X obj 17 17 r freq6;
#X obj 258 46 loadbang;
#X msg 258 68 75;
#X obj 258 90 / 127;
#X connect 0 0 23 0;
#X connect 1 0 15 0;
#X connect 1 0 46 0;
#X connect 2 0 6 0;
#X connect 3 0 0 0;
#X connect 4 0 5 0;
#X connect 5 0 6 1;
#X connect 6 0 3 1;
#X connect 15 0 16 0;
#X connect 15 0 22 0;
#X connect 16 0 2 0;
#X connect 17 0 18 0;
#X connect 18 0 19 0;
#X connect 19 0 15 0;
#X connect 19 1 15 1;
#X connect 20 0 22 0;
#X connect 20 1 22 1;
#X connect 21 0 4 0;
#X connect 22 0 21 0;
#X connect 23 0 26 0;
#X connect 24 0 23 1;
#X connect 25 0 20 0;
#X connect 28 0 24 0;
#X connect 29 0 28 0;
#X connect 30 0 32 1;
#X connect 31 0 32 0;
#X connect 32 0 29 0;
#X connect 33 0 34 0;
#X connect 34 0 18 0;
#X connect 34 0 25 0;
#X connect 35 0 25 0;
#X connect 36 0 1 0;
#X connect 37 0 24 0;
#X connect 37 0 27 0;
#X connect 37 0 31 0;
#X connect 38 0 41 0;
#X connect 39 0 40 0;
#X connect 40 0 42 0;
#X connect 41 0 36 0;
#X connect 41 0 37 0;
#X connect 42 0 41 0;
#X connect 42 1 41 1;
#X connect 43 0 38 0;
#X connect 44 0 39 0;
#X connect 45 0 44 0;
#X connect 45 0 43 0;
#X connect 46 0 47 0;
#X connect 47 0 3 0;
#X connect 48 0 50 0;
#X connect 49 0 48 1;
#X connect 50 0 43 0;
#X connect 51 0 48 0;
#X connect 52 0 50 1;
#X connect 53 0 51 0;
#X connect 53 0 52 0;
#X connect 53 0 49 0;
#X connect 54 0 55 0;
#X connect 55 0 56 0;
#X connect 56 0 41 1;
#X restore 502 372 pd fmVoice6;
#N canvas 69 126 783 703 fmVoice7 0;
#X obj 80 555 osc~;
#X floatatom 70 350 5 0 0 0 - - -, f 5;
#X obj 139 454 osc~;
#X obj 83 498 +~;
#X obj 261 425 pack f 30;
#X obj 261 447 line~;
#X obj 117 476 *~;
#X text 25 308 carrier frequency;
#X text 481 524 modulating frequency;
#X text 335 390 inharmonic sound;
#X text 520 591 modulating index;
#X text 485 204 Frequency Modulation or FM Synthesis;
#X text 485 540 think period becoming shorter;
#X text 559 623 think range of frequency;
#X text 508 275 x cycles/s of +- y;
#X obj 127 400 *;
#X floatatom 142 438 5 0 0 0 - - -, f 5;
#X obj 167 309 r hr;
#X floatatom 195 337 5 0 0 0 - - -, f 5;
#X obj 136 372 t b f;
#X obj 306 340 t b f;
#X floatatom 281 389 5 0 0 0 - - -, f 5;
#X obj 306 362 *;
#X obj 99 592 *~;
#N canvas 746 161 450 300 genericAdsr 0;
#X obj 148 372 line~;
#X floatatom 23 112 5 0 0 0 - - -, f 5;
#X text 27 144 attack;
#X text 141 154 decay;
#X obj 23 128 t b b f, f 33;
#X text 237 146 level;
#X obj 318 151 bng 15 250 50 0 empty empty empty 17 7 0 10 -262144
-1 -1;
#X text 25 80 KEY PRESS;
#X text 292 122 KEY RELEASE;
#X obj 318 172 t b b;
#X floatatom 224 65 5 0 0 0 - - -, f 5;
#X obj 224 85 s a;
#X floatatom 268 66 5 0 0 0 - - -, f 5;
#X floatatom 310 66 5 0 0 0 - - -, f 5;
#X floatatom 354 67 5 0 0 0 - - -, f 5;
#X obj 268 86 s d;
#X obj 309 86 s s;
#X obj 354 87 s r;
#X obj 22 300 pack;
#X obj 56 257 r a;
#X floatatom 56 275 5 0 0 0 - - -, f 5;
#X obj 148 173 r a;
#X floatatom 148 191 5 0 0 0 - - -, f 5;
#X obj 126 211 del;
#X obj 137 280 f;
#X obj 162 214 r s;
#X text 226 103 ms;
#X text 269 103 ms;
#X text 309 105 db;
#X text 359 104 ms;
#X obj 162 231 dbtorms;
#X floatatom 162 249 5 0 0 0 - - -, f 5;
#X obj 137 307 pack, f 9;
#X floatatom 197 284 5 0 0 0 - - -, f 5;
#X obj 197 266 r d;
#X obj 154 401 *~, f 13;
#X msg 349 193 stop;
#X msg 318 228 0;
#X obj 317 288 pack;
#X obj 366 231 r r;
#X floatatom 366 249 5 0 0 0 - - -, f 5;
#X obj 11 15 inlet;
#X obj 39 46 sel 0;
#X obj 159 429 outlet~;
#X obj 264 0 loadbang;
#X msg 22 202 1;
#X msg 266 35 35;
#X msg 309 34 90;
#X msg 355 39 100;
#X msg 228 37 60;
#X connect 0 0 35 0;
#X connect 1 0 4 0;
#X connect 4 0 45 0;
#X connect 4 1 23 0;
#X connect 4 2 35 1;
#X connect 6 0 9 0;
#X connect 9 0 37 0;
#X connect 9 1 36 0;
#X connect 10 0 11 0;
#X connect 12 0 15 0;
#X connect 13 0 16 0;
#X connect 14 0 17 0;
#X connect 18 0 0 0;
#X connect 19 0 20 0;
#X connect 20 0 18 1;
#X connect 21 0 22 0;
#X connect 22 0 23 1;
#X connect 23 0 24 0;
#X connect 24 0 32 0;
#X connect 25 0 30 0;
#X connect 30 0 31 0;
#X connect 31 0 24 1;
#X connect 32 0 0 0;
#X connect 33 0 32 1;
#X connect 34 0 33 0;
#X connect 35 0 43 0;
#X connect 36 0 23 0;
#X connect 37 0 38 0;
#X connect 38 0 0 0;
#X connect 39 0 40 0;
#X connect 40 0 38 1;
#X connect 41 0 42 0;
#X connect 42 0 6 0;
#X connect 42 1 1 0;
#X connect 44 0 49 0;
#X connect 44 0 46 0;
#X connect 44 0 47 0;
#X connect 44 0 48 0;
#X connect 45 0 18 0;
#X connect 46 0 12 0;
#X connect 47 0 13 0;
#X connect 48 0 14 0;
#X connect 49 0 10 0;
#X restore 355 484 pd genericAdsr;
#X floatatom 408 324 5 0 0 0 - - -, f 5;
#X obj 101 654 outlet~;
#X floatatom 288 293 5 0 0 0 - - -, f 5;
#X msg 343 293 0;
#X obj 334 274 bng 15 250 50 0 empty empty empty 17 7 0 10 -262144
-1 -1;
#X obj 338 205 r duration;
#X obj 283 258 bng 15 250 50 0 empty empty empty 17 7 0 10 -262144
-1 -1;
#X obj 306 243 del 1000;
#X obj 210 289 loadbang;
#X msg 210 311 1;
#X obj 405 297 r hi;
#X msg 78 279 \$1;
#X msg 233 258 \$2;
#X floatatom 73 156 5 0 0 0 - - -, f 5;
#X floatatom 150 140 5 0 0 0 - - -, f 5;
#X obj 150 159 / 127;
#X obj 109 192 pack;
#X obj 154 184 t b f;
#X msg 51 113 \$1;
#X msg 152 86 \$2;
#X msg 154 58 231 75;
#X obj 75 425 pack f 30;
#X obj 75 447 line~;
#X obj 48 61 del 500;
#X msg 86 27 \$2;
#X obj 24 84 f;
#X obj 47 40 bng 15 250 50 0 empty empty empty 17 7 0 10 -262144 -1
-1;
#X msg 2 37 \$1;
#X obj 17 17 r freq7;
#X obj 258 46 loadbang;
#X msg 258 68 75;
#X obj 258 90 / 127;
#X connect 0 0 23 0;
#X connect 1 0 15 0;
#X connect 1 0 46 0;
#X connect 2 0 6 0;
#X connect 3 0 0 0;
#X connect 4 0 5 0;
#X connect 5 0 6 1;
#X connect 6 0 3 1;
#X connect 15 0 16 0;
#X connect 15 0 22 0;
#X connect 16 0 2 0;
#X connect 17 0 18 0;
#X connect 18 0 19 0;
#X connect 19 0 15 0;
#X connect 19 1 15 1;
#X connect 20 0 22 0;
#X connect 20 1 22 1;
#X connect 21 0 4 0;
#X connect 22 0 21 0;
#X connect 23 0 26 0;
#X connect 24 0 23 1;
#X connect 25 0 20 0;
#X connect 28 0 24 0;
#X connect 29 0 28 0;
#X connect 30 0 32 1;
#X connect 31 0 32 0;
#X connect 32 0 29 0;
#X connect 33 0 34 0;
#X connect 34 0 18 0;
#X connect 34 0 25 0;
#X connect 35 0 25 0;
#X connect 36 0 1 0;
#X connect 37 0 24 0;
#X connect 37 0 27 0;
#X connect 37 0 31 0;
#X connect 38 0 41 0;
#X connect 39 0 40 0;
#X connect 40 0 42 0;
#X connect 41 0 36 0;
#X connect 41 0 37 0;
#X connect 42 0 41 0;
#X connect 42 1 41 1;
#X connect 43 0 38 0;
#X connect 44 0 39 0;
#X connect 45 0 44 0;
#X connect 45 0 43 0;
#X connect 46 0 47 0;
#X connect 47 0 3 0;
#X connect 48 0 50 0;
#X connect 49 0 48 1;
#X connect 50 0 43 0;
#X connect 51 0 48 0;
#X connect 52 0 50 1;
#X connect 53 0 51 0;
#X connect 53 0 52 0;
#X connect 53 0 49 0;
#X connect 54 0 55 0;
#X connect 55 0 56 0;
#X connect 56 0 41 1;
#X restore 620 373 pd fmVoice7;
#N canvas 69 126 783 703 fmVoice8 0;
#X obj 80 555 osc~;
#X floatatom 70 350 5 0 0 0 - - -, f 5;
#X obj 139 454 osc~;
#X obj 83 498 +~;
#X obj 261 425 pack f 30;
#X obj 261 447 line~;
#X obj 117 476 *~;
#X text 25 308 carrier frequency;
#X text 481 524 modulating frequency;
#X text 335 390 inharmonic sound;
#X text 520 591 modulating index;
#X text 485 204 Frequency Modulation or FM Synthesis;
#X text 485 540 think period becoming shorter;
#X text 559 623 think range of frequency;
#X text 508 275 x cycles/s of +- y;
#X obj 127 400 *;
#X floatatom 142 438 5 0 0 0 - - -, f 5;
#X obj 167 309 r hr;
#X floatatom 195 337 5 0 0 0 - - -, f 5;
#X obj 136 372 t b f;
#X obj 306 340 t b f;
#X floatatom 281 389 5 0 0 0 - - -, f 5;
#X obj 306 362 *;
#X obj 99 592 *~;
#N canvas 746 161 450 300 genericAdsr 0;
#X obj 148 372 line~;
#X floatatom 23 112 5 0 0 0 - - -, f 5;
#X text 27 144 attack;
#X text 141 154 decay;
#X obj 23 128 t b b f, f 33;
#X text 237 146 level;
#X obj 318 151 bng 15 250 50 0 empty empty empty 17 7 0 10 -262144
-1 -1;
#X text 25 80 KEY PRESS;
#X text 292 122 KEY RELEASE;
#X obj 318 172 t b b;
#X floatatom 224 65 5 0 0 0 - - -, f 5;
#X obj 224 85 s a;
#X floatatom 268 66 5 0 0 0 - - -, f 5;
#X floatatom 310 66 5 0 0 0 - - -, f 5;
#X floatatom 354 67 5 0 0 0 - - -, f 5;
#X obj 268 86 s d;
#X obj 309 86 s s;
#X obj 354 87 s r;
#X obj 22 300 pack;
#X obj 56 257 r a;
#X floatatom 56 275 5 0 0 0 - - -, f 5;
#X obj 148 173 r a;
#X floatatom 148 191 5 0 0 0 - - -, f 5;
#X obj 126 211 del;
#X obj 137 280 f;
#X obj 162 214 r s;
#X text 226 103 ms;
#X text 269 103 ms;
#X text 309 105 db;
#X text 359 104 ms;
#X obj 162 231 dbtorms;
#X floatatom 162 249 5 0 0 0 - - -, f 5;
#X obj 137 307 pack, f 9;
#X floatatom 197 284 5 0 0 0 - - -, f 5;
#X obj 197 266 r d;
#X obj 154 401 *~, f 13;
#X msg 349 193 stop;
#X msg 318 228 0;
#X obj 317 288 pack;
#X obj 366 231 r r;
#X floatatom 366 249 5 0 0 0 - - -, f 5;
#X obj 11 15 inlet;
#X obj 39 46 sel 0;
#X obj 159 429 outlet~;
#X obj 264 0 loadbang;
#X msg 22 202 1;
#X msg 266 35 35;
#X msg 309 34 90;
#X msg 355 39 100;
#X msg 228 37 60;
#X connect 0 0 35 0;
#X connect 1 0 4 0;
#X connect 4 0 45 0;
#X connect 4 1 23 0;
#X connect 4 2 35 1;
#X connect 6 0 9 0;
#X connect 9 0 37 0;
#X connect 9 1 36 0;
#X connect 10 0 11 0;
#X connect 12 0 15 0;
#X connect 13 0 16 0;
#X connect 14 0 17 0;
#X connect 18 0 0 0;
#X connect 19 0 20 0;
#X connect 20 0 18 1;
#X connect 21 0 22 0;
#X connect 22 0 23 1;
#X connect 23 0 24 0;
#X connect 24 0 32 0;
#X connect 25 0 30 0;
#X connect 30 0 31 0;
#X connect 31 0 24 1;
#X connect 32 0 0 0;
#X connect 33 0 32 1;
#X connect 34 0 33 0;
#X connect 35 0 43 0;
#X connect 36 0 23 0;
#X connect 37 0 38 0;
#X connect 38 0 0 0;
#X connect 39 0 40 0;
#X connect 40 0 38 1;
#X connect 41 0 42 0;
#X connect 42 0 6 0;
#X connect 42 1 1 0;
#X connect 44 0 49 0;
#X connect 44 0 46 0;
#X connect 44 0 47 0;
#X connect 44 0 48 0;
#X connect 45 0 18 0;
#X connect 46 0 12 0;
#X connect 47 0 13 0;
#X connect 48 0 14 0;
#X connect 49 0 10 0;
#X restore 355 484 pd genericAdsr;
#X floatatom 408 324 5 0 0 0 - - -, f 5;
#X obj 101 654 outlet~;
#X floatatom 288 293 5 0 0 0 - - -, f 5;
#X msg 343 293 0;
#X obj 334 274 bng 15 250 50 0 empty empty empty 17 7 0 10 -262144
-1 -1;
#X obj 338 205 r duration;
#X obj 283 258 bng 15 250 50 0 empty empty empty 17 7 0 10 -262144
-1 -1;
#X obj 306 243 del 1000;
#X obj 210 289 loadbang;
#X msg 210 311 1;
#X obj 405 297 r hi;
#X msg 78 279 \$1;
#X msg 233 258 \$2;
#X floatatom 73 156 5 0 0 0 - - -, f 5;
#X floatatom 150 140 5 0 0 0 - - -, f 5;
#X obj 150 159 / 127;
#X obj 109 192 pack;
#X obj 154 184 t b f;
#X msg 51 113 \$1;
#X msg 152 86 \$2;
#X msg 154 58 231 75;
#X obj 75 425 pack f 30;
#X obj 75 447 line~;
#X obj 48 61 del 500;
#X msg 86 27 \$2;
#X obj 24 84 f;
#X obj 47 40 bng 15 250 50 0 empty empty empty 17 7 0 10 -262144 -1
-1;
#X msg 2 37 \$1;
#X obj 17 17 r freq8;
#X obj 258 46 loadbang;
#X msg 258 68 75;
#X obj 258 90 / 127;
#X connect 0 0 23 0;
#X connect 1 0 15 0;
#X connect 1 0 46 0;
#X connect 2 0 6 0;
#X connect 3 0 0 0;
#X connect 4 0 5 0;
#X connect 5 0 6 1;
#X connect 6 0 3 1;
#X connect 15 0 16 0;
#X connect 15 0 22 0;
#X connect 16 0 2 0;
#X connect 17 0 18 0;
#X connect 18 0 19 0;
#X connect 19 0 15 0;
#X connect 19 1 15 1;
#X connect 20 0 22 0;
#X connect 20 1 22 1;
#X connect 21 0 4 0;
#X connect 22 0 21 0;
#X connect 23 0 26 0;
#X connect 24 0 23 1;
#X connect 25 0 20 0;
#X connect 28 0 24 0;
#X connect 29 0 28 0;
#X connect 30 0 32 1;
#X connect 31 0 32 0;
#X connect 32 0 29 0;
#X connect 33 0 34 0;
#X connect 34 0 18 0;
#X connect 34 0 25 0;
#X connect 35 0 25 0;
#X connect 36 0 1 0;
#X connect 37 0 24 0;
#X connect 37 0 27 0;
#X connect 37 0 31 0;
#X connect 38 0 41 0;
#X connect 39 0 40 0;
#X connect 40 0 42 0;
#X connect 41 0 36 0;
#X connect 41 0 37 0;
#X connect 42 0 41 0;
#X connect 42 1 41 1;
#X connect 43 0 38 0;
#X connect 44 0 39 0;
#X connect 45 0 44 0;
#X connect 45 0 43 0;
#X connect 46 0 47 0;
#X connect 47 0 3 0;
#X connect 48 0 50 0;
#X connect 49 0 48 1;
#X connect 50 0 43 0;
#X connect 51 0 48 0;
#X connect 52 0 50 1;
#X connect 53 0 51 0;
#X connect 53 0 52 0;
#X connect 53 0 49 0;
#X connect 54 0 55 0;
#X connect 55 0 56 0;
#X connect 56 0 41 1;
#X restore 727 377 pd fmVoice8;
#N canvas 69 126 783 703 fmVoice9 0;
#X obj 80 555 osc~;
#X floatatom 70 350 5 0 0 0 - - -, f 5;
#X obj 139 454 osc~;
#X obj 83 498 +~;
#X obj 261 425 pack f 30;
#X obj 261 447 line~;
#X obj 117 476 *~;
#X text 25 308 carrier frequency;
#X text 481 524 modulating frequency;
#X text 335 390 inharmonic sound;
#X text 520 591 modulating index;
#X text 485 204 Frequency Modulation or FM Synthesis;
#X text 485 540 think period becoming shorter;
#X text 559 623 think range of frequency;
#X text 508 275 x cycles/s of +- y;
#X obj 127 400 *;
#X floatatom 142 438 5 0 0 0 - - -, f 5;
#X obj 167 309 r hr;
#X floatatom 195 337 5 0 0 0 - - -, f 5;
#X obj 136 372 t b f;
#X obj 306 340 t b f;
#X floatatom 281 389 5 0 0 0 - - -, f 5;
#X obj 306 362 *;
#X obj 99 592 *~;
#N canvas 746 161 450 300 genericAdsr 0;
#X obj 148 372 line~;
#X floatatom 23 112 5 0 0 0 - - -, f 5;
#X text 27 144 attack;
#X text 141 154 decay;
#X obj 23 128 t b b f, f 33;
#X text 237 146 level;
#X obj 318 151 bng 15 250 50 0 empty empty empty 17 7 0 10 -262144
-1 -1;
#X text 25 80 KEY PRESS;
#X text 292 122 KEY RELEASE;
#X obj 318 172 t b b;
#X floatatom 224 65 5 0 0 0 - - -, f 5;
#X obj 224 85 s a;
#X floatatom 268 66 5 0 0 0 - - -, f 5;
#X floatatom 310 66 5 0 0 0 - - -, f 5;
#X floatatom 354 67 5 0 0 0 - - -, f 5;
#X obj 268 86 s d;
#X obj 309 86 s s;
#X obj 354 87 s r;
#X obj 22 300 pack;
#X obj 56 257 r a;
#X floatatom 56 275 5 0 0 0 - - -, f 5;
#X obj 148 173 r a;
#X floatatom 148 191 5 0 0 0 - - -, f 5;
#X obj 126 211 del;
#X obj 137 280 f;
#X obj 162 214 r s;
#X text 226 103 ms;
#X text 269 103 ms;
#X text 309 105 db;
#X text 359 104 ms;
#X obj 162 231 dbtorms;
#X floatatom 162 249 5 0 0 0 - - -, f 5;
#X obj 137 307 pack, f 9;
#X floatatom 197 284 5 0 0 0 - - -, f 5;
#X obj 197 266 r d;
#X obj 154 401 *~, f 13;
#X msg 349 193 stop;
#X msg 318 228 0;
#X obj 317 288 pack;
#X obj 366 231 r r;
#X floatatom 366 249 5 0 0 0 - - -, f 5;
#X obj 11 15 inlet;
#X obj 39 46 sel 0;
#X obj 159 429 outlet~;
#X obj 264 0 loadbang;
#X msg 22 202 1;
#X msg 266 35 35;
#X msg 309 34 90;
#X msg 355 39 100;
#X msg 228 37 60;
#X connect 0 0 35 0;
#X connect 1 0 4 0;
#X connect 4 0 45 0;
#X connect 4 1 23 0;
#X connect 4 2 35 1;
#X connect 6 0 9 0;
#X connect 9 0 37 0;
#X connect 9 1 36 0;
#X connect 10 0 11 0;
#X connect 12 0 15 0;
#X connect 13 0 16 0;
#X connect 14 0 17 0;
#X connect 18 0 0 0;
#X connect 19 0 20 0;
#X connect 20 0 18 1;
#X connect 21 0 22 0;
#X connect 22 0 23 1;
#X connect 23 0 24 0;
#X connect 24 0 32 0;
#X connect 25 0 30 0;
#X connect 30 0 31 0;
#X connect 31 0 24 1;
#X connect 32 0 0 0;
#X connect 33 0 32 1;
#X connect 34 0 33 0;
#X connect 35 0 43 0;
#X connect 36 0 23 0;
#X connect 37 0 38 0;
#X connect 38 0 0 0;
#X connect 39 0 40 0;
#X connect 40 0 38 1;
#X connect 41 0 42 0;
#X connect 42 0 6 0;
#X connect 42 1 1 0;
#X connect 44 0 49 0;
#X connect 44 0 46 0;
#X connect 44 0 47 0;
#X connect 44 0 48 0;
#X connect 45 0 18 0;
#X connect 46 0 12 0;
#X connect 47 0 13 0;
#X connect 48 0 14 0;
#X connect 49 0 10 0;
#X restore 355 484 pd genericAdsr;
#X floatatom 408 324 5 0 0 0 - - -, f 5;
#X obj 101 654 outlet~;
#X floatatom 288 293 5 0 0 0 - - -, f 5;
#X msg 343 293 0;
#X obj 334 274 bng 15 250 50 0 empty empty empty 17 7 0 10 -262144
-1 -1;
#X obj 338 205 r duration;
#X obj 283 258 bng 15 250 50 0 empty empty empty 17 7 0 10 -262144
-1 -1;
#X obj 306 243 del 1000;
#X obj 210 289 loadbang;
#X msg 210 311 1;
#X obj 405 297 r hi;
#X msg 78 279 \$1;
#X msg 233 258 \$2;
#X floatatom 73 156 5 0 0 0 - - -, f 5;
#X floatatom 150 140 5 0 0 0 - - -, f 5;
#X obj 150 159 / 127;
#X obj 109 192 pack;
#X obj 154 184 t b f;
#X msg 51 113 \$1;
#X msg 152 86 \$2;
#X msg 154 58 231 75;
#X obj 75 425 pack f 30;
#X obj 75 447 line~;
#X obj 48 61 del 500;
#X msg 86 27 \$2;
#X obj 24 84 f;
#X obj 47 40 bng 15 250 50 0 empty empty empty 17 7 0 10 -262144 -1
-1;
#X msg 2 37 \$1;
#X obj 17 17 r freq9;
#X obj 250 93 loadbang;
#X msg 250 115 75;
#X obj 250 137 / 127;
#X connect 0 0 23 0;
#X connect 1 0 15 0;
#X connect 1 0 46 0;
#X connect 2 0 6 0;
#X connect 3 0 0 0;
#X connect 4 0 5 0;
#X connect 5 0 6 1;
#X connect 6 0 3 1;
#X connect 15 0 16 0;
#X connect 15 0 22 0;
#X connect 16 0 2 0;
#X connect 17 0 18 0;
#X connect 18 0 19 0;
#X connect 19 0 15 0;
#X connect 19 1 15 1;
#X connect 20 0 22 0;
#X connect 20 1 22 1;
#X connect 21 0 4 0;
#X connect 22 0 21 0;
#X connect 23 0 26 0;
#X connect 24 0 23 1;
#X connect 25 0 20 0;
#X connect 28 0 24 0;
#X connect 29 0 28 0;
#X connect 30 0 32 1;
#X connect 31 0 32 0;
#X connect 32 0 29 0;
#X connect 33 0 34 0;
#X connect 34 0 18 0;
#X connect 34 0 25 0;
#X connect 35 0 25 0;
#X connect 36 0 1 0;
#X connect 37 0 24 0;
#X connect 37 0 27 0;
#X connect 37 0 31 0;
#X connect 38 0 41 0;
#X connect 39 0 40 0;
#X connect 40 0 42 0;
#X connect 41 0 36 0;
#X connect 41 0 37 0;
#X connect 42 0 41 0;
#X connect 42 1 41 1;
#X connect 43 0 38 0;
#X connect 44 0 39 0;
#X connect 45 0 44 0;
#X connect 45 0 43 0;
#X connect 46 0 47 0;
#X connect 47 0 3 0;
#X connect 48 0 50 0;
#X connect 49 0 48 1;
#X connect 50 0 43 0;
#X connect 51 0 48 0;
#X connect 52 0 50 1;
#X connect 53 0 51 0;
#X connect 53 0 52 0;
#X connect 53 0 49 0;
#X connect 54 0 55 0;
#X connect 55 0 56 0;
#X connect 56 0 41 1;
#X restore 808 371 pd fmVoice9;
#N canvas 69 126 783 703 fmVoice10 0;
#X obj 80 555 osc~;
#X floatatom 70 350 5 0 0 0 - - -, f 5;
#X obj 139 454 osc~;
#X obj 83 498 +~;
#X obj 261 425 pack f 30;
#X obj 261 447 line~;
#X obj 117 476 *~;
#X text 25 308 carrier frequency;
#X text 481 524 modulating frequency;
#X text 335 390 inharmonic sound;
#X text 520 591 modulating index;
#X text 485 204 Frequency Modulation or FM Synthesis;
#X text 485 540 think period becoming shorter;
#X text 559 623 think range of frequency;
#X text 508 275 x cycles/s of +- y;
#X obj 127 400 *;
#X floatatom 142 438 5 0 0 0 - - -, f 5;
#X obj 167 309 r hr;
#X floatatom 195 337 5 0 0 0 - - -, f 5;
#X obj 136 372 t b f;
#X obj 306 340 t b f;
#X floatatom 281 389 5 0 0 0 - - -, f 5;
#X obj 306 362 *;
#X obj 99 592 *~;
#N canvas 746 161 450 300 genericAdsr 0;
#X obj 148 372 line~;
#X floatatom 23 112 5 0 0 0 - - -, f 5;
#X text 27 144 attack;
#X text 141 154 decay;
#X obj 23 128 t b b f, f 33;
#X text 237 146 level;
#X obj 318 151 bng 15 250 50 0 empty empty empty 17 7 0 10 -262144
-1 -1;
#X text 25 80 KEY PRESS;
#X text 292 122 KEY RELEASE;
#X obj 318 172 t b b;
#X floatatom 224 65 5 0 0 0 - - -, f 5;
#X obj 224 85 s a;
#X floatatom 268 66 5 0 0 0 - - -, f 5;
#X floatatom 310 66 5 0 0 0 - - -, f 5;
#X floatatom 354 67 5 0 0 0 - - -, f 5;
#X obj 268 86 s d;
#X obj 309 86 s s;
#X obj 354 87 s r;
#X obj 22 300 pack;
#X obj 56 257 r a;
#X floatatom 56 275 5 0 0 0 - - -, f 5;
#X obj 148 173 r a;
#X floatatom 148 191 5 0 0 0 - - -, f 5;
#X obj 126 211 del;
#X obj 137 280 f;
#X obj 162 214 r s;
#X text 226 103 ms;
#X text 269 103 ms;
#X text 309 105 db;
#X text 359 104 ms;
#X obj 162 231 dbtorms;
#X floatatom 162 249 5 0 0 0 - - -, f 5;
#X obj 137 307 pack, f 9;
#X floatatom 197 284 5 0 0 0 - - -, f 5;
#X obj 197 266 r d;
#X obj 154 401 *~, f 13;
#X msg 349 193 stop;
#X msg 318 228 0;
#X obj 317 288 pack;
#X obj 366 231 r r;
#X floatatom 366 249 5 0 0 0 - - -, f 5;
#X obj 11 15 inlet;
#X obj 39 46 sel 0;
#X obj 159 429 outlet~;
#X obj 264 0 loadbang;
#X msg 22 202 1;
#X msg 266 35 35;
#X msg 309 34 90;
#X msg 355 39 100;
#X msg 228 37 60;
#X connect 0 0 35 0;
#X connect 1 0 4 0;
#X connect 4 0 45 0;
#X connect 4 1 23 0;
#X connect 4 2 35 1;
#X connect 6 0 9 0;
#X connect 9 0 37 0;
#X connect 9 1 36 0;
#X connect 10 0 11 0;
#X connect 12 0 15 0;
#X connect 13 0 16 0;
#X connect 14 0 17 0;
#X connect 18 0 0 0;
#X connect 19 0 20 0;
#X connect 20 0 18 1;
#X connect 21 0 22 0;
#X connect 22 0 23 1;
#X connect 23 0 24 0;
#X connect 24 0 32 0;
#X connect 25 0 30 0;
#X connect 30 0 31 0;
#X connect 31 0 24 1;
#X connect 32 0 0 0;
#X connect 33 0 32 1;
#X connect 34 0 33 0;
#X connect 35 0 43 0;
#X connect 36 0 23 0;
#X connect 37 0 38 0;
#X connect 38 0 0 0;
#X connect 39 0 40 0;
#X connect 40 0 38 1;
#X connect 41 0 42 0;
#X connect 42 0 6 0;
#X connect 42 1 1 0;
#X connect 44 0 49 0;
#X connect 44 0 46 0;
#X connect 44 0 47 0;
#X connect 44 0 48 0;
#X connect 45 0 18 0;
#X connect 46 0 12 0;
#X connect 47 0 13 0;
#X connect 48 0 14 0;
#X connect 49 0 10 0;
#X restore 355 484 pd genericAdsr;
#X floatatom 408 324 5 0 0 0 - - -, f 5;
#X obj 101 654 outlet~;
#X floatatom 288 293 5 0 0 0 - - -, f 5;
#X msg 343 293 0;
#X obj 334 274 bng 15 250 50 0 empty empty empty 17 7 0 10 -262144
-1 -1;
#X obj 338 205 r duration;
#X obj 283 258 bng 15 250 50 0 empty empty empty 17 7 0 10 -262144
-1 -1;
#X obj 306 243 del 1000;
#X obj 210 289 loadbang;
#X msg 210 311 1;
#X obj 405 297 r hi;
#X msg 78 279 \$1;
#X msg 233 258 \$2;
#X floatatom 73 156 5 0 0 0 - - -, f 5;
#X floatatom 134 119 5 0 0 0 - - -, f 5;
#X obj 134 138 / 127;
#X obj 109 192 pack;
#X obj 138 163 t b f;
#X msg 51 113 \$1;
#X msg 152 86 \$2;
#X msg 154 58 231 75;
#X obj 75 425 pack f 30;
#X obj 75 447 line~;
#X obj 48 61 del 500;
#X msg 86 27 \$2;
#X obj 24 84 f;
#X obj 47 40 bng 15 250 50 0 empty empty empty 17 7 0 10 -262144 -1
-1;
#X msg 2 37 \$1;
#X obj 17 17 r freq10;
#X obj 258 46 loadbang;
#X msg 258 68 75;
#X obj 258 90 / 127;
#X connect 0 0 23 0;
#X connect 1 0 15 0;
#X connect 1 0 46 0;
#X connect 2 0 6 0;
#X connect 3 0 0 0;
#X connect 4 0 5 0;
#X connect 5 0 6 1;
#X connect 6 0 3 1;
#X connect 15 0 16 0;
#X connect 15 0 22 0;
#X connect 16 0 2 0;
#X connect 17 0 18 0;
#X connect 18 0 19 0;
#X connect 19 0 15 0;
#X connect 19 1 15 1;
#X connect 20 0 22 0;
#X connect 20 1 22 1;
#X connect 21 0 4 0;
#X connect 22 0 21 0;
#X connect 23 0 26 0;
#X connect 24 0 23 1;
#X connect 25 0 20 0;
#X connect 28 0 24 0;
#X connect 29 0 28 0;
#X connect 30 0 32 1;
#X connect 31 0 32 0;
#X connect 32 0 29 0;
#X connect 33 0 34 0;
#X connect 34 0 18 0;
#X connect 34 0 25 0;
#X connect 35 0 25 0;
#X connect 36 0 1 0;
#X connect 37 0 24 0;
#X connect 37 0 27 0;
#X connect 37 0 31 0;
#X connect 38 0 41 0;
#X connect 39 0 40 0;
#X connect 40 0 42 0;
#X connect 41 0 36 0;
#X connect 41 0 37 0;
#X connect 42 0 41 0;
#X connect 42 1 41 1;
#X connect 43 0 38 0;
#X connect 44 0 39 0;
#X connect 45 0 44 0;
#X connect 45 0 43 0;
#X connect 46 0 47 0;
#X connect 47 0 3 0;
#X connect 48 0 50 0;
#X connect 49 0 48 1;
#X connect 50 0 43 0;
#X connect 51 0 48 0;
#X connect 52 0 50 1;
#X connect 53 0 51 0;
#X connect 53 0 52 0;
#X connect 53 0 49 0;
#X connect 54 0 55 0;
#X connect 55 0 56 0;
#X connect 56 0 41 1;
#X restore 901 371 pd fmVoice10;
#X obj 397 526 /~ 10;
#X connect 2 0 1 0;
#X connect 3 0 5 0;
#X connect 4 0 1 0;
#X connect 5 0 4 0;
#X connect 6 0 17 0;
#X connect 7 0 6 0;
#X connect 8 0 6 0;
#X connect 9 0 6 0;
#X connect 10 0 6 0;
#X connect 11 0 6 0;
#X connect 12 0 6 0;
#X connect 13 0 6 0;
#X connect 14 0 6 0;
#X connect 15 0 6 0;
#X connect 16 0 6 0;
#X connect 17 0 0 0;
#X connect 17 0 0 1;
